<svg width="90" height="90" viewBox="0 0 90 90" fill="none" xmlns="http://www.w3.org/2000/svg">
<path d="M42.8623 39.2833C42.6557 39.5981 42.4147 39.8779 42.1392 40.1578L42.1048 40.1928C42.1048 40.2278 42.0704 40.2278 42.0359 40.2278C41.9326 40.3327 41.8294 40.4027 41.7949 40.4377C41.6916 40.4377 41.5195 40.4377 41.3817 40.4377C40.7276 40.4377 39.8668 40.4377 39.1782 40.8574C38.8338 41.0673 38.6617 41.3822 38.6273 41.802C38.5928 42.1868 38.765 42.6066 39.0749 42.8864L40.521 44.1108L39.7291 45.0553C35.0809 40.6126 28.78 34.5607 27.9536 33.826C26.6108 32.6366 25.027 33.0564 22.1692 33.3713C19.3458 33.6861 16.1782 28.6487 15.283 26.6547C14.3878 24.6607 15.9027 25.6402 15.9027 25.6402C15.9027 25.6402 18.0719 27.0745 20.1722 27.8441C22.2725 28.6137 24.3039 25.7102 24.3039 25.7102C24.3039 25.7102 26.0943 21.9321 24.4072 20.7077C22.7201 19.4833 19.9312 18.0841 19.9312 18.0841C19.9312 18.0841 18.4506 16.8597 21.033 16.9296C23.6153 16.9646 28.3668 17.2445 29.6752 20.0431C30.9491 22.8416 29.9851 26.7247 32.2575 28.9285C33.497 30.1179 38.5928 35.1554 42.8623 39.2833Z" fill="#033E6A"/>
<path d="M73.1272 64.9253C73.1272 64.9253 70.958 63.491 68.8577 62.7214C66.7574 61.9518 64.726 64.8553 64.726 64.8553C64.726 64.8553 62.9356 68.6334 64.6227 69.8577C66.3098 71.0821 69.0988 72.4814 69.0988 72.4814C69.0988 72.4814 70.5449 73.7058 67.997 73.6358C65.4146 73.6008 60.6631 73.321 59.3548 70.5224C58.0808 67.7238 59.0449 63.8408 56.7724 61.6369C54.5 59.4331 44.6527 49.813 44.6527 49.813C44.6527 49.813 43.8608 49.0434 42.5524 47.819L43.482 46.7345L44.9281 47.9939C45.1691 48.2038 45.4446 48.3087 45.7545 48.3087C46.2365 48.3087 46.6841 48.0289 46.8563 47.5741C47.1661 46.8045 47.0284 45.9299 46.9251 45.3003C46.8907 45.1603 46.8907 45.0204 46.8563 44.9155C46.8907 44.8455 46.9251 44.7755 47.0284 44.6356C47.0284 44.6006 47.0628 44.6006 47.0628 44.5656L47.0973 44.5307C47.235 44.3208 47.3727 44.1459 47.5449 43.9709C48.4401 44.8455 48.991 45.4052 48.991 45.4052C48.991 45.4052 59.7335 55.655 61.1107 56.8444C62.488 58.0338 64.0374 57.614 66.8952 57.2992C69.7185 56.9843 72.8862 62.0217 73.7814 64.0157C74.6422 65.9048 73.1272 64.9253 73.1272 64.9253Z" fill="#033E6A"/>
<path d="M41.9542 43.8911L20.8728 69.025L22.3927 70.341L43.4741 45.2071L41.9542 43.8911Z" fill="#EB0000"/>
<path d="M22.4102 70.3473L21.2395 72.3763L19.1736 74.1254L17.7275 72.866L19.1048 70.5222L20.8952 69.018C20.8952 69.018 22.8233 67.4788 23.0988 67.7237L23.3398 67.9336C23.5808 68.1784 22.4102 70.3473 22.4102 70.3473Z" fill="#EB0000"/>
<path d="M18.8294 74.5452L18.3473 75L17.0734 73.8806L17.3832 73.2859L18.8294 74.5452Z" fill="#EB0000"/>
<path d="M66.2065 17.9091L64.9326 16.7897C63.5554 15.6003 61.4206 15.7752 60.25 17.1745L45.8233 34.3507C45.7545 34.4207 45.72 34.4907 45.6512 34.5606C45.6512 34.5606 43.8263 36.5896 44.1362 38.0239C44.2395 38.5486 44.0673 39.1083 43.7919 39.668C43.7575 39.703 43.7575 39.738 43.723 39.8079C43.4476 40.2277 43.1377 40.6125 42.8278 40.9274C42.7934 40.9624 42.759 40.9973 42.7245 41.0323C42.4835 41.2422 42.2769 41.3821 42.1392 41.4521C41.726 41.592 40.4176 41.3472 39.729 41.8019C39.5913 41.9069 39.5913 42.1168 39.729 42.2217L45.5823 47.2941C45.72 47.3991 45.9266 47.3991 45.9955 47.2242C46.3054 46.4196 45.8578 45.1602 45.9266 44.7404C45.9611 44.6355 46.0643 44.3906 46.2365 44.1108C46.2709 44.0758 46.3054 44.0408 46.3054 43.9708C46.5464 43.621 46.8563 43.2362 47.235 42.8864C47.2694 42.8514 47.3039 42.8164 47.3383 42.7814C47.8203 42.3966 48.3368 42.1168 48.8533 42.1517C50.2994 42.2567 51.9521 40.0878 51.9521 40.0878C52.0209 40.0178 52.0898 39.9479 52.1587 39.8779L66.5509 22.7017C67.7559 21.2324 67.5838 19.0985 66.2065 17.9091ZM47.2694 35.5401C46.7874 35.1203 46.8907 34.1758 47.5105 33.4762L59.6302 19.0285C60.25 18.2939 61.1452 18.049 61.6272 18.4688C62.1092 18.8886 62.006 19.8331 61.3862 20.5328L49.2664 34.9804C48.6467 35.715 47.7515 35.9599 47.2694 35.5401ZM64.8982 23.5412L52.7784 38.0239C52.1587 38.7585 51.2634 39.0034 50.7814 38.5836C50.2994 38.1638 50.4027 37.2193 51.0224 36.5196L63.1422 22.072C63.7619 21.3374 64.6572 21.0925 65.1392 21.5123C65.6212 21.8971 65.5179 22.8066 64.8982 23.5412Z" fill="#EB0000"/>
</svg>
