<svg width="90" height="90" viewBox="0 0 90 90" fill="none" xmlns="http://www.w3.org/2000/svg">
<g clip-path="url(#clip0_2001_11418)">
<path d="M59.1099 59.5296L58.5448 58.1903L49.5039 55.9691L38.7013 55.8384L40.0308 59.0069L59.1099 59.5296Z" fill="#033E6A"/>
<path d="M39.9976 34.9983L41.028 35.031L40.8951 35.227L38.7013 35.1616L40.0308 32.0258H41.8257L39.9976 34.9983Z" fill="#033E6A"/>
<path d="M84.6705 37.1542C83.5403 34.737 79.3855 30.4906 73.602 30.2292C67.8184 29.9353 65.6246 30.7192 63.5971 30.5886C63.2979 30.5559 62.4337 30.5559 61.2039 30.5559C61.2039 30.5559 59.2096 32.1565 57.0158 32.6791C54.8553 33.2017 45.1163 35.5209 41.0612 35.0636C39.9643 35.0963 38.9007 35.0636 37.8371 34.9656C28.6299 34.1817 21.2177 34.2143 21.2842 33.2671C21.3506 32.3198 38.0365 32.0258 40.064 32.0258H41.8589L42.7896 30.5232C37.3717 30.5232 33.0507 30.5232 33.0507 30.5232C33.0507 30.5232 19.456 29.4126 15.4341 30.7192C11.4122 32.0258 7.32388 31.1439 6.02756 34.9003C4.76449 38.6241 4 40.388 4 45.5164C4 50.6447 4.76449 52.376 6.02756 56.1324C7.29064 59.8888 11.379 58.9742 15.4009 60.3135C19.4228 61.6201 32.9842 60.5095 32.9842 60.5095C32.9842 60.5095 61.503 60.5748 63.5306 60.4441C65.5914 60.3135 67.7519 61.0648 73.5355 60.8035C79.319 60.5095 83.4739 56.2957 84.604 53.8785C85.7341 51.4613 86 45.843 85.9335 45.549C86.0665 45.2224 85.8006 39.604 84.6705 37.1542ZM14.437 55.9364C13.9051 55.9691 13.4398 55.6098 13.2736 55.0545C12.8415 53.7152 12.1767 50.7754 12.1767 45.5164C12.1767 40.29 12.8415 37.3502 13.2736 35.9782C13.4398 35.4229 13.9051 35.0636 14.437 35.0963L22.1816 35.3903C22.9129 35.4229 23.4447 36.1416 23.3117 36.9255C22.7799 40.7473 22.8796 45.5164 22.8796 45.5164C22.8796 45.5164 22.7799 50.2854 23.3117 54.1072C23.4114 54.8911 22.8796 55.6098 22.1816 55.6424L14.437 55.9364ZM57.6473 59.0069H40.0308C38.0032 59.0069 21.3174 58.7129 21.2509 57.7656C21.1512 56.8184 28.5967 56.851 37.8038 56.0671C44.9501 55.4791 54.0243 57.5696 57.7138 58.5496C57.9797 58.6149 57.9133 59.0069 57.6473 59.0069ZM63.2647 57.9616C63.0653 58.1576 62.7661 58.2229 62.5002 58.1576L51.5314 56.1324C50.9996 56.0344 50.6672 55.5118 50.8334 54.9891C51.2987 53.5192 52.0632 50.3181 52.0632 45.4837C52.0632 40.682 51.2987 37.4808 50.8334 35.9782C50.6672 35.4556 50.9996 34.933 51.5314 34.835L62.5002 32.8098C62.7661 32.7444 63.0653 32.8424 63.2647 33.0057C64.1289 33.757 66.09 36.4355 66.09 45.4837C66.09 54.5645 64.1289 57.2103 63.2647 57.9616ZM79.7844 57.9943C79.7844 57.9943 80.9809 54.4012 82.4102 53.4539C83.8395 52.5066 83.8727 53.4539 83.8727 53.4539C83.1082 56.1324 79.7844 57.9943 79.7844 57.9943ZM82.4435 37.5462C81.0142 36.5989 79.7844 33.0057 79.7844 33.0057C79.7844 33.0057 83.1082 34.9003 83.8727 37.5462C83.8727 37.5462 83.8727 38.5261 82.4435 37.5462ZM85.0361 47.2802C84.9364 48.6195 84.7702 50.3181 84.5375 50.9714C84.1054 52.1146 83.8062 50.8734 83.9392 48.7828C84.0722 46.6923 84.0722 45.4837 84.0722 45.4837C84.0722 45.4837 84.0722 44.2751 83.9392 42.1845C83.8062 40.094 84.1054 38.8527 84.5375 39.996C84.7702 40.6493 84.9364 42.3479 85.0361 43.6871C85.1026 44.8957 85.1026 46.1043 85.0361 47.2802Z" fill="#033E6A"/>
<path d="M52.0632 18.1433C51.7973 17.7513 51.5314 17.3593 51.2654 17L49.4706 17.098L45.8475 17.2613L46.4126 18.1433C47.7089 20.2665 50.8333 23.8269 53.5589 26.4401C53.7251 26.6034 53.8913 26.7668 54.0575 26.9301C55.2541 28.0734 56.4175 28.9226 57.0822 29.5106C57.2152 29.6413 57.3149 29.7393 57.4146 29.8046C57.4479 29.8046 57.4479 29.8372 57.4479 29.8372C57.6473 30.0332 57.88 30.1966 58.0794 30.3272C59.6416 31.4378 61.503 31.9931 61.503 31.9931L52.0632 18.1433ZM54.5228 26.0481C54.4231 25.9501 54.3234 25.8848 54.2569 25.7868L54.0907 25.5908C51.3652 22.945 49.1382 20.3971 47.443 18.0126L50.2018 17.8819L57.5808 28.5307C57.0158 28.1387 56.0518 27.4201 54.5228 26.0481Z" fill="#033E6A"/>
<path d="M58.312 28.8573C58.312 28.8573 60.0072 28.106 59.974 26.1461C59.9407 24.1536 58.9768 25.0028 58.7109 25.3621C58.445 25.7541 57.5143 26.9301 57.5143 26.9301C57.5143 26.9301 57.1154 27.4854 57.5143 28.0407C57.9464 28.596 58.0794 28.9553 58.312 28.8573Z" fill="#033E6A"/>
<path d="M58.0794 60.6728C57.8467 60.8361 57.6473 60.9994 57.4479 61.1628C57.4146 61.1628 57.4146 61.1954 57.4146 61.1954C57.3149 61.2608 57.2152 61.3914 57.0822 61.4894C56.4507 62.0774 55.2873 62.9267 54.0575 64.0699C53.8913 64.2333 53.7251 64.3966 53.5589 64.5599C50.8333 67.1731 47.7089 70.7335 46.4126 72.8568L45.8475 73.7387L49.4706 73.902L51.2654 74C51.5314 73.6407 51.7973 73.2487 52.0632 72.8568L61.5362 59.0069C61.5362 59.0069 59.6749 59.5622 58.0794 60.6728ZM50.2018 73.1507L47.443 73.0201C49.1382 70.6355 51.3652 68.0877 54.0907 65.4419L54.2569 65.2459C54.3567 65.1479 54.4564 65.0499 54.5228 64.9845C56.0518 63.6126 56.9825 62.894 57.5476 62.502L50.2018 73.1507Z" fill="#033E6A"/>
<path d="M58.312 62.1753C58.312 62.1753 60.0072 62.9266 59.974 64.8865C59.9407 66.8791 58.9768 66.0298 58.7109 65.6705C58.445 65.2785 57.5143 64.1026 57.5143 64.1026C57.5143 64.1026 57.1154 63.5473 57.5143 62.992C57.9464 62.404 58.0794 62.0447 58.312 62.1753Z" fill="#033E6A"/>
<path d="M42.7563 30.4905L61.1706 30.5232L61.0376 32.8097L39.1333 35.7169L42.7563 30.4905Z" fill="#033E6A"/>
</g>
<defs>
<clipPath id="clip0_2001_11418">
<rect width="82" height="57" fill="white" transform="translate(4 17)"/>
</clipPath>
</defs>
</svg>
