<svg width="90" height="90" viewBox="0 0 90 90" fill="none" xmlns="http://www.w3.org/2000/svg">
<path d="M66.5575 17.4763V76.8102H22.8844V17.4763H66.5575ZM69.4789 14.6177H66.5945H22.8844H20V17.4763V76.8102V79.6687H22.8844H66.5575H69.4419V76.8102V17.4763V14.6177H69.4789Z" fill="#033E6A"/>
<path d="M54.3912 21.251H35.0508V23.8164H54.3912V21.251Z" fill="#EB0000"/>
<path d="M59.3465 26.3086H30.1325V28.874H59.3465V26.3086Z" fill="#033E6A"/>
<path d="M48.8072 36.4602H26.7303V39.0256H48.8072V36.4602Z" fill="#033E6A"/>
<path d="M40.8196 46.5386H26.7303V49.104H40.8196V46.5386Z" fill="#033E6A"/>
<path d="M52.3943 56.5802H26.7303V59.1456H52.3943V56.5802Z" fill="#033E6A"/>
<path d="M36.9737 66.6219H26.7303V69.1873H36.9737V66.6219Z" fill="#033E6A"/>
<path d="M62.6007 51.9257H54.2802V43.6798H62.6007V51.9257ZM55.0568 51.1194H61.7871V44.4494H55.0568V51.1194Z" fill="#EB0000"/>
<path d="M62.6007 72.046H54.2802V63.8H62.6007V72.046ZM55.0568 71.2397H61.7871V64.5697H55.0568V71.2397Z" fill="#EB0000"/>
<path d="M55.0568 35.0676V34.4079H61.3064L62.3418 33.6383H54.2802V34.4079L55.0568 35.0676Z" fill="#EB0000"/>
<path d="M61.7871 36.9733V41.0779H57.8303L57.0537 41.8475H62.6007V36.167L61.7871 36.9733Z" fill="#EB0000"/>
<path d="M56.6469 41.078H55.0568V37.8529L54.3542 36.387L54.2802 36.2404V41.8476H57.0537L56.6469 41.078Z" fill="#EB0000"/>
<path d="M54.9089 35.8739L57.2386 40.6382L65.3002 32.2823L57.5714 38.1461L54.9089 35.8739Z" fill="#EB0000"/>
<path d="M55.0568 55.1875V54.5278H61.3064L62.3418 53.7582H54.2802V54.5278L55.0568 55.1875Z" fill="#EB0000"/>
<path d="M56.6469 61.1978H55.0568V57.9727L54.3542 56.5434L54.2802 56.3969V62.0041H57.0537L56.6469 61.1978Z" fill="#EB0000"/>
<path d="M61.7871 57.0933V61.1979H57.8303L57.0537 62.0041H62.6007V56.287L61.7871 57.0933Z" fill="#EB0000"/>
<path d="M54.9089 55.9939L57.2386 60.7582L65.3002 52.439L57.5714 58.2661L54.9089 55.9939Z" fill="#EB0000"/>
<path d="M57.6453 12.309H31.7965V14.6178H57.6453V12.309Z" fill="#033E6A"/>
<path d="M53.5406 10H35.9012V12.3089H53.5406V10Z" fill="#033E6A"/>
</svg>
