<svg width="90" height="90" viewBox="0 0 90 90" fill="none" xmlns="http://www.w3.org/2000/svg">
<path d="M12.2322 34.7332C12.2322 34.7332 11.6883 34.3692 11.3983 33.8066C11.1082 33.211 10.9269 32.6485 9.87549 32.7478C8.82405 32.8801 6.61241 32.6154 6.35861 33.7405C6.14107 34.8324 6.14107 35.6928 7.84513 35.9244C9.51292 36.156 11.4345 36.156 11.4345 36.156C11.4345 36.156 12.631 35.5604 12.5947 35.3619C12.5585 35.1302 12.2322 34.7332 12.2322 34.7332Z" fill="#033E6A"/>
<path d="M5.34349 55.4474C5.34349 55.4474 5.23472 61.2712 7.70016 61.2712C10.1656 61.2712 11.6159 61.3374 11.6884 61.2712C11.7609 61.205 13.4287 61.4366 13.6825 59.8483C13.9363 58.26 13.6825 57.2011 13.6825 57.2011C13.6825 57.2011 10.9632 56.4732 10.3469 56.3408C9.76678 56.2085 7.70016 55.679 7.70016 55.679L5.34349 55.4474Z" fill="#033E6A"/>
<path d="M53.7459 34.7332C53.7459 34.7332 54.2898 34.3692 54.5798 33.8066C54.8699 33.211 55.0512 32.6485 56.1026 32.7478C57.154 32.8801 59.3657 32.6154 59.6195 33.7405C59.837 34.8324 59.837 35.6928 58.133 35.9244C56.4652 36.156 54.5436 36.156 54.5436 36.156C54.5436 36.156 53.3471 35.5604 53.3834 35.3619C53.4196 35.1302 53.7459 34.7332 53.7459 34.7332Z" fill="#898989"/>
<path d="M60.5984 55.4474C60.5984 55.4474 60.7072 61.2712 58.2055 61.2712C55.74 61.2712 54.2898 61.3374 54.2173 61.2712C54.1447 61.205 52.4769 61.4366 52.2231 59.8483C51.9694 58.26 52.2231 57.2011 52.2231 57.2011C52.2231 57.2011 54.9424 56.4732 55.5587 56.3408C56.1388 56.2085 58.2055 55.679 58.2055 55.679L60.5984 55.4474Z" fill="#898989"/>
<path d="M37.1041 53.495C37.7205 53.3296 38.5544 53.0979 39.4608 52.8663C41.5637 52.3038 46.9659 50.914 48.5249 49.9875C48.5612 49.8551 48.6337 49.7559 48.7062 49.6566V49.0941C48.1261 48.2337 47.9448 47.7374 47.836 47.3403C47.7635 46.9763 47.6185 46.2814 47.4735 45.6527C46.9659 45.1564 46.6396 44.5277 46.4945 43.899C46.422 43.7666 46.3858 43.6673 46.3133 43.535L46.277 43.5019C46.0232 43.0386 45.4431 41.9136 45.5156 40.3584C45.5156 40.1598 45.5156 40.1267 45.4068 39.862C45.3343 39.6635 45.2618 39.3988 45.1893 39.101C44.9718 38.1083 45.1893 37.1156 45.7694 36.3545C45.7331 36.156 45.7331 35.9574 45.6969 35.6927C45.6969 35.4942 45.6606 35.3949 45.5881 35.1633C45.5156 34.9316 45.4794 34.7 45.4431 34.4353C41.4549 34.2699 36.4515 34.1044 32.9346 34.1044C26.2272 34.1044 13.9362 34.7 13.9362 34.7C13.9362 34.7 17.4531 30.1005 18.1782 29.1078C18.9034 28.1152 19.4835 27.8504 21.0062 27.5195C22.5653 27.1886 32.8984 27.1886 32.8984 27.1886C32.8984 27.1886 43.2315 27.1886 44.7905 27.5195C45.6969 27.7181 46.2407 27.8835 46.7121 28.1813C46.8934 27.8173 47.0746 27.4534 47.2922 27.0894C45.5881 26.229 43.4852 26.2952 43.4852 26.2952L32.9709 26.0967L22.384 26.2952C22.384 26.2952 19.1572 26.1959 17.4894 27.8504C15.8216 29.5049 12.1234 34.6669 11.7608 35.4611C11.3983 36.2552 10.4193 37.5457 9.22288 38.3068C7.99016 39.101 5.56098 40.0606 5.19842 43.9982C4.83585 47.9359 5.05339 52.9987 5.19842 54.6532C5.34344 56.3076 6.82996 57.5981 9.22288 58.0945C11.6158 58.5577 14.2263 58.1938 18.1782 58.0945C21.115 58.0283 27.895 57.9952 31.158 57.9621C32.137 55.8775 34.2036 54.2892 37.1041 53.495ZM17.163 47.4065C16.9093 47.7705 16.2566 47.8367 15.8216 47.8697C15.2777 47.9359 14.6976 47.9359 14.1538 47.9359C13.1748 47.9359 12.1959 47.8367 11.2532 47.6712C8.28021 47.208 8.02642 45.388 7.84514 44.2299C7.66386 43.0717 9.0416 41.8474 10.4556 42.3107C11.4708 42.6747 12.4497 43.2703 13.3924 43.7997C13.9725 44.1306 14.5888 44.4946 15.1689 44.8586C15.604 45.1233 16.0028 45.4211 16.4017 45.7189C16.8005 46.116 17.6344 46.7778 17.163 47.4065ZM21.6951 44.5939C24.2331 44.5608 33.0071 44.5939 33.0071 44.5939C33.0071 44.5939 41.7812 44.5608 44.3191 44.5939C46.8571 44.627 43.0864 48.8955 41.0198 49.2926C38.9532 49.6897 32.9709 49.5573 32.9709 49.5573C32.9709 49.5573 27.0248 49.6897 24.9582 49.2926C22.8916 48.8624 19.1572 44.627 21.6951 44.5939Z" fill="#EB0000"/>
<path d="M82.5697 59.8483C82.3884 59.1203 81.7358 57.168 78.2915 56.2084C74.8108 55.2157 65.8192 53.2303 65.0216 51.3773C65.0216 51.3773 64.804 50.4508 64.5503 50.881V48.1014C65.0216 47.4727 65.3479 46.9433 65.4204 46.6786C65.5292 46.2815 65.7467 45.0572 65.9643 43.899C66.3631 43.9983 66.7256 43.4689 66.7256 43.2372C66.7256 42.9725 66.9432 42.7409 67.0519 42.4431C67.197 42.1453 67.6683 41.4835 67.5958 40.4577C67.5595 39.465 67.8496 39.0348 67.9584 38.5385C68.0671 38.0421 67.8133 37.6782 67.3783 37.8105C67.2695 37.8436 67.1607 37.9098 67.0519 38.009C67.0519 37.8767 67.0882 37.7443 67.0882 37.5789C67.0882 36.6855 67.342 36.52 67.3783 35.4942C67.4508 34.4684 67.7408 34.3361 67.6683 33.3103C67.6683 33.3103 67.6683 31.7882 67.2695 30.7955C66.8707 29.8028 66.0368 28.3137 65.0578 28.0821C65.0578 28.0821 64.8766 27.6189 64.5865 27.2549C64.1152 26.6262 63.4626 25.9975 59.8732 25.2033C56.2838 24.4092 52.0055 26.0967 50.5915 27.5858C49.2138 29.1079 48.4886 32.2514 48.4524 33.2772C48.4161 34.303 48.7062 34.4354 48.7424 35.4611C48.8149 36.4869 49.0325 36.6524 49.0325 37.5458C49.0325 37.7112 49.0325 37.8436 49.0687 37.976C48.96 37.8767 48.8512 37.8105 48.7424 37.7774C48.3074 37.612 48.0536 38.009 48.1623 38.5054C48.2711 39.0017 48.5612 39.4319 48.5249 40.4246C48.4886 41.4173 48.96 42.1122 49.0687 42.41C49.2138 42.7078 49.3951 42.9394 49.3951 43.2041C49.3951 43.4689 49.7576 43.9652 50.1564 43.8659C50.374 45.0241 50.5915 46.2153 50.7003 46.6455C50.7728 46.9433 51.1354 47.5058 51.643 48.1676V50.9472C51.6067 50.9141 51.6067 50.881 51.6067 50.8479C51.3529 50.4177 51.1716 51.3442 51.1716 51.3442C50.3377 53.1973 41.3461 55.1826 37.9018 56.1753C34.4574 57.168 33.8048 59.1203 33.6235 59.8152C33.4422 60.5432 31.8469 65.4405 31.8469 65.7383H84.2375C84.3463 65.4736 82.7147 60.5763 82.5697 59.8483Z" fill="#033E6A"/>
</svg>
