<svg width="90" height="90" viewBox="0 0 90 90" fill="none" xmlns="http://www.w3.org/2000/svg">
<path d="M80.0174 73.9321H9.98259C9.67765 73.9321 9.20329 73.8306 9 73.6953V75.2173C9 75.5555 9.40659 75.8599 9.94871 75.8599H79.9835C80.5256 75.8599 80.9661 75.5893 80.9661 75.2173V73.6953C80.7967 73.8306 80.3224 73.9321 80.0174 73.9321Z" fill="#033E6A"/>
<path d="M74.7657 14H15.912C15.3699 14 14.9294 14.5073 14.9294 15.1499V54.4169C14.9294 55.0596 15.3699 55.5669 15.912 55.5669H74.7318C75.2739 55.5669 75.7144 55.0596 75.7144 54.4169V15.1499C75.7144 14.5073 75.3078 14 74.7657 14ZM73.4443 53.0979H17.2334V16.5028H73.4443V53.0979Z" fill="#033E6A"/>
<path d="M75.7144 57.4948C75.7144 57.1566 75.3078 56.8522 74.7657 56.8522H15.912C15.3699 56.8522 14.9294 57.1227 14.9294 57.4948L9.03387 72.816C9.03387 73.1542 9.44046 73.4586 9.98258 73.4586H80.0174C80.5595 73.4586 81 73.1881 81 72.816L75.7144 57.4948ZM73.4781 63.3121H70.7675L70.3948 62.1284H73.0715L73.4781 63.3121ZM72.9021 61.6887H70.2254L69.8527 60.5726H72.4955L72.9021 61.6887ZM30.4475 62.1622H33.0903L32.9548 63.3459H30.2442L30.4475 62.1622ZM29.7699 61.7225L29.9393 60.6064H32.5482L32.4127 61.7225H29.7699ZM31.9722 63.7856H34.6828L34.5473 65.0032H31.8028L31.9722 63.7856ZM58.6038 60.1667L58.4005 59.0844H60.9755L61.2127 60.1667H58.6038ZM63.2456 60.5726L63.5167 61.6887H60.84L60.6028 60.5726H63.2456ZM59.8235 60.5726L60.0607 61.6887H57.4179L57.2485 60.5726H59.8235ZM55.1816 60.1667L55.0122 59.0844H57.5873L57.7906 60.1667H55.1816ZM56.4014 60.5726L56.5708 61.6887H53.928L53.7925 60.5726H56.4014ZM51.7934 60.1667L51.6918 59.0844H54.2668L54.4024 60.1667H51.7934ZM53.0132 60.5726L53.1487 61.6887H50.5059L50.4042 60.5726H53.0132ZM48.4052 60.1667L48.3374 59.0844H50.9125L51.0141 60.1667H48.4052ZM49.5911 60.5726L49.6588 61.6887H47.016L46.9821 60.5726H49.5911ZM45.0169 60.1667L44.9831 59.0844H47.5581L47.6259 60.1667H45.0169ZM46.1689 60.6064L46.2028 61.7225H43.56V60.6064H46.1689ZM41.6287 60.1667L41.6626 59.0844H44.2376V60.1667H41.6287ZM42.7807 60.6064V61.7225H40.1379L40.1718 60.6064H42.7807ZM40.8494 60.1667H38.2405L38.3082 59.0844H40.8833L40.8494 60.1667ZM39.3586 60.6064L39.2908 61.7225H36.648L36.7496 60.6064H39.3586ZM37.4612 60.1667H34.8522L34.9539 59.0844H37.5289L37.4612 60.1667ZM35.9703 60.6064L35.8687 61.7225H33.2259L33.3614 60.6064H35.9703ZM33.8019 63.3459L33.9374 62.1622H36.5802L36.4786 63.3459H33.8019ZM35.496 63.7856H38.2066L38.1388 65.0032H35.3944L35.496 63.7856ZM37.2918 63.3459L37.3595 62.1622H40.0362L40.0024 63.3459H37.2918ZM39.0198 63.7856H41.7304L41.6965 65.0032H38.952L39.0198 63.7856ZM40.8155 63.3459L40.8494 62.1622H43.5261V63.3459H40.8155ZM45.288 63.7856L45.3219 65.0032H42.5435V63.7856H45.288ZM44.3393 63.3459V62.1622H47.016L47.0499 63.3459H44.3393ZM48.8118 63.7856L48.8795 65.0032H46.1351L46.1012 63.7856H48.8118ZM47.8292 63.3459L47.7614 62.1622H50.4381L50.5398 63.3459H47.8292ZM52.3694 63.7856L52.5049 65.0032H49.7605L49.6588 63.7856H52.3694ZM51.3529 63.3459L51.2513 62.1622H53.928L54.0635 63.3459H51.3529ZM55.8932 63.7856L56.0626 65.0032H53.3181L53.1826 63.7856H55.8932ZM54.8767 63.3121L54.7073 62.1284H57.384L57.5873 63.3121H54.8767ZM59.4508 63.7856L59.688 65.0032H56.9435L56.7402 63.7856H59.4508ZM58.4005 63.3121L58.1972 62.1284H60.8739L61.1111 63.3121H58.4005ZM66.5322 63.7856L66.8711 65.0032H60.5012L60.264 63.7856H66.5322ZM61.9242 63.3121L61.6871 62.1284H69.5816L69.9544 63.3121H61.9242ZM72.36 60.1329H69.7511L69.4122 59.0506H71.9873L72.36 60.1329ZM71.6824 58.1036L71.9195 58.7462H69.4461L69.2428 58.1036H71.6824ZM69.4461 61.7225H64.3299L64.0588 60.6064H69.1073L69.4461 61.7225ZM61.992 60.1667L61.7548 59.0844H68.6329L68.9718 60.1667H61.992ZM68.4974 58.1036L68.7007 58.7462H66.2273L66.0579 58.1036H68.4974ZM65.3125 58.1036L65.4819 58.7462H63.0085L62.8391 58.1036H65.3125ZM62.1275 58.1036L62.2631 58.7462H59.7896L59.6541 58.1036H62.1275ZM58.9426 58.1036L59.0781 58.7462H56.6047L56.5031 58.1036H58.9426ZM55.7915 58.1036L55.8932 58.7462H53.4536L53.3859 58.1036H55.7915ZM52.6066 58.1036L52.6743 58.7462H50.2348L50.1671 58.1036H52.6066ZM49.4216 58.1036L49.4555 58.7462H47.016L46.9821 58.1036H49.4216ZM46.2706 58.1036L46.3045 58.7462H43.8649V58.1036H46.2706ZM40.68 58.1036H43.1195V58.7462H40.68V58.1036ZM37.4951 58.1036H39.9346L39.9007 58.7462H37.4612L37.4951 58.1036ZM34.344 58.1374H36.7835L36.7158 58.78H34.2762L34.344 58.1374ZM34.0729 60.1667H31.464L31.6334 59.0844H34.2085L34.0729 60.1667ZM31.1929 58.1374H33.6325L33.5647 58.78H31.1252L31.1929 58.1374ZM30.6847 60.1667H28.0758L28.2791 59.0844H30.8541L30.6847 60.1667ZM26.9915 62.1622H29.6343L29.4649 63.3459H26.7882L26.9915 62.1622ZM26.3478 61.7225L26.5849 60.6064H29.1939L28.9906 61.7225H26.3478ZM28.0419 58.1374H30.4814L30.3798 58.78H27.9402L28.0419 58.1374ZM27.3303 60.1667H24.7214L24.9586 59.0844H27.4998L27.3303 60.1667ZM23.5355 62.1622H26.1783L25.9412 63.3459H23.2645L23.5355 62.1622ZM22.8918 61.7225L23.1628 60.6064H25.7718L25.5346 61.7225H22.8918ZM24.8908 58.1374H27.2965L27.1609 58.78H24.7214L24.8908 58.1374ZM21.7398 58.1374H24.1454L24.0099 58.78H21.5703L21.7398 58.1374ZM21.6381 59.0844H24.1793L23.9421 60.1667H21.3671L21.6381 59.0844ZM18.5887 58.1374H20.9943L20.8249 58.78H18.3854L18.5887 58.1374ZM18.3176 59.0844H20.8588L20.5539 60.1667H17.9788L18.3176 59.0844ZM17.8433 60.6064H22.3835L22.1125 61.7225H17.5383L17.8433 60.6064ZM17.3689 62.1622H22.7223L22.4513 63.3459H17.0301L17.3689 62.1622ZM19.8085 66.7619H15.9798L16.3525 65.5105H20.1134L19.8085 66.7619ZM23.4339 66.7619H20.6555L20.9605 65.5105H23.7049L23.4339 66.7619ZM23.8066 65.0032H16.488L16.8607 63.7856H24.0776L23.8066 65.0032ZM27.0932 66.7619H24.3148L24.5859 65.5105H27.2965L27.0932 66.7619ZM27.3981 65.0032H24.6536L24.8908 63.7856H27.6014L27.3981 65.0032ZM30.7525 66.7619H27.9402L28.1435 65.5105H30.888L30.7525 66.7619ZM30.9896 65.0032H28.2452L28.4485 63.7856H31.1591L30.9896 65.0032ZM31.7351 65.4767H50.7092L50.8108 66.7281H31.5656L31.7351 65.4767ZM52.2339 72.6131H37.8C37.2579 72.6131 36.8174 72.3425 36.8513 71.9705L37.4273 68.1824C37.4273 67.8442 37.8678 67.5398 38.4099 67.5398H51.6579C52.2 67.5398 52.6405 67.8104 52.6066 68.1824L53.2504 71.9705C53.2165 72.3087 52.776 72.6131 52.2339 72.6131ZM51.6579 66.7619L51.5562 65.4767H54.3346L54.504 66.7619H51.6579ZM55.3172 66.7619L55.1478 65.5105H57.9261L58.1294 66.7958H55.3172V66.7619ZM58.9765 66.7619L58.7732 65.4767H63.3473L63.6184 66.7619H58.9765ZM64.4993 66.7619L64.1944 65.4767H66.9727L67.3115 66.7619H64.4993ZM67.3454 63.7856H70.0899L70.4626 65.0032H67.6842L67.3454 63.7856ZM68.1586 66.7619L67.8198 65.4767H70.5981L70.9708 66.7619H68.1586ZM70.9031 63.7856H73.6475L74.088 65.0032H71.3096L70.9031 63.7856ZM71.8179 66.7619L71.4113 65.4767H74.1896L74.6301 66.7619H71.8179Z" fill="#033E6A"/>
<path d="M37.1224 22.6584C37.1562 22.6584 37.224 22.5569 37.6306 22.6922C38.0372 22.7937 38.376 22.8275 38.5115 22.7937C38.6471 22.726 38.6471 22.6584 38.4099 22.6584C38.1727 22.6246 37.8 22.5569 37.5628 22.5231C37.2918 22.4217 36.9191 22.5569 37.1224 22.6584Z" fill="#EB0000"/>
<path d="M39.1214 23.6054C38.9181 23.5377 38.5454 23.0304 38.4438 22.7936C38.3421 22.5569 37.8 22.4554 37.5289 22.4893C37.2579 22.4893 37.2579 22.6584 37.3934 22.8951C37.5628 23.098 37.4273 23.5715 37.4273 23.5715C37.4273 23.5715 37.8 23.7407 38.3082 23.8083C38.7826 23.8421 39.2908 23.7068 39.1214 23.6054ZM37.5967 22.8613C37.5967 22.8275 37.6306 22.7936 37.6645 22.7936L38.2743 22.8613C38.3082 22.8613 38.3421 22.8951 38.3421 22.9289C38.3421 22.9628 38.3082 22.9966 38.2743 22.9966L37.6645 22.9289C37.6306 22.9289 37.5967 22.8951 37.5967 22.8613ZM38.3421 23.301L37.7322 23.2333C37.6983 23.2333 37.6645 23.1995 37.6645 23.1657C37.6645 23.1319 37.6983 23.098 37.7322 23.098L38.3421 23.1657C38.376 23.1657 38.4099 23.1995 38.4099 23.2333C38.4099 23.2672 38.376 23.301 38.3421 23.301Z" fill="#EB0000"/>
<path d="M48.1002 29.4565C48.0664 29.8624 46.6433 30.7417 46.6433 30.7417C46.6433 30.7417 46.8127 29.8624 46.5755 28.983C46.5416 28.8816 46.5078 28.8139 46.4739 28.7124C46.3045 28.2728 46.0673 27.8669 45.6607 27.5625C45.2541 27.2581 44.6781 27.0214 43.8988 26.9537C41.3915 26.7846 40.7817 28.7124 40.6122 29.7609C40.5445 30.1668 40.5784 30.4373 40.5784 30.4373C40.5784 30.4373 39.3925 28.983 39.528 28.4419C39.6635 27.9007 40.0362 26.514 40.5784 26.4126C41.0866 26.3111 43.9327 25.8038 44.3054 25.8714C44.712 25.9391 45.4574 25.7023 46.3384 26.3449C47.1854 26.9875 47.5581 26.9537 47.7953 27.8331C48.0325 28.6786 48.1341 29.0507 48.1002 29.4565Z" fill="white"/>
<path d="M68.9718 30.3697C68.8701 30.6402 68.9379 30.7079 68.8701 30.8093C68.8024 30.9108 68.3958 31.0799 68.328 31.0799C68.328 31.0799 68.328 31.0799 68.328 31.0461C68.5652 30.6402 68.9379 27.089 65.5496 26.9875C63.2456 26.9199 62.5341 28.7124 62.2969 29.8962C62.1953 30.505 62.1953 30.9446 62.1953 30.9446C62.1953 30.9446 61.6532 28.4756 61.8226 28.2727C61.992 28.0698 63.144 26.7169 63.4828 26.5816C63.8217 26.4125 64.4315 25.9728 65.2447 26.2096C66.0579 26.4463 66.7017 26.3449 67.176 26.8184C67.6504 27.2919 68.0908 27.461 68.2264 27.7316C68.3958 28.0021 68.4635 27.9683 68.6329 28.408C68.8024 28.8477 68.8362 28.8815 68.904 29.355C69.0057 29.8623 69.0734 30.0991 68.9718 30.3697Z" fill="white"/>
<path d="M71.8179 28.3743C71.784 28.3405 71.784 28.1714 71.6824 27.9684C71.6146 27.9008 71.5468 27.7993 71.4452 27.6979L71.4113 27.664L71.3774 27.6302C71.3435 27.5964 71.3435 27.5964 71.3096 27.5626L71.2758 27.5288C71.2758 27.4949 71.2419 27.4949 71.2419 27.4611C71.2419 27.4611 71.2419 27.4273 71.208 27.4273L71.1741 27.3935C71.1064 27.292 71.0386 27.2244 71.0047 27.0891C70.9708 26.9876 70.9031 26.92 70.8692 26.8185C70.8014 26.717 70.7675 26.5818 70.7336 26.4803C70.7336 26.4803 70.7336 26.4465 70.6998 26.4465C70.6659 26.3788 70.6659 26.345 70.632 26.2774C70.632 26.2774 70.632 26.2774 70.632 26.2435C70.632 26.2435 70.632 26.2435 70.632 26.2097V26.1759C70.5642 26.0068 70.4626 25.9053 70.2932 25.8377C69.4461 25.5333 66.5322 24.5863 63.5167 24.2819C63.2456 24.2481 62.9407 24.2481 62.6696 24.3495C62.568 24.3833 62.4663 24.3833 62.3308 24.3495C62.1953 24.3157 62.0259 24.2819 61.8226 24.1804C61.4838 24.0113 60.3656 23.4025 59.1798 22.7937C57.96 22.1849 56.6386 21.5423 55.8932 21.3056C55.7576 21.2717 55.656 21.2379 55.5882 21.2379C54.4701 21.0688 49.1167 20.6968 46.7111 21.2041C46.6772 21.2041 46.6433 21.2041 46.5755 21.2379C46.5416 21.2379 46.5078 21.2379 46.5078 21.2717C45.4913 21.7114 40.8155 23.6054 39.6635 23.504C39.6296 23.504 39.5958 23.5378 39.5619 23.5378C39.1892 23.6054 38.8165 23.6393 38.4776 23.6054L37.5289 23.504C37.224 23.4702 36.9529 23.7069 36.9191 24.0113L36.8852 24.2481L36.6819 26.5141C36.6819 26.5141 36.3431 26.6494 36.2075 27.0214C36.1736 27.0891 36.1736 27.1905 36.1736 27.292C36.1736 27.3597 36.1736 27.4611 36.1736 27.5626V27.5964C36.1736 27.7317 36.1736 27.9008 36.2075 28.0699C36.2414 28.4419 36.3092 28.7802 36.4108 28.8816C36.5802 29.0507 36.8852 29.2537 36.8852 29.2537C37.0207 29.5242 37.1224 29.5581 37.4612 29.6257L40.1379 30.2683L40.5784 30.3698C40.5784 30.3698 40.5784 30.0992 40.6122 29.6934C40.7816 28.6449 41.3915 26.6832 43.8988 26.8861C44.6781 26.9538 45.2541 27.1905 45.6607 27.4949C46.0673 27.8332 46.3384 28.239 46.4739 28.6449C46.5078 28.7463 46.5416 28.814 46.5755 28.9154C46.8127 29.8286 46.6433 30.6742 46.6433 30.6742H47.0499L61.8226 30.8771H62.1953C62.1953 30.8771 62.1953 30.4374 62.2969 29.8286C62.5002 28.6111 63.2118 26.8185 65.5496 26.92C68.9379 27.0553 68.5652 30.6065 68.328 30.9786C68.328 30.9786 68.328 30.9786 68.328 31.0124H68.5991H68.7346L69.7849 30.9786L71.5129 30.9109C71.5129 30.9109 71.5807 30.6742 71.4452 30.5727C71.4452 30.5727 71.4113 30.5389 71.3774 30.5389C71.1741 30.4712 71.3435 30.2345 71.3435 30.2345C71.5129 30.0654 71.6485 29.8963 71.7501 29.7272C71.8179 29.6257 71.8856 29.4904 71.9195 29.389C71.9534 29.3213 71.9534 29.2875 71.9873 29.2198C72.0212 29.1522 72.0212 29.0846 72.0212 29.0169C72.0551 28.5434 71.8179 28.3743 71.8179 28.3743ZM37.0207 28.1376C36.9868 28.1714 36.9529 28.2052 36.8852 28.2052C36.7496 28.2052 36.5464 28.1714 36.3769 28.1037C36.3769 27.9346 36.3431 27.7993 36.3431 27.6302C36.4108 27.664 36.648 27.7993 36.8852 27.8332C36.9868 27.8332 37.0207 27.9008 37.0546 28.0023C37.0885 28.0699 37.0546 28.1037 37.0207 28.1376ZM37.5628 25.4656C37.4273 25.4318 37.1901 25.1951 37.1901 25.1951C37.1901 25.1951 37.1562 25.1274 37.1562 25.0598C37.1562 24.9921 37.1901 24.4172 37.1901 24.4172C37.1901 24.4172 37.1901 24.3833 37.1901 24.3495C37.1901 24.3157 37.224 24.3157 37.2579 24.3157C37.3934 24.3495 38.0033 24.451 38.0711 24.4848C38.1388 24.5524 38.3421 24.6877 38.3082 25.0598C38.2405 25.398 37.6984 25.4995 37.5628 25.4656ZM51.8951 24.3833L44.9153 23.9098C44.8475 23.9098 44.8136 23.8084 44.8814 23.7745L45.2202 23.5378C45.864 23.0643 46.9144 22.4217 47.7275 22.0496C48.0325 21.9144 48.744 21.7452 50.2687 21.7452C50.9125 21.7452 51.2513 21.7791 51.5224 21.7791H51.624C51.6579 21.7791 51.6918 21.8129 51.6918 21.8467V21.9482C51.7595 22.4893 51.8612 23.3349 51.9289 24.0789L51.9628 24.2481C51.9967 24.3157 51.9628 24.3833 51.8951 24.3833ZM60.6367 24.9921C60.5689 24.9921 60.5351 24.9921 60.4673 24.9921C60.1623 24.9921 58.6038 24.8907 57.0452 24.7892C55.4866 24.6877 53.928 24.5524 53.5892 24.5524H53.4875C53.4198 24.5524 53.3859 24.5186 53.3859 24.451V24.3495C53.3181 23.6393 53.2165 22.7261 53.1487 22.1849L53.1148 22.0496C53.1148 21.982 53.1487 21.9144 53.2165 21.9144H53.352C53.7925 21.9482 54.5379 21.982 55.4866 22.0835C56.5708 22.1849 59.5186 23.876 60.7045 24.5863L61.3482 24.9583L60.6367 24.9921ZM71.0047 27.6979C70.9708 27.6979 70.9369 27.6979 70.8692 27.6979C70.5642 27.6979 69.9205 27.664 69.3445 27.4611C69.3106 27.4611 69.3106 27.4273 69.2767 27.4273C69.0395 27.3258 68.6668 26.9538 68.5652 26.8523C68.4635 26.717 68.4296 26.6156 68.4635 26.5141C68.5313 26.345 68.8362 26.2435 69.1073 26.2435C69.1412 26.2435 69.1412 26.2435 69.1751 26.2435C69.3445 26.2435 69.5139 26.2774 69.6833 26.3112C69.8866 26.345 70.056 26.3788 70.1915 26.3788C70.2254 26.3788 70.2593 26.3788 70.2593 26.3788C70.2593 26.3788 70.2593 26.3788 70.2593 26.4126C70.2932 26.4803 70.2932 26.5141 70.3271 26.5818C70.3271 26.5818 70.3271 26.6156 70.3609 26.6156C70.3948 26.717 70.4626 26.8185 70.4965 26.9538C70.5304 27.0553 70.5981 27.1229 70.632 27.2244C70.6998 27.3258 70.7336 27.4273 70.8014 27.5288C70.8014 27.5288 70.8014 27.5626 70.8353 27.5626C70.8353 27.5626 70.8353 27.5964 70.8692 27.5964C70.9031 27.6302 70.9031 27.6302 70.9031 27.664L70.9369 27.6979C70.9708 27.6302 71.0047 27.6302 71.0047 27.6979C71.0386 27.664 71.0386 27.664 71.0047 27.6979Z" fill="#EB0000"/>
<path d="M60.4673 24.3832C60.4673 24.3832 60.7383 24.5861 60.6367 24.7214C60.535 24.8229 60.4673 24.8567 60.4673 24.9243C60.4334 24.992 60.4673 25.0596 60.6706 25.0596C60.84 25.0596 61.3821 25.0258 61.4498 24.9581C61.5176 24.8905 61.4498 24.8567 61.3482 24.789C61.2466 24.7552 60.9077 24.5523 60.9077 24.5523L60.4673 24.3832Z" fill="#EB0000"/>
<path d="M60.6367 24.5862C60.6028 24.5524 60.6028 24.5524 60.6028 24.5185C60.5689 24.4171 60.3995 24.1127 60.0268 24.1127C59.6202 24.1127 59.5185 24.3494 59.4847 24.4171C59.4847 24.4847 59.383 24.992 59.6202 25.0259C59.8574 25.0259 60.535 25.0597 60.6705 24.9244C60.8061 24.8229 60.7722 24.7215 60.6367 24.5862Z" fill="#EB0000"/>
<path d="M43.6616 27.461C42.1369 27.461 40.9172 28.6786 40.9172 30.2006C40.9172 31.7225 42.1369 32.9401 43.6616 32.9401C45.1864 32.9401 46.4061 31.7225 46.4061 30.2006C46.4061 28.7124 45.1525 27.461 43.6616 27.461ZM43.6616 32.2299C42.5435 32.2299 41.6287 31.3167 41.6287 30.2006C41.6287 29.1859 42.3741 28.3404 43.3567 28.1713C43.4584 28.1713 43.56 28.1374 43.6616 28.1374C43.7633 28.1374 43.8649 28.1374 43.9666 28.1713C44.9492 28.3065 45.6946 29.1521 45.6946 30.2006C45.6946 31.3167 44.7798 32.2299 43.6616 32.2299Z" fill="#EB0000"/>
<path d="M43.0518 29.9976L43.1196 30.0314C43.1196 30.0314 43.1196 30.0314 43.1196 30.0652V30.0991L43.0518 30.0652L41.7982 29.727C41.7982 29.6594 41.832 29.5917 41.8659 29.5579L43.0518 29.9976Z" fill="#EB0000"/>
<path d="M43.3906 30.1668L43.2212 30.133C43.2212 30.133 43.2212 30.133 43.2551 30.0992L43.3906 30.1668Z" fill="#EB0000"/>
<path d="M44.0344 30.0991L43.8989 30.1668V30.133L44.0344 30.0991C44.0005 30.0991 44.0005 30.0653 44.0344 30.0991Z" fill="#EB0000"/>
<path d="M45.4913 29.6933L44.2377 30.0315L44.1699 30.0653C44.1699 30.0653 44.1699 30.0653 44.1699 30.0315C44.1699 29.9977 44.1699 29.9977 44.136 29.9977L44.2377 29.9639L45.4575 29.5242C45.4575 29.5918 45.4913 29.6595 45.4913 29.6933Z" fill="#EB0000"/>
<path d="M43.865 29.8624L45.3219 29.3212C45.0509 28.7801 44.5426 28.408 43.9328 28.3066L43.865 29.8624Z" fill="#EB0000"/>
<path d="M43.7972 30.4035L43.8988 30.5388H43.8649L43.7972 30.4035Z" fill="#EB0000"/>
<path d="M44.8476 31.6888C44.8137 31.7226 44.7459 31.7564 44.712 31.7903L44.0005 30.708L43.9666 30.6403C43.9666 30.6403 43.9666 30.6403 44.0005 30.6403L44.0344 30.6065L44.0683 30.6742L44.8476 31.6888Z" fill="#EB0000"/>
<path d="M43.3228 30.6403H43.3567L43.3228 30.7079L42.6113 31.7902C42.5435 31.7564 42.5097 31.7226 42.4419 31.6887L43.2551 30.6741L43.3228 30.6403Z" fill="#EB0000"/>
<path d="M43.5262 30.4374L43.4245 30.5727C43.4245 30.5727 43.4245 30.5388 43.3906 30.5388L43.5262 30.4374Z" fill="#EB0000"/>
<path d="M43.6617 29.8286V29.9638H43.6278V29.8286C43.6278 29.8286 43.6278 29.8286 43.6617 29.8286Z" fill="#EB0000"/>
<path d="M43.7294 28.3066L43.6617 29.5918V29.6595C43.6617 29.6595 43.6617 29.6595 43.6278 29.6595H43.5939V29.558L43.5261 28.2728C43.56 28.2728 43.5939 28.2728 43.6278 28.2728C43.6617 28.3066 43.6955 28.3066 43.7294 28.3066Z" fill="#EB0000"/>
<path d="M44.0344 30.3358L45.017 31.5534C45.3558 31.2152 45.5591 30.7417 45.5591 30.2005C45.5591 30.099 45.5591 29.9976 45.5252 29.9299L44.0344 30.3358Z" fill="#EB0000"/>
<path d="M43.3906 29.8963L43.3228 28.3405C42.713 28.4419 42.2047 28.814 41.9337 29.3551L43.3906 29.8963Z" fill="#EB0000"/>
<path d="M43.6616 30.6403L42.7807 31.9255C43.0518 32.0608 43.3228 32.1284 43.6278 32.1284C43.9327 32.1284 44.2376 32.0608 44.4748 31.9255L43.6616 30.6403Z" fill="#EB0000"/>
<path d="M43.2551 30.3358L41.7642 29.9299C41.7642 30.0314 41.7303 30.099 41.7303 30.2005C41.7303 30.7078 41.9336 31.2152 42.2725 31.5534L43.2551 30.3358Z" fill="#EB0000"/>
<path d="M44.2377 30.0315C44.2377 29.9977 44.2377 29.9977 44.2038 29.9638C44.1021 29.7271 43.8988 29.5918 43.6617 29.558H43.6278H43.5939C43.3567 29.558 43.1195 29.7271 43.0518 29.9638C43.0518 29.9977 43.0518 29.9977 43.0179 30.0315C43.0179 30.0653 42.984 30.133 42.984 30.1668C42.984 30.3697 43.0857 30.5388 43.2212 30.6403C43.2551 30.6403 43.2551 30.6741 43.2889 30.6741C43.3906 30.7417 43.4922 30.7756 43.6278 30.7756C43.7633 30.7756 43.8649 30.7417 43.9666 30.6741C44.0005 30.6741 44.0005 30.6403 44.0344 30.6403C44.1699 30.5388 44.2715 30.3359 44.2715 30.1668C44.2715 30.1668 44.2715 30.0991 44.2377 30.0315ZM43.5939 29.6933H43.6278C43.6278 29.6933 43.6278 29.6933 43.6617 29.6933C43.6955 29.6933 43.7294 29.7271 43.7294 29.7609C43.7294 29.7947 43.6955 29.8286 43.6617 29.8286H43.6278C43.5939 29.8286 43.5939 29.7947 43.5939 29.7609C43.56 29.7271 43.5939 29.6933 43.5939 29.6933ZM43.1873 30.133C43.1534 30.133 43.1534 30.0991 43.1534 30.0653V30.0315C43.1534 30.0315 43.1534 30.0315 43.1534 29.9977C43.1873 29.9638 43.2212 29.9638 43.2551 29.9638C43.2889 29.9638 43.3228 29.9977 43.3228 30.0315C43.3228 30.0315 43.3228 30.0653 43.2889 30.0653C43.2212 30.133 43.1873 30.1668 43.1873 30.133ZM43.4245 30.6403C43.4245 30.6741 43.3906 30.6741 43.3567 30.6741H43.3228C43.3228 30.6741 43.3228 30.6741 43.2889 30.6403C43.2551 30.6065 43.2551 30.5726 43.2889 30.5388C43.3228 30.505 43.3567 30.505 43.3906 30.505C43.3906 30.505 43.3906 30.505 43.4245 30.5388C43.4584 30.5726 43.4584 30.6065 43.4245 30.6403ZM43.3906 30.2006C43.3906 30.0653 43.4922 29.9638 43.6278 29.9638C43.7633 29.9638 43.865 30.0653 43.865 30.2006C43.865 30.3359 43.7633 30.4373 43.6278 30.4373C43.5261 30.4373 43.3906 30.3359 43.3906 30.2006ZM43.9666 30.6741C43.8988 30.7079 43.865 30.6741 43.865 30.6403C43.8311 30.6065 43.8311 30.5726 43.865 30.5388H43.8988C43.9327 30.5388 43.9666 30.5388 43.9666 30.5726C44.0005 30.5726 44.0005 30.6065 43.9666 30.6741C43.9666 30.6403 43.9666 30.6403 43.9666 30.6741ZM44.1021 30.133C44.0682 30.133 44.0344 30.133 44.0005 30.0991V30.0653C44.0005 30.0315 44.0344 29.9977 44.0682 29.9977C44.1021 29.9977 44.1021 29.9977 44.136 29.9977L44.1699 30.0315C44.1699 30.0315 44.1699 30.0315 44.1699 30.0653C44.1699 30.0991 44.136 30.133 44.1021 30.133Z" fill="#EB0000"/>
<path d="M65.448 27.4611C63.9233 27.4611 62.7036 28.6786 62.7036 30.2006C62.7036 31.7226 63.9233 32.9402 65.448 32.9402C66.9727 32.9402 68.1925 31.7226 68.1925 30.2006C68.1925 28.7125 66.9727 27.4611 65.448 27.4611ZM65.448 32.2299C64.3299 32.2299 63.4151 31.3167 63.4151 30.2006C63.4151 29.186 64.1605 28.3404 65.1431 28.1713C65.2447 28.1713 65.3464 28.1375 65.448 28.1375C65.5497 28.1375 65.6513 28.1375 65.753 28.1713C66.7356 28.3066 67.481 29.1521 67.481 30.2006C67.481 31.3167 66.5661 32.2299 65.448 32.2299Z" fill="#EB0000"/>
<path d="M64.8721 29.9977L64.9398 30.0315C64.9398 30.0315 64.9398 30.0315 64.9398 30.0653V30.0991L64.8721 30.0653L63.6184 29.7271C63.6184 29.6594 63.6523 29.5918 63.6862 29.558L64.8721 29.9977Z" fill="#EB0000"/>
<path d="M65.2109 30.1669L65.0414 30.1331C65.0414 30.1331 65.0414 30.1331 65.0753 30.0992L65.2109 30.1669Z" fill="#EB0000"/>
<path d="M65.8207 30.0992L65.6852 30.1668V30.133L65.8207 30.0992Z" fill="#EB0000"/>
<path d="M67.3116 29.6933L66.0579 30.0316L65.9902 30.0654C65.9902 30.0654 65.9902 30.0654 65.9902 30.0316C65.9902 29.9977 65.9902 29.9977 65.9563 29.9977L66.0579 29.9639L67.2777 29.5242C67.2777 29.5919 67.2777 29.6595 67.3116 29.6933Z" fill="#EB0000"/>
<path d="M65.6852 29.8624L67.1421 29.3213C66.8711 28.7801 66.3628 28.4081 65.7529 28.3066L65.6852 29.8624Z" fill="#EB0000"/>
<path d="M65.6174 30.4036L65.7191 30.5389H65.6852L65.6174 30.4036Z" fill="#EB0000"/>
<path d="M66.6678 31.6889C66.6339 31.7227 66.5662 31.7565 66.5323 31.7903L65.8207 30.708L65.7869 30.6404C65.7869 30.6404 65.7869 30.6404 65.8207 30.6404L65.8546 30.6066L65.8885 30.6742L66.6678 31.6889Z" fill="#EB0000"/>
<path d="M65.1092 30.6403C65.1431 30.6741 65.1431 30.6741 65.1092 30.6403V30.708L64.3977 31.7903C64.3299 31.7564 64.296 31.7226 64.2283 31.6888L65.0414 30.6741L65.1092 30.6403Z" fill="#EB0000"/>
<path d="M65.3125 30.4374L65.2109 30.5727C65.2109 30.5727 65.2109 30.5389 65.177 30.5389L65.3125 30.4374Z" fill="#EB0000"/>
<path d="M65.448 29.8286V29.9639H65.4141L65.448 29.8286Z" fill="#EB0000"/>
<path d="M65.5497 28.3066L65.4819 29.5919V29.6595C65.4819 29.6595 65.4819 29.6595 65.448 29.6595H65.4141V29.5581L65.3464 28.2728C65.3803 28.2728 65.4141 28.2728 65.448 28.2728C65.4819 28.3066 65.5158 28.3066 65.5497 28.3066Z" fill="#EB0000"/>
<path d="M65.8546 30.3359L66.8372 31.5535C67.176 31.2153 67.3793 30.7418 67.3793 30.2006C67.3793 30.0992 67.3793 29.9977 67.3454 29.9301L65.8546 30.3359Z" fill="#EB0000"/>
<path d="M65.2108 29.8963L65.1431 28.3405C64.5332 28.442 64.025 28.814 63.7539 29.3552L65.2108 29.8963Z" fill="#EB0000"/>
<path d="M65.448 30.6403L64.601 31.9255C64.872 32.0608 65.1431 32.1285 65.448 32.1285C65.753 32.1285 66.0579 32.0608 66.2951 31.9255L65.448 30.6403Z" fill="#EB0000"/>
<path d="M65.0414 30.3359L63.5506 29.9301C63.5506 30.0315 63.5167 30.0992 63.5167 30.2006C63.5167 30.708 63.72 31.2153 64.0588 31.5535L65.0414 30.3359Z" fill="#EB0000"/>
<path d="M66.0579 30.0315C66.0579 29.9977 66.0579 29.9977 66.024 29.9639C65.9224 29.7272 65.7191 29.5919 65.4819 29.558H65.448H65.4141C65.177 29.558 64.9398 29.7272 64.872 29.9639C64.872 29.9977 64.872 29.9977 64.8381 30.0315C64.8381 30.0654 64.8043 30.133 64.8043 30.1668C64.8043 30.3698 64.9059 30.5389 65.0414 30.6403C65.0753 30.6403 65.0753 30.6742 65.1092 30.6742C65.2109 30.7418 65.3125 30.7756 65.448 30.7756C65.5836 30.7756 65.6852 30.7418 65.7869 30.6742C65.8207 30.6742 65.8207 30.6403 65.8546 30.6403C65.9901 30.5389 66.0918 30.3359 66.0918 30.1668C66.0579 30.1668 66.0579 30.0992 66.0579 30.0315ZM65.4141 29.6933H65.448C65.448 29.6933 65.448 29.6933 65.4819 29.6933C65.5158 29.6933 65.5497 29.7272 65.5497 29.761C65.5497 29.7948 65.5158 29.8286 65.4819 29.8286H65.448C65.4141 29.8286 65.4141 29.7948 65.4141 29.761C65.3803 29.7272 65.3803 29.6933 65.4141 29.6933ZM64.9737 30.133C64.9398 30.133 64.9398 30.0992 64.9398 30.0654V30.0315C64.9398 30.0315 64.9398 30.0315 64.9398 29.9977C64.9737 29.9639 65.0076 29.9639 65.0414 29.9639C65.0753 29.9639 65.1092 29.9977 65.1092 30.0315C65.1092 30.0315 65.1092 30.0654 65.0753 30.0654C65.0414 30.133 65.0076 30.1668 64.9737 30.133ZM65.2447 30.6403C65.2447 30.6742 65.2109 30.6742 65.177 30.6742H65.1431C65.1431 30.6742 65.1431 30.6742 65.1092 30.6403C65.0753 30.6065 65.0753 30.5727 65.1092 30.5389C65.1431 30.5051 65.177 30.5051 65.2108 30.5051C65.2108 30.5051 65.2108 30.5051 65.2447 30.5389C65.2447 30.5727 65.2447 30.6065 65.2447 30.6403ZM65.2108 30.2007C65.2108 30.0654 65.3125 29.9639 65.448 29.9639C65.5836 29.9639 65.6852 30.0654 65.6852 30.2007C65.6852 30.3359 65.5836 30.4374 65.448 30.4374C65.3125 30.4374 65.2108 30.3359 65.2108 30.2007ZM65.753 30.6742C65.6852 30.708 65.6513 30.6742 65.6513 30.6403C65.6174 30.6065 65.6174 30.5727 65.6513 30.5389H65.6852C65.7191 30.5389 65.753 30.5389 65.753 30.5727C65.8207 30.5727 65.8207 30.6065 65.753 30.6742C65.7868 30.6403 65.7868 30.6403 65.753 30.6742ZM65.9224 30.133C65.8885 30.133 65.8546 30.133 65.8207 30.0992V30.0654C65.8207 30.0315 65.8546 29.9977 65.8885 29.9977C65.9224 29.9977 65.9224 29.9977 65.9563 29.9977L65.9901 30.0315C65.9901 30.0315 65.9901 30.0315 65.9901 30.0654C65.9901 30.0992 65.9563 30.133 65.9224 30.133Z" fill="#EB0000"/>
<path d="M64.1266 38.5208H48.7101V39.3325H64.1266V38.5208Z" fill="#EB0000"/>
<path d="M68.904 40.6854H48.7101V41.4971H68.904V40.6854Z" fill="#EB0000"/>
<path d="M57.113 42.8162H48.7101V43.6279H57.113V42.8162Z" fill="#EB0000"/>
<path d="M66.6678 44.9808H48.7101V45.7925H66.6678V44.9808Z" fill="#EB0000"/>
<path d="M61.5177 47.1116H48.7101V47.9233H61.5177V47.1116Z" fill="#EB0000"/>
<path d="M65.177 49.2761H48.7101V50.0878H65.177V49.2761Z" fill="#EB0000"/>
<path d="M20.9605 37.8444H20.1473V50.8319H20.9605V37.8444Z" fill="#EB0000"/>
<path d="M43.0225 50.8845V50.0728L20.1519 50.0728V50.8845L43.0225 50.8845Z" fill="#EB0000"/>
<path d="M22.6885 48.9717L22.0786 48.7349C22.1803 48.4305 24.6198 44.1013 25.0941 43.222L25.3313 42.8161L28.4485 46.6718L33.3953 37.2355L35.496 43.4587L37.7323 41.125L41.8659 45.9954L41.3577 46.4012L37.7323 42.1059L35.225 44.7101L33.2598 38.9266L28.584 47.8894L25.433 43.9999C24.3148 45.9954 22.7563 48.7687 22.6885 48.9717Z" fill="#EB0000"/>
<path d="M30.6508 20.0203H20.5539V21.3731H30.6508V20.0203Z" fill="#EB0000"/>
<path d="M27.0932 23.1658H20.5539V24.5187H27.0932V23.1658Z" fill="#EB0000"/>
<path d="M33.7341 26.3112H20.5539V27.6641H33.7341V26.3112Z" fill="#EB0000"/>
<path d="M25.6024 29.4567H20.5539V30.8095H25.6024V29.4567Z" fill="#EB0000"/>
</svg>
