<svg width="90" height="90" viewBox="0 0 90 90" fill="none" xmlns="http://www.w3.org/2000/svg">
<g clipPath="url(#clip0_2001_8697)">
<path d="M33.6308 26.8787C33.6308 26.8787 33.3367 26.6855 33.1897 26.3474C33.0426 26.0092 32.9446 25.6953 32.3809 25.7677C31.8417 25.8402 30.6654 25.6953 30.5428 26.3232C30.4203 26.9512 30.4448 27.4342 31.3026 27.555C32.1849 27.6757 33.1652 27.6757 33.1652 27.6757C33.1652 27.6757 33.7779 27.3376 33.7779 27.241C33.8024 27.1202 33.6308 26.8787 33.6308 26.8787Z" fill="#EB0000"/>
<path d="M30.0281 38.5925C30.0281 38.5925 29.9791 41.8772 31.278 41.8772C32.5769 41.8772 33.3121 41.9255 33.3611 41.8772C33.4102 41.8289 34.2679 41.9738 34.415 41.0801C34.562 40.1865 34.415 39.5827 34.415 39.5827C34.415 39.5827 32.9935 39.1721 32.6749 39.0997C32.3563 39.0272 31.3025 38.7374 31.3025 38.7374L30.0281 38.5925Z" fill="#EB0000"/>
<path d="M55.3692 26.8787C55.3692 26.8787 55.6633 26.6855 55.8103 26.3474C55.9574 26.0092 56.0554 25.6953 56.6191 25.7677C57.1582 25.8402 58.3346 25.6953 58.4572 26.3232C58.5797 26.9512 58.5552 27.4342 57.6974 27.555C56.8151 27.6757 55.8348 27.6757 55.8348 27.6757C55.8348 27.6757 55.2221 27.3376 55.2221 27.241C55.1976 27.1202 55.3692 26.8787 55.3692 26.8787Z" fill="#EB0000"/>
<path d="M58.9719 38.5925C58.9719 38.5925 59.0209 41.8772 57.722 41.8772C56.4231 41.8772 55.6879 41.9255 55.6388 41.8772C55.5898 41.8289 54.7321 41.9738 54.585 41.0801C54.438 40.1865 54.585 39.5827 54.585 39.5827C54.585 39.5827 56.0065 39.1721 56.3251 39.0997C56.6437 39.0272 57.6975 38.7374 57.6975 38.7374L58.9719 38.5925Z" fill="#EB0000"/>
<path d="M59.0454 32.1197C58.8493 29.8977 57.5749 29.3422 56.9377 28.9075C56.3005 28.4728 55.7859 27.7482 55.5898 27.2893C55.3937 26.8304 53.4576 23.9322 52.5753 22.9902C51.693 22.0483 50.002 22.0966 50.002 22.0966L44.4877 22L38.949 22.1208C38.949 22.1208 37.2579 22.0725 36.3757 23.0144C35.5179 23.9563 33.5818 26.8546 33.3857 27.3135C33.1896 27.7724 32.675 28.4969 32.0378 28.9317C31.4006 29.3664 30.1262 29.8977 29.9301 32.1439C29.734 34.3659 29.8566 37.24 29.9301 38.1819C30.0036 39.1238 30.7879 39.8484 32.0378 40.1141C33.2877 40.3798 34.6601 40.1624 36.7433 40.1141C38.8264 40.0658 44.5123 40.0416 44.5123 40.0416C44.5123 40.0416 50.1981 40.0658 52.2812 40.1141C54.3644 40.1624 55.7123 40.3798 56.9867 40.1141C58.2366 39.8484 58.9964 39.1238 59.0944 38.1819C59.1434 37.2158 59.2415 34.3659 59.0454 32.1197ZM36.2286 32.8926C36.0816 33.0134 35.763 33.0375 35.5424 33.0617C35.2483 33.0858 34.9542 33.0858 34.6601 33.0858C34.1454 33.0858 33.6308 33.0375 33.1406 32.9892C31.5721 32.8201 31.4496 32.2163 31.3515 31.8058C31.2535 31.3952 31.9888 30.9846 32.6995 31.1536C33.2387 31.2744 33.7533 31.4676 34.219 31.6608C34.5376 31.7816 34.8562 31.9024 35.1503 32.0231C35.3708 32.1197 35.5914 32.2163 35.7875 32.3129C36.0325 32.4337 36.4737 32.6752 36.2286 32.8926ZM49.8795 37.3849C49.8795 37.554 49.7324 37.6989 49.5609 37.6989H39.4391C39.2676 37.6989 39.1205 37.554 39.1205 37.3849V35.6701C39.1205 35.501 39.2676 35.3561 39.4391 35.3561H49.5609C49.7324 35.3561 49.8795 35.501 49.8795 35.6701V37.3849ZM44.4877 26.5647C41.0566 26.5647 34.7336 26.8787 34.7336 26.8787C34.7336 26.8787 36.5472 24.4394 36.9393 23.9322C37.307 23.4008 37.601 23.2801 38.4098 23.0868C39.1941 22.9178 44.5123 22.9178 44.5123 22.9178C44.5123 22.9178 49.8305 22.9178 50.6147 23.0868C51.399 23.2559 51.693 23.4008 52.0852 23.9322C52.4528 24.4635 54.2664 26.8787 54.2664 26.8787C54.2664 26.8787 47.9924 26.5647 44.4877 26.5647ZM57.673 31.8058C57.5749 32.2163 57.4524 32.8201 55.8839 32.9892C55.3692 33.0375 54.8791 33.0858 54.3644 33.0858C54.0703 33.0858 53.7762 33.0858 53.4821 33.0617C53.2616 33.0375 52.9184 33.0134 52.7959 32.8926C52.5508 32.6752 52.992 32.4579 53.2125 32.3129C53.4086 32.1922 53.6292 32.0956 53.8497 32.0231C54.1438 31.9024 54.4624 31.7816 54.781 31.6608C55.2712 31.4676 55.7614 31.2744 56.3005 31.1536C57.0358 30.9846 57.771 31.3952 57.673 31.8058Z" fill="#EB0000"/>
<path d="M25.3227 31.999H22.4062V65.2323H25.3227V31.999Z" fill="#033E6A"/>
<path d="M36.2531 43.1089H26.1559V45.2826H36.2531V43.1089Z" fill="#033E6A"/>
<path d="M27.994 41.3217H26.1559V43.1089H27.994V41.3217Z" fill="#033E6A"/>
<path d="M21.5484 41.3217H20.3721V45.3068H21.5484V41.3217Z" fill="#033E6A"/>
<path d="M26.8421 65.2081H20.8622V64.4111C20.8622 63.928 21.2543 63.5175 21.769 63.5175H25.9598C26.45 63.5175 26.8666 63.9039 26.8666 64.4111V65.2081H26.8421Z" fill="#033E6A"/>
<path d="M63.6953 65.2109H66.6117V31.9776H63.6953L63.6953 65.2109Z" fill="#033E6A"/>
<path d="M52.7586 45.3121H62.8558V43.1384H52.7586V45.3121Z" fill="#033E6A"/>
<path d="M61.0093 43.122H62.8474V41.3348H61.0093V43.122Z" fill="#033E6A"/>
<path d="M67.4263 45.3028H68.6027V41.3177H67.4263V45.3028Z" fill="#033E6A"/>
<path d="M62.158 65.2081H68.1624V64.4111C68.1624 63.928 67.7703 63.5175 67.2556 63.5175H63.0647C62.5746 63.5175 62.158 63.9039 62.158 64.4111V65.2081Z" fill="#033E6A"/>
<path d="M75 66.6814H14V69H75V66.6814Z" fill="#033E6A"/>
</g>
<defs>
<clipPath id="clip0_2001_8697">
<rect width="61" height="47" fill="white" transform="translate(14 22)"/>
</clipPath>
</defs>
</svg>
