<svg width="297" height="210" viewBox="0 0 297 210" fill="none" xmlns="http://www.w3.org/2000/svg">
<path d="M275.124 173.074L297 93.0527H45.9967L64.419 173.074L144.441 209.343L134.654 173.074H275.124Z" fill="url(#paint0_linear_201_9410)"/>
<path d="M45.8654 130.683L45.5069 130.248L45.0643 130.597L34.1261 139.232L33.6915 139.576L34.0174 140.023C36.6544 143.645 42.8245 151.745 46.2668 154.943C48.1093 156.655 50.1708 157.017 51.976 156.767C53.7573 156.521 55.2931 155.681 56.1785 154.972C57.7702 153.704 61.3885 150.743 63.0221 149.109C64.0308 148.101 65.438 146.573 66.2104 144.914C66.599 144.079 66.8453 143.173 66.7698 142.26C66.6929 141.33 66.2861 140.443 65.4571 139.663C64.6551 138.908 63.8479 138.493 63.0332 138.349C62.2217 138.205 61.4562 138.339 60.7519 138.592C60.0542 138.842 59.3926 139.219 58.7872 139.582C58.669 139.652 58.5535 139.722 58.4401 139.791C57.9558 140.084 57.5116 140.353 57.0741 140.561C55.5232 141.298 54.2988 140.751 53.8903 140.427L45.8654 130.683Z" fill="#232323" stroke="white" stroke-width="1.15139"/>
<path d="M30.453 82.1146C35.0586 77.9696 41.9669 61.9652 44.8454 54.4812L82.8413 103.991L85.7198 108.597C63.8433 110.899 52.9051 121.838 48.2995 125.292C43.694 128.746 30.453 140.836 28.1502 141.411C26.308 141.872 23.1608 140.452 21.8175 139.684C7.42516 130.473 1.66822 118.383 0.516824 114.354C-0.404289 111.13 0.900621 107.637 1.66822 106.294C9.34416 99.9612 25.8474 86.2596 30.453 82.1146Z" fill="#232323"/>
<path d="M100.11 107.049C102.309 105.302 103.517 102.668 103.92 99.5603C104.323 96.4603 103.939 92.8139 102.89 88.8784C100.793 81.0038 95.977 71.7524 88.9779 62.9459C81.9789 54.1395 74.0535 47.3595 66.8557 43.5383C63.2585 41.6286 59.7929 40.4313 56.682 40.1236C53.5635 39.8151 50.7252 40.3973 48.5263 42.1449C46.3274 43.8925 45.1195 46.5261 44.7161 49.6337C44.3136 52.7338 44.6976 56.3802 45.7459 60.3156C47.8435 68.1902 52.6594 77.4417 59.6584 86.2481C66.6574 95.0545 74.5829 101.835 81.7806 105.656C85.3778 107.565 88.8435 108.763 91.9543 109.07C95.0728 109.379 97.9111 108.797 100.11 107.049Z" fill="#232323" stroke="white" stroke-width="2.30278"/>
<ellipse cx="74.8091" cy="74.8326" rx="11.1127" ry="34.7866" transform="rotate(-38.4764 74.8091 74.8326)" fill="white"/>
<path d="M77.3857 89.5552C69.9723 84.2685 63.3589 73.9839 60.9789 69.5025C63.5615 66.8187 70.4584 63.5171 77.3857 71.7812C84.313 80.0454 80.2721 87.0739 77.3857 89.5552Z" fill="#232323"/>
<path d="M148.542 118.998C148.542 119.858 148.32 120.648 147.874 121.37C147.444 122.091 146.8 122.667 145.94 123.097C145.096 123.527 144.067 123.742 142.854 123.742C141.027 123.742 139.523 123.297 138.341 122.406C137.159 121.516 136.514 120.272 136.406 118.676H140.598C140.659 119.29 140.874 119.773 141.242 120.126C141.626 120.479 142.11 120.656 142.693 120.656C143.2 120.656 143.599 120.518 143.891 120.242C144.182 119.965 144.328 119.597 144.328 119.136C144.328 118.722 144.19 118.376 143.914 118.1C143.653 117.824 143.322 117.601 142.923 117.432C142.524 117.248 141.972 117.033 141.265 116.787C140.237 116.434 139.392 116.097 138.732 115.774C138.087 115.436 137.527 114.945 137.051 114.3C136.591 113.64 136.36 112.788 136.36 111.744C136.36 110.777 136.606 109.94 137.097 109.234C137.589 108.528 138.264 107.991 139.124 107.622C139.999 107.238 140.997 107.047 142.117 107.047C143.929 107.047 145.364 107.476 146.424 108.336C147.498 109.196 148.105 110.378 148.243 111.882H143.983C143.906 111.345 143.706 110.923 143.384 110.616C143.077 110.294 142.655 110.132 142.117 110.132C141.657 110.132 141.281 110.255 140.989 110.501C140.713 110.746 140.575 111.107 140.575 111.583C140.575 111.967 140.697 112.297 140.943 112.573C141.204 112.834 141.526 113.049 141.91 113.218C142.294 113.387 142.847 113.602 143.568 113.863C144.612 114.216 145.464 114.569 146.124 114.922C146.784 115.26 147.352 115.759 147.828 116.419C148.304 117.079 148.542 117.939 148.542 118.998ZM154.657 117.87V123.581H150.719V107.3H157.098C159.032 107.3 160.506 107.783 161.519 108.751C162.532 109.702 163.039 110.992 163.039 112.619C163.039 113.633 162.809 114.538 162.348 115.337C161.903 116.12 161.235 116.741 160.345 117.202C159.454 117.647 158.372 117.87 157.098 117.87H154.657ZM156.66 114.715C158.242 114.715 159.032 114.016 159.032 112.619C159.032 111.192 158.242 110.478 156.66 110.478H154.657V114.715H156.66ZM168.914 110.432V113.84H174.418V116.81H168.914V120.426H175.109V123.581H164.977V107.3H175.109V110.432H168.914ZM184.783 107.139C186.856 107.139 188.567 107.684 189.918 108.774C191.285 109.864 192.167 111.337 192.566 113.195H188.398C188.091 112.443 187.615 111.852 186.971 111.422C186.341 110.992 185.589 110.777 184.714 110.777C183.563 110.777 182.634 111.199 181.928 112.044C181.221 112.888 180.868 114.016 180.868 115.429C180.868 116.841 181.221 117.969 181.928 118.814C182.634 119.643 183.563 120.057 184.714 120.057C185.589 120.057 186.341 119.842 186.971 119.413C187.615 118.983 188.091 118.399 188.398 117.662H192.566C192.167 119.505 191.285 120.978 189.918 122.084C188.567 123.174 186.856 123.719 184.783 123.719C183.202 123.719 181.812 123.373 180.615 122.682C179.418 121.976 178.489 120.994 177.829 119.735C177.184 118.476 176.862 117.041 176.862 115.429C176.862 113.817 177.184 112.381 177.829 111.123C178.489 109.864 179.418 108.889 180.615 108.198C181.812 107.492 183.202 107.139 184.783 107.139ZM198.711 107.3V123.581H194.773V107.3H198.711ZM211.516 120.61H205.414L204.4 123.581H200.255L206.22 107.415H210.756L216.72 123.581H212.529L211.516 120.61ZM210.503 117.616L208.476 111.629L206.427 117.616H210.503ZM222.189 120.564H227.439V123.581H218.251V107.3H222.189V120.564Z" fill="white"/>
<path d="M124.846 163.871C121.807 163.871 119.013 163.165 116.464 161.752C113.947 160.34 111.936 158.375 110.431 155.857C108.957 153.309 108.22 150.453 108.22 147.291C108.22 144.128 108.957 141.288 110.431 138.771C111.936 136.253 113.947 134.288 116.464 132.876C119.013 131.463 121.807 130.757 124.846 130.757C127.886 130.757 130.665 131.463 133.183 132.876C135.731 134.288 137.727 136.253 139.17 138.771C140.644 141.288 141.38 144.128 141.38 147.291C141.38 150.453 140.644 153.309 139.17 155.857C137.696 158.375 135.7 160.34 133.183 161.752C130.665 163.165 127.886 163.871 124.846 163.871ZM124.846 156.686C127.426 156.686 129.483 155.827 131.018 154.107C132.584 152.388 133.367 150.116 133.367 147.291C133.367 144.435 132.584 142.163 131.018 140.475C129.483 138.755 127.426 137.896 124.846 137.896C122.237 137.896 120.149 138.74 118.583 140.429C117.048 142.117 116.28 144.405 116.28 147.291C116.28 150.146 117.048 152.434 118.583 154.153C120.149 155.842 122.237 156.686 124.846 156.686ZM169.112 131.218V137.527H155.94V144.343H165.796V150.469H155.94V163.549H148.065V131.218H169.112ZM196.602 131.218V137.527H183.43V144.343H193.286V150.469H183.43V163.549H175.554V131.218H196.602ZM210.919 137.527V144.067H221.466V150.146H210.919V157.239H222.848V163.549H203.044V131.218H222.848V137.527H210.919ZM246.751 163.549L240.027 151.344H238.139V163.549H230.263V131.218H243.481C246.03 131.218 248.194 131.663 249.975 132.553C251.787 133.444 253.138 134.672 254.028 136.238C254.918 137.773 255.364 139.492 255.364 141.396C255.364 143.545 254.749 145.464 253.521 147.153C252.324 148.841 250.543 150.039 248.179 150.745L255.64 163.549H246.751ZM238.139 145.771H243.021C244.464 145.771 245.538 145.418 246.245 144.712C246.981 144.006 247.35 143.008 247.35 141.718C247.35 140.49 246.981 139.523 246.245 138.817C245.538 138.111 244.464 137.757 243.021 137.757H238.139V145.771Z" fill="white"/>
<path d="M114.94 52.6859L96.1583 62.4247L106.719 42.8208L114.94 52.6859Z" fill="#EB0001"/>
<path d="M111.968 11.8976L86.2299 52.5598L89.2653 0.704346L111.968 11.8976Z" fill="#EB0001"/>
<path d="M144.535 49.7168L104.029 74.0647L148.74 76.2781L144.535 49.7168Z" fill="#EB0001"/>
<defs>
<linearGradient id="paint0_linear_201_9410" x1="29.657" y1="69.3616" x2="239.944" y2="161.749" gradientUnits="userSpaceOnUse">
<stop offset="0.0120663"/>
<stop offset="1" stop-color="#232323"/>
</linearGradient>
</defs>
</svg>
