<svg width="306" height="63" viewBox="0 0 306 63" fill="none" xmlns="http://www.w3.org/2000/svg">
<g clip-path="url(#clip0_270_67933)">
<path d="M60.3919 19.8379H17.1299L-0.330078 46.2219H48.9459C53.4079 46.8039 63.4959 42.7299 65.6299 35.1639C67.7639 28.3739 72.6139 20.8079 60.3919 19.8379ZM45.8419 27.9859C45.8419 27.9859 39.2459 36.7159 37.8879 38.8499C36.9179 40.4019 35.9479 40.2079 35.5599 40.4019H25.2779L35.1719 25.8519C35.1719 25.8519 42.5439 25.8519 44.8719 25.8519C47.0059 25.8519 45.8419 27.9859 45.8419 27.9859Z" fill="#DF0100"/>
<path d="M54.572 46.416C53.602 46.416 53.408 46.028 54.378 45.446L103.46 20.614C104.43 20.226 105.982 19.644 107.146 19.644H111.608C112.578 19.644 114.13 20.42 114.712 21.196L144.588 59.22C145.17 59.996 144.976 60.772 143.812 60.772H120.532C119.368 60.772 118.01 60.19 117.428 59.22L95.312 32.06C94.73 31.284 93.372 30.896 92.402 31.478L76.494 39.238C75.524 39.626 75.718 40.014 76.688 40.014H95.118C96.088 40.014 96.476 40.79 95.894 41.566L93.954 44.282C93.372 45.252 92.014 45.834 90.85 45.834H54.572V46.416Z" fill="#DF0100"/>
<path d="M120.144 19.8379C118.98 19.8379 118.786 20.6139 119.368 21.3899L138.186 44.8639C138.768 45.6399 140.32 46.4159 141.29 46.4159H143.812C144.976 46.4159 146.528 46.0279 147.498 45.6399L199.102 20.8079C200.072 20.4199 200.072 20.0319 198.908 20.0319H193.476C192.312 20.0319 190.76 20.4199 189.79 20.8079L160.302 34.5819C159.332 34.9699 157.974 34.7759 157.392 33.9999L147.11 21.5839C146.334 20.8079 144.976 20.0319 144.006 20.0319H120.144V19.8379Z" fill="#DF0100"/>
<path d="M228.396 41.3721C229.366 41.3721 229.948 42.1481 229.366 43.1181L228.396 44.8641C227.814 45.8341 226.456 46.6101 225.486 46.6101H188.82C187.656 46.6101 187.462 45.8341 188.044 45.0581L204.34 21.7781C204.922 20.8081 206.28 20.2261 207.444 20.2261H241.976C243.14 20.2261 243.528 21.0021 242.946 21.9721L241.006 25.0761C240.424 26.0461 239.066 26.8221 238.096 26.8221H214.428C213.264 26.8221 212.1 27.5981 211.518 28.3741L204.146 40.0141C203.564 40.9841 203.952 41.5661 205.116 41.7601L228.396 41.3721Z" fill="#DF0100"/>
<path d="M188.238 46.4159C188.238 46.4159 176.598 46.0279 183 33.9999C189.402 21.9719 201.818 19.8379 206.474 19.8379C211.13 19.8379 206.474 29.3439 206.474 29.3439L188.238 46.4159Z" fill="#DF0100"/>
<path d="M234.798 30.1199C235.962 30.1199 236.35 30.8959 235.768 31.6719L234.022 34.3879C233.44 35.3579 232.082 35.9399 231.112 35.9399H209.772C208.802 35.9399 208.22 35.1639 208.802 34.1939L210.354 31.4779C210.936 30.5079 212.294 29.7319 213.264 29.7319H234.798V30.1199Z" fill="#DF0100"/>
<path d="M243.14 28.1801L246.05 24.4941C246.05 24.4941 242.17 24.3001 243.722 21.5841L248.96 14.6001H260.018C260.018 14.6001 262.346 14.9881 260.794 17.3161C259.242 19.6441 254.78 24.1061 254.78 24.1061L249.542 27.9861H243.14V28.1801Z" fill="#DF0100"/>
<path d="M305.802 19.8379L303.28 24.4939C302.698 25.4639 301.534 26.2399 300.37 26.2399H283.492C282.328 26.2399 282.328 26.6279 283.298 27.0159C283.298 27.0159 300.176 33.9999 296.49 41.1779C293.774 46.4159 291.64 46.4159 243.528 46.4159L246.05 42.1479C246.632 41.1779 247.99 40.4019 248.96 40.4019H264.674C265.838 40.4019 265.838 40.0139 264.868 39.6259C264.868 39.6259 249.348 32.8359 255.556 25.0759C261.376 18.4799 259.242 19.8379 305.802 19.8379Z" fill="#DF0100"/>
<path d="M165.078 61L163.921 59.4532H157.398L156.241 61H153.135L159.523 52.5668H161.837L168.198 61H165.078ZM159.093 57.1667H162.227L160.667 55.0685L159.093 57.1667ZM171.757 61C169.821 61 168.597 59.9643 168.597 58.2696V52.5668H171.219V57.8392C171.219 58.4041 171.569 58.7135 172.188 58.7135H177.797C178.509 58.7135 178.792 58.4848 178.792 57.8392L178.778 52.5668H181.374V58.2696C181.374 59.9912 180.191 61 178.213 61H171.757ZM187.74 61V54.8399H182.723V52.5668H195.353V54.8399H190.39V61H187.74ZM199.456 61C197.519 61 196.295 59.9643 196.295 58.2696V55.351C196.295 53.6025 197.478 52.5668 199.442 52.5668H205.938C207.875 52.5668 209.072 53.6025 209.072 55.351V58.2696C209.072 59.9912 207.875 61 205.912 61H199.456ZM199.886 58.7135H205.481C206.194 58.7135 206.463 58.4848 206.463 57.8392V55.741C206.463 55.1089 206.167 54.8399 205.4 54.8399H199.98C199.24 54.8399 198.918 55.1223 198.918 55.741V57.8392C198.918 58.4041 199.267 58.7135 199.886 58.7135ZM220.681 61C218.745 61 217.521 59.9643 217.521 58.2696V55.351C217.521 53.6025 218.704 52.5668 220.668 52.5668H228.993V54.8399H221.206C220.466 54.8399 220.143 55.1223 220.143 55.741V57.8392C220.143 58.4041 220.493 58.7135 221.112 58.7135H228.993V61H220.681ZM230.343 61V52.5668H242.489V54.8399H232.979V55.6469H241.44V57.9199H232.979V58.7135H242.489V61H230.343ZM254.283 52.5668H256.852V61H254.687L246.402 55.7007V61H243.833V52.5668H246.012L254.283 57.8661V52.5668ZM263.213 61V54.8399H258.196V52.5668H270.825V54.8399H265.862V61H263.213ZM272.164 61V52.5668H284.31V54.8399H274.801V55.6469H283.261V57.9199H274.801V58.7135H284.31V61H272.164ZM298.794 61H295.58L293.078 58.1755H288.29V61H285.654V52.5668H295.741C297.328 52.5668 298.472 53.6966 298.472 55.1089V55.5124C298.472 56.8305 297.692 57.8258 296.387 58.0948L298.794 61ZM288.29 54.8399V55.889H295.297C295.647 55.889 295.849 55.7007 295.849 55.4182V55.3241C295.849 55.0551 295.607 54.8399 295.297 54.8399H288.29Z" fill="#FFF800"/>
<path d="M83.478 0.437988H117.234C118.398 0.437988 119.95 0.825984 120.92 1.21398L133.53 6.64599C134.5 7.03399 136.246 7.61599 137.216 7.80999L179.12 14.6C180.09 14.794 180.866 15.764 180.478 16.734L179.508 19.838" stroke="white" stroke-miterlimit="10" stroke-linecap="round"/>
<path d="M44.8721 7.42199H70.6741C71.6441 7.42199 73.3901 7.03399 74.3601 6.64599C74.3601 6.64599 79.4041 4.51199 83.4781 0.437988" stroke="white" stroke-miterlimit="10" stroke-linecap="round"/>
<path d="M92.79 4.51196L97.834 9.36196L127.904 8.19797" stroke="white" stroke-miterlimit="10" stroke-linecap="round" stroke-linejoin="bevel"/>
<path d="M148.274 16.9279C148.274 16.9279 161.854 16.5399 165.152 20.4199C166.898 22.5539 167.48 26.8219 158.944 28.7619C158.944 28.7619 163.406 29.7319 167.868 27.4039C172.33 25.0759 171.554 19.2559 165.928 16.7339C160.302 14.2119 154.288 14.0179 148.274 16.9279Z" fill="white"/>
<path d="M73.9719 29.538C73.9719 29.538 87.5519 27.986 88.5219 22.748C89.4919 17.51 84.8359 13.824 78.4339 13.048C73.0019 12.272 69.8979 13.436 63.6899 15.376C63.6899 15.376 78.0459 15.57 82.1199 19.062C85.8059 21.972 84.0599 24.882 73.9719 29.538Z" fill="white"/>
</g>
<defs>
<clipPath id="clip0_270_67933">
<rect width="306" height="63" fill="white"/>
</clipPath>
</defs>
</svg>
