<svg width="388" height="63" viewBox="0 0 388 63" fill="none" xmlns="http://www.w3.org/2000/svg">
<g clipPath="url(#clip0_349_4775)">
<path d="M71.9645 20H28.5297L11 45.9461H60.4728C64.9526 46.5184 75.0809 42.512 77.2235 35.0716C79.366 28.3943 84.2354 20.9539 71.9645 20ZM57.3564 28.0128C57.3564 28.0128 50.7341 36.5978 49.3707 38.6964C48.3968 40.2227 47.4229 40.0319 47.0334 40.2227H36.7103L46.6438 25.9142C46.6438 25.9142 54.0452 25.9142 56.3825 25.9142C58.5251 25.9142 57.3564 28.0128 57.3564 28.0128Z" fill="#DF0100"/>
<path d="M65.8302 46.6887C64.862 46.6887 64.6683 46.3019 65.6366 45.7217L114.629 20.967C115.598 20.5802 117.147 20 118.309 20H122.763C123.731 20 125.28 20.7736 125.861 21.5472L155.683 59.4528C156.264 60.2264 156.07 61 154.908 61H131.67C130.509 61 129.153 60.4198 128.572 59.4528L106.496 32.3774C105.915 31.6038 104.56 31.217 103.592 31.7972L87.7124 39.533C86.7442 39.9198 86.9378 40.3066 87.9061 40.3066H106.303C107.271 40.3066 107.658 41.0802 107.077 41.8538L105.141 44.5613C104.56 45.5283 103.204 46.1085 102.042 46.1085H65.8302V46.6887Z" fill="#DF0100"/>
<path d="M131.097 20C129.93 20 129.735 20.7883 130.319 21.5766L149.193 45.4234C149.777 46.2117 151.334 47 152.307 47H154.836C156.004 47 157.561 46.6058 158.534 46.2117L210.293 20.9854C211.266 20.5912 211.266 20.1971 210.098 20.1971H204.65C203.483 20.1971 201.926 20.5912 200.953 20.9854L171.376 34.9781C170.403 35.3723 169.041 35.1752 168.457 34.3869L158.144 21.7737C157.366 20.9854 156.004 20.1971 155.031 20.1971H131.097V20Z" fill="#DF0100"/>
<path d="M239.313 40.8382C240.274 40.8382 240.851 41.6029 240.274 42.5588L239.313 44.2794C238.736 45.2353 237.39 46 236.428 46H200.084C198.93 46 198.738 45.2353 199.315 44.4706L215.468 21.5294C216.045 20.5735 217.391 20 218.545 20H252.773C253.927 20 254.312 20.7647 253.735 21.7206L251.812 24.7794C251.235 25.7353 249.889 26.5 248.928 26.5H225.467C224.314 26.5 223.16 27.2647 222.583 28.0294L215.276 39.5C214.699 40.4559 215.083 41.0294 216.237 41.2206L239.313 40.8382Z" fill="#DF0100"/>
<path d="M199.039 47C199.039 47 187.596 46.6058 193.89 34.3869C200.183 22.1679 212.389 20 216.966 20C221.543 20 216.966 29.6569 216.966 29.6569L199.039 47Z" fill="#DF0100"/>
<path d="M245.784 30.375C246.928 30.375 247.309 31.125 246.737 31.875L245.021 34.5C244.449 35.4375 243.114 36 242.16 36H221.182C220.228 36 219.656 35.25 220.228 34.3125L221.754 31.6875C222.326 30.75 223.661 30 224.615 30H245.784V30.375Z" fill="#DF0100"/>
<path d="M254 29L256.88 25.2C256.88 25.2 253.04 25 254.576 22.2L259.76 15H270.704C270.704 15 273.008 15.4 271.472 17.8C269.936 20.2 265.52 24.8 265.52 24.8L260.336 28.8H254V29Z" fill="#DF0100"/>
<path d="M317 20.1169L314.489 24.8263C313.91 25.8074 312.751 26.5924 311.592 26.5924H294.788C293.629 26.5924 293.629 26.9848 294.595 27.3773C294.595 27.3773 311.399 34.4414 307.729 41.7019C305.025 47 302.9 47 255 47L257.511 42.683C258.09 41.7019 259.442 40.9169 260.408 40.9169H276.053C277.212 40.9169 277.212 40.5245 276.246 40.132C276.246 40.132 260.794 33.2641 266.975 25.415C272.769 18.7433 270.645 20.1169 317 20.1169Z" fill="#DF0100"/>
<path d="M176.078 61L174.921 59.4532H168.398L167.241 61H164.135L170.523 52.5668H172.837L179.198 61H176.078ZM170.093 57.1667H173.227L171.667 55.0685L170.093 57.1667ZM182.757 61C180.821 61 179.597 59.9643 179.597 58.2696V52.5668H182.219V57.8392C182.219 58.4041 182.569 58.7135 183.188 58.7135H188.797C189.509 58.7135 189.792 58.4848 189.792 57.8392L189.778 52.5668H192.374V58.2696C192.374 59.9912 191.191 61 189.213 61H182.757ZM198.74 61V54.8399H193.723V52.5668H206.353V54.8399H201.39V61H198.74ZM210.456 61C208.519 61 207.295 59.9643 207.295 58.2696V55.351C207.295 53.6025 208.478 52.5668 210.442 52.5668H216.938C218.875 52.5668 220.072 53.6025 220.072 55.351V58.2696C220.072 59.9912 218.875 61 216.912 61H210.456ZM210.886 58.7135H216.481C217.194 58.7135 217.463 58.4848 217.463 57.8392V55.741C217.463 55.1089 217.167 54.8399 216.4 54.8399H210.98C210.24 54.8399 209.918 55.1223 209.918 55.741V57.8392C209.918 58.4041 210.267 58.7135 210.886 58.7135ZM231.681 61C229.745 61 228.521 59.9643 228.521 58.2696V55.351C228.521 53.6025 229.704 52.5668 231.668 52.5668H239.993V54.8399H232.206C231.466 54.8399 231.143 55.1223 231.143 55.741V57.8392C231.143 58.4041 231.493 58.7135 232.112 58.7135H239.993V61H231.681ZM241.343 61V52.5668H253.489V54.8399H243.979V55.6469H252.44V57.9199H243.979V58.7135H253.489V61H241.343ZM265.283 52.5668H267.852V61H265.687L257.402 55.7007V61H254.833V52.5668H257.012L265.283 57.8661V52.5668ZM274.213 61V54.8399H269.196V52.5668H281.825V54.8399H276.862V61H274.213ZM283.164 61V52.5668H295.31V54.8399H285.801V55.6469H294.261V57.9199H285.801V58.7135H295.31V61H283.164ZM309.794 61H306.58L304.078 58.1755H299.29V61H296.654V52.5668H306.741C308.328 52.5668 309.472 53.6966 309.472 55.1089V55.5124C309.472 56.8305 308.692 57.8258 307.387 58.0948L309.794 61ZM299.29 54.8399V55.889H306.297C306.647 55.889 306.849 55.7007 306.849 55.4182V55.3241C306.849 55.0551 306.607 54.8399 306.297 54.8399H299.29Z" fill="#FFF800"/>
<path d="M94 0H127.721C128.883 0 130.434 0.379996 131.403 0.759996L143.999 6.08C144.968 6.46 146.713 7.03 147.682 7.22L189.542 13.87C190.51 14.06 191.286 15.01 190.898 15.96L189.929 19" stroke="white" strokeMiterlimit="10" strokeLinecap="round"/>
<path d="M56 7H82.0653C83.0452 7 84.809 6.61112 85.7889 6.22223C85.7889 6.22223 90.8844 4.08333 95 0" stroke="white" strokeMiterlimit="10" strokeLinecap="round"/>
<path d="M104 5L109.028 10L139 8.8" stroke="white" strokeMiterlimit="10" strokeLinecap="round" stroke-linejoin="bevel"/>
<path d="M159 17.1086C159 17.1086 172.293 16.7252 175.521 20.5591C177.23 22.6678 177.8 26.885 169.444 28.802C169.444 28.802 173.812 29.7604 178.18 27.4601C182.547 25.1598 181.788 19.409 176.281 16.9169C170.774 14.4249 164.887 14.2332 159 17.1086Z" fill="white"/>
<path d="M85.2985 30C85.2985 30 98.9002 28.4232 99.8718 23.1017C100.843 17.7801 96.1799 14.0353 89.7676 13.2469C84.3269 12.4586 81.2179 13.6411 75 15.6121C75 15.6121 89.379 15.8092 93.4595 19.3569C97.1514 22.3133 95.4026 25.2697 85.2985 30Z" fill="white"/>
</g>
<defs>
<clipPath id="clip0_349_4775">
<rect width="388" height="63" fill="white"/>
</clipPath>
</defs>
</svg>
