<svg width="200" height="40" viewBox="0 0 200 40" fill="none" xmlns="http://www.w3.org/2000/svg">
<g clipPath="url(#clip0_936_8212)">
<path d="M45.4694 12.8315H18.1632L7.14282 29.4846H38.2449C41.0612 29.8519 47.4285 27.2805 48.7755 22.505C50.1224 18.2193 53.1836 13.4438 45.4694 12.8315ZM36.2857 17.9744C36.2857 17.9744 32.1224 23.4846 31.2653 24.8315C30.653 25.8111 30.0408 25.6887 29.7959 25.8111H23.3061L29.551 16.6275C29.551 16.6275 34.204 16.6275 35.6734 16.6275C37.0204 16.6275 36.2857 17.9744 36.2857 17.9744Z" fill="#EB0001"/>
<path d="M41.7958 29.6074C41.1836 29.6074 41.0612 29.3625 41.6734 28.9952L72.653 13.3217C73.2652 13.0768 74.2448 12.7095 74.9795 12.7095H77.7958C78.4081 12.7095 79.3877 13.1993 79.755 13.6891L98.6122 37.6891C98.9795 38.1789 98.8571 38.6687 98.1224 38.6687H83.4285C82.6938 38.6687 81.8367 38.3013 81.4693 37.6891L67.5101 20.5462C67.1428 20.0564 66.2856 19.8115 65.6734 20.1789L55.6326 25.0768C55.0203 25.3217 55.1428 25.5666 55.755 25.5666H67.3877C67.9999 25.5666 68.2448 26.0564 67.8775 26.5462L66.653 28.2605C66.2856 28.8727 65.4285 29.2401 64.6938 29.2401H41.7958V29.6074Z" fill="#EB0001"/>
<path d="M83.1836 12.8315C82.4489 12.8315 82.3264 13.3213 82.6938 13.8111L94.5713 28.6275C94.9387 29.1173 95.9182 29.6071 96.5305 29.6071H98.1223C98.857 29.6071 99.8366 29.3622 100.449 29.1173L133.02 13.4438C133.633 13.1989 133.633 12.954 132.898 12.954H129.469C128.735 12.954 127.755 13.1989 127.143 13.4438L108.53 22.1377C107.918 22.3826 107.061 22.2601 106.694 21.7703L100.204 13.9336C99.7142 13.4438 98.857 12.954 98.2448 12.954H83.1836V12.8315Z" fill="#EB0001"/>
<path d="M151.51 26.4236C152.122 26.4236 152.49 26.9134 152.122 27.5256L151.51 28.6277C151.143 29.2399 150.286 29.7297 149.673 29.7297H126.531C125.796 29.7297 125.673 29.2399 126.041 28.7501L136.327 14.0563C136.694 13.444 137.551 13.0767 138.286 13.0767H160.082C160.816 13.0767 161.061 13.5665 160.694 14.1787L159.469 16.1379C159.102 16.7501 158.245 17.2399 157.633 17.2399H142.694C141.959 17.2399 141.224 17.7297 140.857 18.2195L136.204 25.5665C135.837 26.1787 136.082 26.546 136.816 26.6685L151.51 26.4236Z" fill="#EB0001"/>
<path d="M126.163 29.6071C126.163 29.6071 118.816 29.3622 122.857 21.7703C126.898 14.1785 134.735 12.8315 137.673 12.8315C140.612 12.8315 137.673 18.8315 137.673 18.8315L126.163 29.6071Z" fill="#EB0001"/>
<path d="M155.551 19.3216C156.286 19.3216 156.531 19.8114 156.163 20.3012L155.061 22.0154C154.694 22.6277 153.837 22.995 153.225 22.995H139.755C139.143 22.995 138.776 22.5052 139.143 21.893L140.122 20.1787C140.49 19.5665 141.347 19.0767 141.959 19.0767H155.551V19.3216Z" fill="#EB0001"/>
<path d="M160.816 18.0973L162.653 15.7708C162.653 15.7708 160.204 15.6483 161.184 13.934L164.49 9.52588H171.469C171.469 9.52588 172.939 9.77078 171.959 11.2402C170.98 12.7096 168.163 15.5259 168.163 15.5259L164.857 17.9749H160.816V18.0973Z" fill="#EB0001"/>
<path d="M200.367 12.8317L198.776 15.7705C198.408 16.3827 197.674 16.8725 196.939 16.8725H186.286C185.551 16.8725 185.551 17.1174 186.163 17.3623C186.163 17.3623 196.816 21.7705 194.49 26.3011C192.776 29.6072 191.429 29.6072 161.061 29.6072L162.653 26.9133C163.02 26.3011 163.878 25.8113 164.49 25.8113H174.408C175.143 25.8113 175.143 25.5664 174.531 25.3215C174.531 25.3215 164.735 21.0358 168.653 16.1378C172.327 11.9746 170.98 12.8317 200.367 12.8317Z" fill="#EB0001"/>
<path d="M111.545 38.9756L110.815 37.9993H106.698L105.968 38.9756H104.007L108.039 33.6527H109.499L113.515 38.9756H111.545ZM107.767 36.5561H109.745L108.761 35.2318L107.767 36.5561ZM115.761 38.9756C114.539 38.9756 113.766 38.3219 113.766 37.2522V33.6527H115.422V36.9806C115.422 37.3371 115.642 37.5324 116.033 37.5324H119.573C120.023 37.5324 120.201 37.3881 120.201 36.9806L120.193 33.6527H121.831V37.2522C121.831 38.3389 121.084 38.9756 119.836 38.9756H115.761ZM125.849 38.9756V35.0875H122.683V33.6527H130.654V35.0875H127.522V38.9756H125.849ZM133.244 38.9756C132.021 38.9756 131.249 38.3219 131.249 37.2522V35.41C131.249 34.3064 131.996 33.6527 133.235 33.6527H137.335C138.558 33.6527 139.313 34.3064 139.313 35.41V37.2522C139.313 38.3389 138.558 38.9756 137.318 38.9756H133.244ZM133.515 37.5324H137.047C137.497 37.5324 137.667 37.3881 137.667 36.9806V35.6562C137.667 35.2572 137.48 35.0875 136.996 35.0875H133.575C133.108 35.0875 132.904 35.2657 132.904 35.6562V36.9806C132.904 37.3371 133.125 37.5324 133.515 37.5324ZM146.641 38.9756C145.418 38.9756 144.646 38.3219 144.646 37.2522V35.41C144.646 34.3064 145.393 33.6527 146.632 33.6527H151.887V35.0875H146.972C146.505 35.0875 146.301 35.2657 146.301 35.6562V36.9806C146.301 37.3371 146.522 37.5324 146.913 37.5324H151.887V38.9756H146.641ZM152.739 38.9756V33.6527H160.405V35.0875H154.403V35.5968H159.743V37.0315H154.403V37.5324H160.405V38.9756H152.739ZM167.85 33.6527H169.471V38.9756H168.104L162.875 35.6308V38.9756H161.254V33.6527H162.629L167.85 36.9976V33.6527ZM173.486 38.9756V35.0875H170.319V33.6527H178.291V35.0875H175.158V38.9756H173.486ZM179.136 38.9756V33.6527H186.802V35.0875H180.8V35.5968H186.14V37.0315H180.8V37.5324H186.802V38.9756H179.136ZM195.944 38.9756H193.915L192.336 37.1928H189.314V38.9756H187.65V33.6527H194.017C195.019 33.6527 195.741 34.3659 195.741 35.2572V35.5119C195.741 36.3439 195.248 36.9721 194.425 37.1419L195.944 38.9756ZM189.314 35.0875V35.7496H193.737C193.958 35.7496 194.085 35.6308 194.085 35.4525V35.3931C194.085 35.2233 193.932 35.0875 193.737 35.0875H189.314Z" fill="#FEFC00"/>
<path d="M60.0409 0.586914H81.347C82.0817 0.586914 83.0613 0.831809 83.6735 1.07671L91.6327 4.50528C92.245 4.75018 93.347 5.11753 93.9593 5.23997L120.408 9.52569C121.02 9.64814 121.51 10.2604 121.265 10.8726L120.653 12.8318" stroke="white" strokeWidth="0.63118" strokeMiterlimit="10" strokeLinecap="round"/>
<path d="M35.6735 4.99508H51.9592C52.5714 4.99508 53.6735 4.75018 54.2857 4.50528C54.2857 4.50528 57.4694 3.15834 60.0408 0.586914" stroke="white" strokeWidth="0.63118" strokeMiterlimit="10" strokeLinecap="round"/>
<path d="M65.9183 3.1582L69.102 6.21943L88.0816 5.48474" stroke="white" strokeWidth="0.63118" strokeMiterlimit="10" strokeLinecap="round" stroke-linejoin="bevel"/>
<path d="M100.939 10.9949C100.939 10.9949 109.51 10.75 111.592 13.199C112.694 14.5459 113.061 17.2398 107.674 18.4643C107.674 18.4643 110.49 19.0765 113.306 17.6071C116.123 16.1377 115.633 12.4643 112.082 10.8724C108.531 9.2806 104.735 9.15815 100.939 10.9949Z" fill="white"/>
<path d="M54.0408 18.9542C54.0408 18.9542 62.6122 17.9746 63.2245 14.6684C63.8367 11.3623 60.898 9.03579 56.8571 8.546C53.4286 8.0562 51.4694 8.7909 47.551 10.0154C47.551 10.0154 56.6123 10.1378 59.1837 12.3419C61.5102 14.1786 60.4082 16.0154 54.0408 18.9542Z" fill="white"/>
</g>
<defs>
<clipPath id="clip0_936_8212">
<rect width="200" height="40" fill="white"/>
</clipPath>
</defs>
</svg>
