<svg width="588" height="382" viewBox="0 0 588 382" fill="none" xmlns="http://www.w3.org/2000/svg">
<g clip-path="url(#clip0_2001_27758)">
<path d="M546.638 161.348L559.159 173.704C559.715 174.253 559.996 174.943 560.001 175.773C560.005 176.603 559.732 177.297 559.182 177.855L546.799 190.403C546.249 190.961 545.558 191.243 544.728 191.25C543.898 191.256 543.205 190.985 542.648 190.435L530.127 178.079C529.57 177.53 529.29 176.84 529.285 176.01C529.281 175.18 529.553 174.486 530.104 173.928L542.487 161.38C543.037 160.822 543.728 160.54 544.558 160.534C545.388 160.527 546.081 160.799 546.638 161.348ZM531.639 113.935C533.517 115.788 535.007 117.792 536.108 119.945C537.21 122.098 537.938 124.021 538.294 125.714C538.649 127.406 538.738 129.386 538.56 131.653C538.382 133.92 538.15 135.668 537.863 136.899C537.576 138.129 537.144 139.801 536.568 141.916C535.957 144.134 535.91 146.444 536.424 148.844C536.939 151.244 537.632 152.873 538.501 153.731C539.092 154.315 539.451 155.082 539.578 156.032C539.704 156.982 539.492 157.736 538.941 158.294L526.558 170.842C526.042 171.365 525.282 171.492 524.277 171.223C523.273 170.954 522.44 170.493 521.779 169.841L519.431 167.524C516.545 164.676 514.941 160.857 514.62 156.068C514.3 151.28 514.872 146.926 516.338 143.006C517.428 140.022 517.899 137.597 517.75 135.73C517.602 133.864 516.71 132.124 515.075 130.51C513.614 129.069 511.528 128.609 508.815 129.132C506.103 129.654 503.697 130.979 501.599 133.105C499.363 135.37 498.01 137.75 497.54 140.245C497.205 142.323 497.365 146.161 498.019 151.76C498.128 152.762 497.873 153.577 497.254 154.205C496.841 154.623 496.272 154.921 495.547 155.1L480.563 157.239C479.768 157.349 479.067 157.19 478.459 156.762C477.851 156.334 477.459 155.758 477.282 155.033C473.534 140.326 476.888 127.674 487.345 117.078C490.097 114.289 493.405 112.015 497.269 110.256C501.134 108.497 505.088 107.376 509.133 106.896C513.177 106.415 517.218 106.755 521.254 107.918C525.29 109.08 528.752 111.086 531.639 113.935Z" fill="#023E6A"/>
</g>
<g clip-path="url(#clip1_2001_27758)">
<path d="M559.524 77.1803L563.708 94.2671C563.894 95.0266 563.771 95.7609 563.34 96.4703C562.909 97.1796 562.312 97.6274 561.551 97.8138L544.428 102.007C543.667 102.193 542.931 102.072 542.221 101.642C541.51 101.212 541.062 100.617 540.876 99.8579L536.692 82.771C536.506 82.0116 536.629 81.2772 537.06 80.5679C537.492 79.8586 538.088 79.4107 538.849 79.2244L555.973 75.0313C556.734 74.845 557.469 74.9667 558.18 75.3965C558.89 75.8263 559.338 76.4209 559.524 77.1803ZM571.61 28.9423C572.238 31.5053 572.456 33.9925 572.265 36.4038C572.074 38.8151 571.686 40.8344 571.101 42.4617C570.517 44.089 569.554 45.8213 568.214 47.6587C566.875 49.4961 565.76 50.8633 564.87 51.7603C563.981 52.6573 562.736 53.855 561.137 55.3535C559.454 56.9227 558.203 58.8642 557.383 61.178C556.563 63.4917 556.298 65.2419 556.589 66.4285C556.786 67.2354 556.69 68.0765 556.299 68.952C555.908 69.8274 555.333 70.3584 554.572 70.5447L537.448 74.7378C536.734 74.9125 536.02 74.622 535.306 73.8662C534.591 73.1104 534.124 72.2816 533.903 71.3798L533.118 68.176C532.154 64.2365 532.79 60.144 535.028 55.8983C537.265 51.6527 540.036 48.245 543.339 45.6753C545.832 43.7066 547.504 41.8884 548.356 40.2208C549.208 38.5531 549.361 36.6039 548.815 34.3732C548.327 32.3797 546.791 30.8943 544.207 29.9171C541.623 28.9399 538.881 28.8065 535.979 29.517C532.887 30.2741 530.487 31.5913 528.779 33.4686C527.405 35.0628 525.528 38.4151 523.15 43.5254C522.717 44.4362 522.073 44.9965 521.217 45.2061C520.646 45.3459 520.005 45.3016 519.294 45.0734L505.413 39.0392C504.679 38.716 504.165 38.213 503.872 37.5301C503.578 36.8473 503.546 36.1508 503.776 35.4406C508.295 20.9517 517.784 11.9369 532.244 8.39604C536.05 7.46425 540.059 7.26232 544.272 7.79025C548.485 8.31817 552.44 9.43765 556.136 11.1487C559.832 12.8597 563.094 15.2682 565.922 18.3741C568.749 21.4801 570.645 25.0028 571.61 28.9423Z" fill="#EB0001"/>
</g>
<rect x="90.9131" y="262.487" width="231.463" height="38.4951" rx="19.2475" transform="rotate(-4.31925 90.9131 262.487)" stroke="#232323" strokeWidth="2.18722"/>
<path d="M119.409 273.857L120.295 285.587L118.753 285.704L118.092 276.957L114.854 285.998L113.769 286.08L109.191 277.612L109.853 286.376L108.311 286.492L107.425 274.762L109.086 274.636L114.158 284.005L117.765 273.981L119.409 273.857ZM131.01 279.749C131.032 280.042 131.038 280.354 131.029 280.685L123.604 281.246C123.73 282.157 124.095 282.851 124.699 283.328C125.314 283.793 126.028 283.995 126.842 283.933C127.509 283.883 128.051 283.689 128.469 283.35C128.897 283 129.182 282.558 129.323 282.024L130.985 281.899C130.803 282.81 130.361 283.577 129.658 284.198C128.954 284.808 128.048 285.155 126.941 285.239C126.059 285.305 125.253 285.167 124.523 284.825C123.803 284.481 123.219 283.963 122.768 283.269C122.317 282.565 122.056 281.732 121.983 280.771C121.911 279.811 122.039 278.954 122.369 278.202C122.698 277.45 123.193 276.855 123.854 276.419C124.524 275.971 125.312 275.712 126.216 275.644C127.097 275.577 127.892 275.711 128.599 276.044C129.306 276.377 129.866 276.869 130.279 277.519C130.702 278.158 130.946 278.901 131.01 279.749ZM129.392 279.547C129.348 278.959 129.18 278.466 128.888 278.068C128.596 277.658 128.215 277.363 127.747 277.182C127.289 276.989 126.789 276.913 126.247 276.954C125.467 277.013 124.819 277.312 124.303 277.851C123.798 278.39 123.539 279.102 123.527 279.99L129.392 279.547ZM132.495 279.977C132.423 279.017 132.552 278.166 132.882 277.425C133.212 276.673 133.701 276.073 134.349 275.626C135.008 275.179 135.779 274.922 136.66 274.855C137.802 274.769 138.761 274.975 139.537 275.473C140.325 275.971 140.874 276.702 141.186 277.667L139.525 277.793C139.324 277.24 138.979 276.817 138.491 276.524C138.014 276.23 137.437 276.109 136.759 276.16C135.877 276.227 135.188 276.586 134.692 277.237C134.195 277.877 133.988 278.751 134.072 279.858C134.156 280.977 134.493 281.821 135.081 282.39C135.67 282.96 136.405 283.211 137.286 283.145C137.964 283.093 138.517 282.892 138.946 282.542C139.374 282.191 139.65 281.716 139.776 281.115L141.437 280.99C141.26 281.958 140.82 282.758 140.118 283.391C139.415 284.012 138.504 284.365 137.385 284.45C136.503 284.516 135.703 284.378 134.984 284.034C134.276 283.69 133.702 283.171 133.264 282.477C132.825 281.782 132.569 280.949 132.495 279.977ZM147.617 274.011C148.318 273.958 148.962 274.062 149.55 274.325C150.137 274.576 150.612 274.989 150.973 275.564C151.346 276.138 151.565 276.855 151.63 277.714L152.044 283.189L150.518 283.304L150.121 278.049C150.051 277.123 149.766 276.434 149.266 275.983C148.765 275.521 148.114 275.32 147.311 275.38C146.498 275.442 145.867 275.745 145.419 276.291C144.983 276.835 144.802 277.593 144.875 278.565L145.263 283.701L143.72 283.818L142.773 271.274L144.316 271.157L144.661 275.734C144.931 275.236 145.321 274.837 145.833 274.537C146.355 274.237 146.95 274.061 147.617 274.011ZM153.634 278.364C153.562 277.414 153.692 276.569 154.022 275.828C154.352 275.076 154.835 274.477 155.472 274.031C156.12 273.584 156.857 273.33 157.682 273.267C158.495 273.206 159.215 273.328 159.84 273.633C160.466 273.938 160.945 274.345 161.279 274.854L161.151 273.159L162.711 273.041L163.412 282.331L161.853 282.448L161.722 280.719C161.458 281.285 161.035 281.771 160.452 282.179C159.879 282.575 159.192 282.803 158.389 282.863C157.564 282.926 156.803 282.779 156.106 282.422C155.408 282.066 154.839 281.535 154.4 280.829C153.96 280.124 153.705 279.302 153.634 278.364ZM161.501 277.787C161.448 277.086 161.26 276.486 160.939 275.988C160.617 275.489 160.203 275.123 159.696 274.888C159.2 274.642 158.664 274.54 158.088 274.584C157.511 274.627 156.996 274.802 156.542 275.109C156.088 275.417 155.739 275.841 155.496 276.382C155.253 276.923 155.157 277.544 155.21 278.245C155.264 278.957 155.452 279.568 155.775 280.077C156.097 280.576 156.506 280.948 157.002 281.195C157.497 281.431 158.033 281.526 158.609 281.483C159.185 281.439 159.701 281.264 160.155 280.957C160.619 280.638 160.973 280.208 161.217 279.666C161.459 279.114 161.554 278.487 161.501 277.787ZM169.831 272.333C170.961 272.247 171.902 272.523 172.655 273.159C173.407 273.785 173.832 274.741 173.929 276.03L174.343 281.505L172.817 281.62L172.42 276.365C172.35 275.439 172.065 274.75 171.565 274.299C171.064 273.837 170.412 273.636 169.61 273.696C168.796 273.758 168.166 274.061 167.718 274.606C167.282 275.151 167.101 275.909 167.174 276.881L167.562 282.017L166.019 282.134L165.318 272.844L166.86 272.728L166.96 274.05C167.229 273.552 167.614 273.154 168.114 272.855C168.626 272.554 169.198 272.381 169.831 272.333ZM176.844 270.456C176.55 270.478 176.293 270.396 176.075 270.207C175.856 270.019 175.735 269.778 175.713 269.485C175.691 269.191 175.774 268.935 175.962 268.716C176.15 268.497 176.391 268.376 176.685 268.354C176.967 268.333 177.212 268.417 177.42 268.606C177.639 268.794 177.759 269.035 177.781 269.328C177.803 269.622 177.721 269.879 177.532 270.097C177.356 270.315 177.126 270.435 176.844 270.456ZM177.703 271.909L178.405 281.198L176.862 281.315L176.161 272.025L177.703 271.909ZM180.106 276.381C180.033 275.421 180.162 274.57 180.493 273.829C180.822 273.077 181.311 272.477 181.959 272.03C182.619 271.583 183.389 271.326 184.271 271.259C185.412 271.173 186.371 271.379 187.147 271.877C187.935 272.375 188.485 273.106 188.796 274.071L187.135 274.197C186.934 273.644 186.59 273.221 186.102 272.928C185.625 272.634 185.047 272.513 184.369 272.564C183.488 272.631 182.799 272.99 182.303 273.641C181.805 274.281 181.599 275.155 181.682 276.262C181.767 277.381 182.103 278.225 182.692 278.795C183.28 279.364 184.015 279.615 184.897 279.549C185.575 279.497 186.128 279.296 186.556 278.946C186.984 278.595 187.261 278.12 187.386 277.519L189.047 277.394C188.87 278.362 188.431 279.162 187.728 279.795C187.025 280.416 186.114 280.769 184.995 280.854C184.114 280.92 183.314 280.782 182.594 280.439C181.886 280.094 181.313 279.575 180.874 278.881C180.435 278.186 180.179 277.353 180.106 276.381ZM194.631 280.126C193.919 280.18 193.272 280.109 192.689 279.915C192.105 279.709 191.633 279.404 191.273 278.999C190.912 278.583 190.693 278.094 190.616 277.531L192.21 277.411C192.29 277.871 192.533 278.233 192.94 278.498C193.357 278.762 193.883 278.87 194.516 278.822C195.103 278.778 195.557 278.613 195.876 278.327C196.196 278.042 196.34 277.701 196.31 277.306C196.28 276.899 196.076 276.613 195.7 276.448C195.323 276.272 194.749 276.117 193.977 275.982C193.274 275.853 192.695 275.715 192.241 275.567C191.797 275.407 191.403 275.159 191.059 274.821C190.726 274.471 190.537 273.997 190.492 273.398C190.456 272.923 190.564 272.477 190.817 272.06C191.069 271.644 191.447 271.303 191.95 271.037C192.452 270.761 193.036 270.597 193.703 270.547C194.731 270.469 195.582 270.666 196.254 271.138C196.926 271.61 197.319 272.297 197.432 273.197L195.89 273.314C195.819 272.831 195.592 272.456 195.208 272.189C194.835 271.922 194.35 271.811 193.751 271.856C193.197 271.898 192.765 272.05 192.455 272.312C192.146 272.574 192.005 272.897 192.034 273.281C192.057 273.586 192.173 273.833 192.38 274.022C192.598 274.199 192.859 274.339 193.162 274.441C193.475 274.531 193.903 274.629 194.446 274.736C195.126 274.866 195.682 275.006 196.114 275.155C196.545 275.293 196.921 275.526 197.241 275.854C197.572 276.182 197.765 276.627 197.819 277.192C197.858 277.7 197.751 278.169 197.499 278.597C197.247 279.025 196.87 279.377 196.368 279.654C195.877 279.918 195.298 280.076 194.631 280.126ZM203.778 274.593C203.706 273.633 203.835 272.782 204.165 272.041C204.495 271.289 204.984 270.689 205.632 270.243C206.292 269.795 207.062 269.538 207.944 269.471C209.085 269.385 210.044 269.591 210.82 270.089C211.608 270.587 212.158 271.318 212.469 272.283L210.808 272.409C210.607 271.856 210.263 271.433 209.774 271.14C209.298 270.847 208.72 270.725 208.042 270.777C207.161 270.843 206.472 271.202 205.975 271.853C205.478 272.493 205.271 273.367 205.355 274.474C205.439 275.593 205.776 276.437 206.365 277.007C206.953 277.576 207.688 277.827 208.57 277.761C209.248 277.709 209.801 277.509 210.229 277.158C210.657 276.807 210.934 276.332 211.059 275.731L212.72 275.606C212.543 276.574 212.104 277.374 211.401 278.007C210.698 278.628 209.787 278.981 208.668 279.066C207.787 279.132 206.986 278.994 206.267 278.651C205.559 278.306 204.986 277.787 204.547 277.093C204.108 276.398 203.852 275.565 203.778 274.593ZM219.067 278.281C218.197 278.346 217.391 278.208 216.649 277.866C215.918 277.524 215.322 277.006 214.861 276.314C214.41 275.609 214.148 274.776 214.075 273.816C214.004 272.866 214.144 272.015 214.496 271.261C214.859 270.495 215.382 269.893 216.065 269.455C216.747 269.005 217.528 268.747 218.41 268.681C219.291 268.614 220.103 268.752 220.845 269.094C221.586 269.424 222.187 269.935 222.649 270.628C223.121 271.32 223.394 272.146 223.467 273.106C223.539 274.067 223.388 274.931 223.014 275.698C222.651 276.453 222.122 277.055 221.429 277.505C220.736 277.956 219.948 278.214 219.067 278.281ZM218.964 276.924C219.518 276.883 220.028 276.713 220.494 276.417C220.961 276.12 221.321 275.701 221.576 275.159C221.842 274.616 221.946 273.971 221.89 273.226C221.834 272.48 221.639 271.858 221.306 271.36C220.973 270.863 220.56 270.507 220.066 270.295C219.572 270.071 219.048 269.979 218.494 270.021C217.929 270.064 217.419 270.233 216.964 270.529C216.519 270.813 216.175 271.225 215.932 271.766C215.689 272.307 215.595 272.951 215.652 273.697C215.709 274.454 215.893 275.082 216.203 275.582C216.525 276.08 216.928 276.442 217.411 276.667C217.893 276.88 218.411 276.966 218.964 276.924ZM229.659 267.814C230.789 267.729 231.73 268.004 232.483 268.641C233.235 269.266 233.659 270.223 233.757 271.511L234.17 276.986L232.645 277.102L232.248 271.847C232.178 270.92 231.893 270.231 231.393 269.78C230.892 269.318 230.24 269.117 229.438 269.178C228.624 269.239 227.993 269.542 227.546 270.088C227.11 270.632 226.928 271.39 227.002 272.362L227.39 277.498L225.847 277.615L225.145 268.325L226.688 268.209L226.788 269.531C227.057 269.033 227.442 268.635 227.942 268.336C228.454 268.036 229.026 267.862 229.659 267.814ZM239.99 276.7C239.278 276.754 238.631 276.684 238.048 276.489C237.464 276.283 236.992 275.978 236.632 275.573C236.271 275.157 236.052 274.668 235.975 274.105L237.569 273.985C237.649 274.445 237.892 274.807 238.299 275.072C238.717 275.336 239.242 275.444 239.875 275.396C240.462 275.352 240.916 275.187 241.235 274.901C241.555 274.616 241.699 274.275 241.67 273.88C241.639 273.473 241.435 273.187 241.059 273.022C240.682 272.846 240.108 272.691 239.336 272.556C238.633 272.427 238.054 272.289 237.6 272.141C237.156 271.982 236.762 271.733 236.419 271.395C236.085 271.045 235.896 270.571 235.851 269.972C235.815 269.497 235.923 269.051 236.176 268.635C236.429 268.218 236.806 267.877 237.309 267.611C237.811 267.335 238.395 267.171 239.062 267.121C240.091 267.043 240.941 267.24 241.613 267.712C242.285 268.185 242.678 268.871 242.791 269.772L241.249 269.888C241.178 269.405 240.951 269.03 240.567 268.763C240.195 268.496 239.709 268.385 239.11 268.43C238.556 268.472 238.124 268.624 237.814 268.886C237.505 269.148 237.364 269.471 237.393 269.855C237.416 270.16 237.532 270.408 237.739 270.596C237.957 270.773 238.218 270.913 238.521 271.015C238.835 271.105 239.262 271.203 239.805 271.31C240.485 271.44 241.041 271.58 241.473 271.729C241.904 271.867 242.28 272.1 242.6 272.429C242.931 272.756 243.124 273.202 243.178 273.766C243.217 274.274 243.11 274.743 242.858 275.171C242.606 275.599 242.23 275.951 241.728 276.228C241.236 276.492 240.657 276.65 239.99 276.7ZM253.084 266.215L253.785 275.505L252.243 275.621L252.139 274.248C251.881 274.745 251.497 275.149 250.986 275.461C250.486 275.76 249.919 275.933 249.286 275.981C248.563 276.036 247.902 275.938 247.304 275.688C246.704 275.426 246.212 275.008 245.828 274.435C245.455 273.861 245.236 273.144 245.171 272.285L244.76 266.844L246.286 266.729L246.682 271.967C246.751 272.882 247.036 273.571 247.537 274.033C248.037 274.484 248.688 274.679 249.49 274.619C250.315 274.557 250.946 274.253 251.382 273.709C251.818 273.164 252 272.406 251.926 271.434L251.541 266.332L253.084 266.215ZM256.985 262.647L257.932 275.192L256.39 275.308L255.442 262.764L256.985 262.647ZM261.838 266.833L262.251 272.308C262.285 272.76 262.406 273.075 262.612 273.253C262.818 273.419 263.158 273.484 263.633 273.448L264.769 273.363L264.867 274.668L263.477 274.773C262.618 274.838 261.959 274.689 261.5 274.325C261.041 273.962 260.777 273.329 260.708 272.425L260.295 266.949L259.091 267.04L258.995 265.769L260.199 265.678L260.022 263.339L261.565 263.222L261.742 265.561L264.166 265.378L264.262 266.65L261.838 266.833ZM265.807 269.892C265.735 268.942 265.864 268.097 266.195 267.356C266.524 266.604 267.008 266.005 267.644 265.559C268.293 265.112 269.029 264.858 269.854 264.795C270.668 264.734 271.387 264.856 272.013 265.161C272.638 265.466 273.118 265.873 273.452 266.382L273.324 264.687L274.883 264.569L275.585 273.858L274.026 273.976L273.895 272.247C273.631 272.813 273.207 273.299 272.624 273.707C272.052 274.102 271.364 274.331 270.562 274.391C269.737 274.453 268.976 274.306 268.278 273.95C267.581 273.593 267.012 273.062 266.572 272.357C266.133 271.651 265.877 270.83 265.807 269.892ZM273.673 269.314C273.621 268.614 273.433 268.014 273.111 267.516C272.79 267.017 272.375 266.651 271.869 266.416C271.373 266.169 270.837 266.068 270.261 266.111C269.684 266.155 269.169 266.33 268.715 266.637C268.261 266.944 267.912 267.368 267.669 267.91C267.425 268.451 267.33 269.072 267.383 269.772C267.437 270.484 267.625 271.095 267.948 271.605C268.27 272.104 268.678 272.476 269.174 272.723C269.67 272.958 270.205 273.054 270.782 273.011C271.358 272.967 271.873 272.792 272.327 272.485C272.792 272.166 273.146 271.735 273.389 271.194C273.632 270.642 273.726 270.015 273.673 269.314ZM279.468 265.501L279.882 270.977C279.916 271.429 280.036 271.743 280.243 271.921C280.448 272.087 280.789 272.153 281.263 272.117L282.399 272.031L282.498 273.336L281.108 273.441C280.249 273.506 279.59 273.357 279.13 272.994C278.671 272.631 278.407 271.997 278.339 271.093L277.925 265.618L276.722 265.709L276.626 264.437L277.829 264.346L277.653 262.007L279.195 261.89L279.372 264.23L281.796 264.047L281.892 265.318L279.468 265.501ZM284.348 262.337C284.054 262.359 283.798 262.276 283.579 262.088C283.36 261.9 283.24 261.659 283.218 261.365C283.195 261.071 283.278 260.815 283.466 260.596C283.654 260.377 283.895 260.257 284.189 260.235C284.472 260.213 284.717 260.297 284.924 260.486C285.143 260.674 285.263 260.915 285.286 261.209C285.308 261.503 285.225 261.759 285.037 261.978C284.86 262.196 284.63 262.315 284.348 262.337ZM285.208 263.789L285.909 273.079L284.367 273.195L283.665 263.906L285.208 263.789ZM292.601 272.727C291.731 272.792 290.925 272.654 290.183 272.313C289.453 271.97 288.857 271.452 288.395 270.76C287.944 270.055 287.683 269.222 287.61 268.262C287.538 267.313 287.679 266.461 288.031 265.707C288.393 264.941 288.916 264.339 289.599 263.901C290.281 263.451 291.063 263.193 291.945 263.127C292.826 263.06 293.638 263.198 294.38 263.54C295.121 263.87 295.722 264.382 296.183 265.074C296.656 265.766 296.929 266.592 297.001 267.553C297.074 268.513 296.923 269.377 296.549 270.144C296.186 270.899 295.657 271.501 294.964 271.951C294.27 272.402 293.483 272.66 292.601 272.727ZM292.499 271.37C293.053 271.329 293.563 271.159 294.029 270.863C294.495 270.566 294.856 270.147 295.11 269.605C295.376 269.062 295.481 268.417 295.425 267.672C295.368 266.926 295.174 266.304 294.841 265.806C294.508 265.309 294.094 264.953 293.601 264.741C293.107 264.517 292.583 264.425 292.029 264.467C291.464 264.51 290.954 264.679 290.499 264.975C290.054 265.259 289.71 265.671 289.467 266.212C289.224 266.753 289.13 267.397 289.187 268.143C289.244 268.9 289.428 269.528 289.738 270.028C290.06 270.526 290.462 270.888 290.945 271.113C291.427 271.326 291.945 271.412 292.499 271.37ZM303.193 262.26C304.323 262.175 305.265 262.45 306.018 263.087C306.769 263.712 307.194 264.669 307.291 265.957L307.705 271.432L306.179 271.548L305.782 266.293C305.712 265.366 305.427 264.677 304.927 264.226C304.426 263.764 303.775 263.563 302.972 263.624C302.159 263.685 301.528 263.988 301.081 264.534C300.644 265.078 300.463 265.836 300.536 266.808L300.924 271.945L299.382 272.061L298.68 262.772L300.223 262.655L300.322 263.977C300.592 263.48 300.976 263.081 301.477 262.782C301.988 262.482 302.56 262.308 303.193 262.26Z" fill="#232323"/>
<rect x="478.246" y="342.876" width="89.8049" height="38.4951" rx="19.2475" transform="rotate(-31.7505 478.246 342.876)" stroke="#232323" strokeWidth="2.18722"/>
<path d="M515.008 343.92C515.163 344.17 515.313 344.444 515.457 344.742L509.125 348.66C509.656 349.411 510.3 349.859 511.056 350.004C511.816 350.133 512.543 349.983 513.237 349.554C513.805 349.202 514.197 348.78 514.412 348.287C514.63 347.778 514.68 347.255 514.559 346.716L515.976 345.839C516.235 346.732 516.196 347.616 515.858 348.491C515.514 349.357 514.87 350.082 513.926 350.667C513.174 351.132 512.395 351.381 511.589 351.413C510.792 351.44 510.034 351.249 509.315 350.841C508.59 350.423 507.974 349.805 507.467 348.986C506.961 348.167 506.68 347.347 506.626 346.528C506.572 345.708 506.738 344.953 507.123 344.261C507.511 343.554 508.091 342.962 508.862 342.485C509.614 342.02 510.38 341.772 511.161 341.742C511.942 341.712 512.666 341.89 513.332 342.278C514.002 342.65 514.561 343.197 515.008 343.92ZM513.479 344.486C513.169 343.985 512.793 343.624 512.351 343.405C511.902 343.176 511.429 343.089 510.93 343.145C510.435 343.184 509.956 343.348 509.493 343.634C508.828 344.045 508.391 344.609 508.181 345.325C507.981 346.036 508.08 346.788 508.477 347.581L513.479 344.486ZM523.918 333.148C524.535 332.766 525.165 332.556 525.808 332.518C526.445 332.471 527.061 332.616 527.656 332.954C528.252 333.292 528.776 333.827 529.23 334.559L532.119 339.228L530.818 340.033L528.045 335.552C527.556 334.762 526.985 334.282 526.334 334.112C525.686 333.926 525.03 334.039 524.365 334.451C523.68 334.874 523.273 335.433 523.143 336.127C523.006 336.811 523.194 337.567 523.707 338.396L526.409 342.762L525.108 343.567L522.335 339.086C521.846 338.295 521.275 337.815 520.624 337.645C519.976 337.46 519.319 337.573 518.655 337.985C517.97 338.408 517.563 338.967 517.433 339.66C517.296 340.345 517.484 341.101 517.997 341.93L520.699 346.295L519.383 347.11L514.481 339.188L515.797 338.374L516.503 339.516C516.507 338.94 516.657 338.408 516.954 337.917C517.26 337.421 517.678 337.009 518.208 336.681C518.873 336.27 519.553 336.056 520.249 336.038C520.945 336.021 521.597 336.224 522.205 336.647C522.081 335.951 522.179 335.291 522.499 334.666C522.818 334.042 523.292 333.536 523.918 333.148ZM531.316 334.207C530.815 333.398 530.541 332.588 530.493 331.778C530.439 330.959 530.592 330.204 530.952 329.515C531.321 328.82 531.858 328.255 532.561 327.819C533.255 327.39 533.95 327.167 534.645 327.149C535.341 327.132 535.954 327.272 536.485 327.57L535.591 326.124L536.921 325.301L541.823 333.223L540.493 334.046L539.58 332.572C539.607 333.195 539.455 333.822 539.125 334.453C538.799 335.068 538.294 335.587 537.61 336.01C536.906 336.446 536.163 336.666 535.38 336.671C534.596 336.676 533.847 336.466 533.132 336.043C532.417 335.619 531.811 335.007 531.316 334.207ZM538.033 330.071C537.663 329.473 537.221 329.028 536.705 328.733C536.19 328.439 535.654 328.305 535.096 328.33C534.542 328.339 534.02 328.496 533.528 328.8C533.037 329.104 532.66 329.497 532.398 329.979C532.137 330.461 532.023 330.998 532.056 331.59C532.089 332.183 532.291 332.778 532.661 333.375C533.037 333.982 533.485 334.438 534.006 334.742C534.521 335.036 535.056 335.178 535.61 335.169C536.158 335.15 536.678 334.988 537.169 334.684C537.661 334.38 538.037 333.987 538.299 333.505C538.564 333.008 538.68 332.463 538.647 331.87C538.607 331.268 538.403 330.668 538.033 330.071ZM539.027 322.219C538.776 322.374 538.511 322.418 538.23 322.352C537.949 322.286 537.731 322.128 537.576 321.877C537.421 321.627 537.376 321.361 537.443 321.08C537.509 320.799 537.667 320.581 537.918 320.426C538.159 320.277 538.415 320.239 538.686 320.311C538.967 320.377 539.185 320.535 539.34 320.786C539.495 321.036 539.539 321.302 539.473 321.583C539.417 321.858 539.268 322.07 539.027 322.219ZM540.459 323.112L545.361 331.034L544.046 331.848L539.144 323.926L540.459 323.112ZM542.299 318.135L548.919 328.832L547.603 329.646L540.984 318.949L542.299 318.135Z" fill="#232323"/>
<rect x="36.3453" y="180.588" width="197.29" height="38.4951" rx="19.2475" transform="rotate(62.4494 36.3453 180.588)" stroke="#023E6A" strokeWidth="2.18722"/>
<path d="M39.3336 215.284C39.9312 216.429 40.2315 217.532 40.2345 218.591C40.2528 219.655 39.9804 220.616 39.4172 221.472C38.8593 222.338 38.0427 223.052 36.9676 223.613C35.8924 224.174 34.84 224.435 33.8103 224.397C32.7959 224.364 31.8575 224.035 30.9952 223.411C30.1481 222.792 29.4258 221.91 28.8282 220.764L27.1219 217.494L37.6273 212.013L39.3336 215.284ZM29.9586 220.175C30.6663 221.531 31.5629 222.38 32.6485 222.721C33.7442 223.057 34.9401 222.887 36.2363 222.211C37.5426 221.529 38.3738 220.636 38.7299 219.53C39.0912 218.433 38.9206 217.212 38.2182 215.866L37.2275 213.967L28.9679 218.276L29.9586 220.175ZM42.6519 223.85C42.5156 223.589 42.4907 223.32 42.5772 223.045C42.6638 222.77 42.8376 222.564 43.0989 222.428C43.3601 222.292 43.6284 222.267 43.9036 222.353C44.1788 222.44 44.3846 222.614 44.5209 222.875C44.6519 223.126 44.6716 223.384 44.5798 223.649C44.4933 223.925 44.3194 224.13 44.0582 224.267C43.7969 224.403 43.5287 224.428 43.2535 224.341C42.9835 224.265 42.783 224.101 42.6519 223.85ZM41.6565 225.213L33.3969 229.522L32.6813 228.15L40.9409 223.841L41.6565 225.213ZM45.1261 231.496C45.6503 232.501 45.7685 233.475 45.4805 234.418C45.2026 235.355 44.491 236.123 43.3455 236.72L38.4771 239.26L37.7694 237.903L42.4418 235.466C43.2658 235.036 43.7863 234.502 44.0035 233.865C44.2307 233.222 44.1582 232.544 43.786 231.831C43.4086 231.108 42.8811 230.648 42.2035 230.452C41.5312 230.265 40.7629 230.398 39.8988 230.849L35.3319 233.231L34.6164 231.859L42.876 227.551L43.5915 228.922L42.4159 229.535C42.9794 229.587 43.4973 229.783 43.9696 230.125C44.447 230.476 44.8326 230.933 45.1261 231.496ZM50.1557 241.137C50.6799 242.142 50.798 243.116 50.5101 244.058C50.2322 244.996 49.5205 245.764 48.375 246.361L43.5067 248.901L42.799 247.544L47.4714 245.107C48.2954 244.677 48.8159 244.143 49.0331 243.506C49.2603 242.863 49.1878 242.185 48.8156 241.472C48.4382 240.748 47.9107 240.289 47.2331 240.092C46.5608 239.906 45.7925 240.039 44.9284 240.489L40.3615 242.872L39.6459 241.5L47.9055 237.191L48.6211 238.563L47.4454 239.176C48.009 239.227 48.5269 239.424 48.9991 239.766C49.4766 240.117 49.8621 240.574 50.1557 241.137ZM53.0534 256.358C52.7921 256.494 52.5079 256.623 52.2008 256.745L48.7568 250.143C47.9691 250.618 47.4752 251.228 47.2751 251.971C47.0902 252.719 47.1865 253.455 47.564 254.179C47.8733 254.772 48.2658 255.193 48.7415 255.444C49.2325 255.699 49.7511 255.786 50.2972 255.706L51.0678 257.183C50.1586 257.376 49.2799 257.272 48.4315 256.871C47.5932 256.464 46.9171 255.769 46.4034 254.784C45.9945 254 45.8034 253.205 45.8301 252.399C45.862 251.602 46.1078 250.861 46.5674 250.174C47.0371 249.481 47.699 248.912 48.553 248.467C49.4071 248.021 50.2448 247.801 51.0662 247.807C51.8875 247.814 52.6288 248.034 53.2902 248.469C53.9669 248.908 54.5149 249.53 54.9343 250.334C55.3432 251.118 55.5341 251.9 55.5069 252.681C55.4798 253.462 55.2487 254.171 54.8136 254.807C54.3937 255.448 53.807 255.965 53.0534 256.358ZM52.6006 254.792C53.1231 254.519 53.51 254.17 53.7612 253.745C54.0224 253.315 54.1437 252.849 54.1249 252.347C54.1215 251.851 53.9939 251.361 53.7423 250.879C53.3806 250.186 52.8503 249.708 52.1513 249.446C51.4575 249.195 50.7004 249.238 49.88 249.577L52.6006 254.792ZM57.1852 258.25C57.7833 258.245 58.3283 258.395 58.8202 258.701C59.3173 259.017 59.7336 259.497 60.0691 260.14L58.6523 260.879L58.4636 260.517C57.6616 258.98 56.4266 258.646 54.7586 259.516L50.2671 261.859L49.5515 260.488L57.8111 256.179L58.5267 257.551L57.1852 258.25ZM68.5807 276.823L58.9765 278.554L58.2374 277.137L63.7559 271.727L56.1616 273.158L55.4224 271.742L62.3296 264.84L63.0609 266.242L57.1184 271.758L65.121 270.191L65.8522 271.593L59.9497 277.222L67.873 275.466L68.5807 276.823ZM71.0018 278.192C70.8655 277.931 70.8406 277.663 70.9271 277.388C71.0137 277.113 71.1875 276.907 71.4488 276.77C71.71 276.634 71.9783 276.609 72.2535 276.696C72.5287 276.782 72.7345 276.956 72.8708 277.217C73.0018 277.469 73.0215 277.727 72.9297 277.992C72.8432 278.267 72.6693 278.473 72.4081 278.609C72.1468 278.746 71.8786 278.77 71.6034 278.684C71.3334 278.607 71.1329 278.444 71.0018 278.192ZM70.0064 279.555L61.7468 283.864L61.0312 282.493L69.2908 278.184L70.0064 279.555ZM70.9682 284.156L66.0999 286.696C65.698 286.905 65.4562 287.14 65.3745 287.4C65.3028 287.655 65.3771 287.993 65.5972 288.415L66.124 289.425L64.9635 290.03L64.3187 288.794C63.9203 288.031 63.7974 287.366 63.9499 286.801C64.1024 286.236 64.5805 285.743 65.3844 285.324L70.2527 282.784L69.6944 281.714L70.8249 281.124L71.3831 282.194L73.4631 281.109L74.1786 282.481L72.0987 283.566L73.2231 285.721L72.0927 286.311L70.9682 284.156ZM76.3795 291.404C76.7045 292.027 76.8624 292.661 76.8532 293.305C76.8541 293.943 76.6616 294.542 76.2758 295.101C75.8953 295.671 75.3232 296.154 74.5595 296.553L69.6912 299.093L68.9835 297.736L73.6559 295.299C74.4799 294.869 75.0004 294.335 75.2176 293.698C75.4448 293.055 75.3723 292.377 75.0001 291.664C74.6227 290.94 74.0952 290.48 73.4176 290.284C72.7453 290.098 71.977 290.23 71.1129 290.681L66.546 293.064L65.8304 291.692L76.9839 285.874L77.6994 287.245L73.6299 289.368C74.1935 289.419 74.714 289.621 75.1915 289.972C75.6742 290.334 76.0702 290.811 76.3795 291.404ZM85.168 303.142C85.7655 304.287 86.0658 305.389 86.0689 306.449C86.0872 307.513 85.8147 308.473 85.2516 309.33C84.6937 310.196 83.8771 310.909 82.802 311.47C81.7268 312.031 80.6744 312.293 79.6447 312.255C78.6303 312.221 77.6919 311.893 76.8296 311.269C75.9825 310.65 75.2602 309.768 74.6626 308.622L72.9563 305.351L83.4617 299.871L85.168 303.142ZM75.793 308.032C76.5007 309.389 77.3973 310.238 78.4829 310.579C79.5786 310.915 80.7745 310.745 82.0707 310.069C83.377 309.387 84.2082 308.493 84.5643 307.387C84.9256 306.291 84.755 305.07 84.0526 303.723L83.0619 301.824L74.8023 306.133L75.793 308.032ZM82.4083 313.325C83.2524 312.885 84.08 312.671 84.8913 312.682C85.7126 312.688 86.4537 312.896 87.1147 313.305C87.7809 313.725 88.3053 314.301 88.688 315.035C89.0654 315.758 89.2373 316.467 89.2036 317.162C89.17 317.857 88.9852 318.459 88.6492 318.966L90.1564 318.18L90.8798 319.567L82.6202 323.876L81.8968 322.489L83.4342 321.687C82.8103 321.667 82.1961 321.47 81.5915 321.095C81.0022 320.725 80.5214 320.183 80.1493 319.47C79.7666 318.736 79.6015 317.979 79.6539 317.197C79.7064 316.416 79.9701 315.684 80.445 315.001C80.9199 314.319 81.5743 313.76 82.4083 313.325ZM86.0417 320.327C86.6647 320.002 87.1418 319.593 87.4729 319.101C87.8041 318.608 87.9775 318.083 87.9933 317.525C88.0243 316.972 87.9062 316.44 87.6388 315.927C87.3715 315.415 87.0072 315.01 86.5458 314.714C86.0845 314.418 85.5572 314.265 84.964 314.255C84.3707 314.245 83.7626 314.402 83.1396 314.727C82.5065 315.057 82.0194 315.471 81.6782 315.969C81.347 316.461 81.1659 316.984 81.1349 317.537C81.1139 318.085 81.2371 318.615 81.5044 319.127C81.7718 319.64 82.1361 320.044 82.5974 320.34C83.074 320.641 83.609 320.797 84.2022 320.807C84.8056 320.812 85.4187 320.652 86.0417 320.327ZM86.6995 328.608L95.0298 327.522L95.7925 328.984L85.8423 330.052L85.0089 328.454L91.5779 320.905L92.3485 322.382L86.6995 328.608ZM96.6148 339.859C96.3536 339.995 96.0694 340.124 95.7623 340.246L92.3183 333.644C91.5306 334.119 91.0367 334.728 90.8366 335.472C90.6517 336.22 90.748 336.956 91.1255 337.68C91.4347 338.272 91.8272 338.694 92.303 338.944C92.794 339.2 93.3126 339.287 93.8587 339.207L94.6292 340.684C93.7201 340.877 92.8414 340.773 91.993 340.372C91.1546 339.965 90.4786 339.27 89.9649 338.285C89.556 337.501 89.3649 336.706 89.3916 335.9C89.4235 335.103 89.6693 334.362 90.1289 333.674C90.5986 332.982 91.2604 332.413 92.1145 331.967C92.9686 331.522 93.8063 331.302 94.6276 331.308C95.449 331.314 96.1903 331.535 96.8517 331.97C97.5284 332.409 98.0764 333.031 98.4958 333.835C98.9047 334.618 99.0955 335.401 99.0684 336.182C99.0413 336.963 98.8102 337.672 98.375 338.308C97.9552 338.949 97.3684 339.466 96.6148 339.859ZM96.1621 338.293C96.6846 338.02 97.0714 337.671 97.3227 337.246C97.5839 336.816 97.7052 336.35 97.6864 335.848C97.6829 335.352 97.5554 334.862 97.3038 334.38C96.9421 333.686 96.4117 333.209 95.7128 332.947C95.019 332.696 94.2619 332.739 93.4415 333.078L96.1621 338.293Z" fill="#232323"/>
<rect x="345.16" y="231.658" width="178.494" height="38.4951" rx="19.2475" transform="rotate(42.2335 345.16 231.658)" stroke="#EB0001" strokeWidth="2.18722"/>
<path d="M353.365 257.203C354.321 258.071 354.984 259.002 355.353 259.995C355.738 260.987 355.814 261.982 355.581 262.981C355.357 263.986 354.838 264.938 354.023 265.836C353.207 266.734 352.31 267.343 351.331 267.663C350.367 267.982 349.373 267.998 348.348 267.711C347.34 267.423 346.357 266.844 345.4 265.976L342.669 263.496L350.633 254.723L353.365 257.203ZM346.257 265.032C347.39 266.06 348.525 266.547 349.662 266.492C350.806 266.429 351.869 265.856 352.852 264.773C353.842 263.682 354.313 262.556 354.265 261.395C354.226 260.242 353.644 259.155 352.519 258.134L350.933 256.694L344.671 263.592L346.257 265.032ZM359.439 264.094C359.221 263.896 359.104 263.653 359.091 263.365C359.077 263.077 359.169 262.824 359.367 262.605C359.565 262.387 359.808 262.271 360.096 262.257C360.384 262.243 360.637 262.335 360.856 262.534C361.065 262.724 361.173 262.959 361.179 263.24C361.192 263.528 361.1 263.781 360.902 263.999C360.704 264.218 360.461 264.334 360.173 264.348C359.893 264.369 359.648 264.285 359.439 264.094ZM358.976 265.717L352.714 272.615L351.568 271.575L357.83 264.677L358.976 265.717ZM357.392 270.525C358.032 269.82 358.734 269.333 359.499 269.063C360.272 268.785 361.039 268.724 361.801 268.879C362.571 269.043 363.263 269.403 363.875 269.959C364.479 270.507 364.886 271.113 365.094 271.777C365.303 272.441 365.337 273.069 365.197 273.662L366.34 272.403L367.498 273.454L361.236 280.352L360.078 279.301L361.244 278.017C360.652 278.214 360.007 278.241 359.31 278.098C358.629 277.955 357.991 277.612 357.395 277.071C356.783 276.515 356.366 275.862 356.145 275.11C355.924 274.358 355.919 273.58 356.129 272.776C356.338 271.972 356.759 271.221 357.392 270.525ZM363.221 275.839C363.693 275.319 363.999 274.771 364.14 274.194C364.281 273.618 364.262 273.065 364.084 272.536C363.922 272.006 363.627 271.547 363.199 271.159C362.771 270.77 362.289 270.517 361.754 270.398C361.219 270.28 360.671 270.318 360.111 270.514C359.551 270.709 359.035 271.067 358.562 271.587C358.082 272.116 357.768 272.673 357.62 273.258C357.479 273.834 357.49 274.387 357.652 274.917C357.822 275.438 358.12 275.893 358.548 276.282C358.976 276.67 359.458 276.924 359.993 277.042C360.545 277.16 361.1 277.121 361.66 276.926C362.228 276.722 362.748 276.359 363.221 275.839ZM372.381 277.681C372.977 278.221 373.379 278.824 373.588 279.488C373.805 280.159 373.843 280.791 373.704 281.384L374.846 280.125L376.004 281.176L369.605 288.225C369.034 288.854 368.393 289.29 367.683 289.533C366.965 289.785 366.228 289.82 365.473 289.64C364.727 289.467 364.022 289.08 363.359 288.478C362.453 287.656 361.892 286.756 361.677 285.78C361.461 284.803 361.634 283.896 362.195 283.059L363.328 284.087C363.073 284.621 363.028 285.193 363.194 285.803C363.352 286.421 363.708 286.981 364.262 287.484C364.891 288.055 365.582 288.323 366.335 288.287C367.096 288.258 367.8 287.887 368.447 287.174L369.761 285.726C369.169 285.923 368.529 285.954 367.84 285.819C367.152 285.684 366.51 285.346 365.914 284.805C365.301 284.249 364.88 283.591 364.651 282.832C364.43 282.08 364.425 281.302 364.635 280.498C364.844 279.693 365.265 278.943 365.898 278.247C366.538 277.542 367.24 277.054 368.005 276.785C368.778 276.507 369.546 276.446 370.307 276.601C371.077 276.765 371.769 277.124 372.381 277.681ZM371.727 283.561C372.199 283.041 372.505 282.492 372.646 281.916C372.787 281.34 372.768 280.787 372.59 280.258C372.428 279.728 372.133 279.269 371.705 278.881C371.277 278.492 370.796 278.239 370.26 278.12C369.725 278.001 369.177 278.04 368.617 278.236C368.057 278.431 367.541 278.789 367.068 279.309C366.588 279.838 366.274 280.395 366.126 280.979C365.985 281.556 365.996 282.109 366.158 282.639C366.328 283.16 366.627 283.615 367.054 284.003C367.482 284.392 367.964 284.646 368.499 284.764C369.051 284.882 369.606 284.843 370.167 284.647C370.734 284.443 371.254 284.081 371.727 283.561ZM381.415 285.858C382.254 286.62 382.701 287.493 382.757 288.477C382.82 289.453 382.417 290.419 381.549 291.376L377.858 295.441L376.725 294.413L380.268 290.511C380.892 289.823 381.196 289.142 381.18 288.469C381.171 287.788 380.869 287.176 380.273 286.636C379.669 286.087 379.015 285.838 378.311 285.888C377.616 285.946 376.941 286.335 376.286 287.057L372.823 290.871L371.678 289.831L377.94 282.933L379.085 283.973L378.194 284.955C378.74 284.808 379.294 284.813 379.856 284.971C380.425 285.136 380.945 285.432 381.415 285.858ZM382.635 299.984C381.989 299.398 381.535 298.718 381.272 297.944C381.019 297.178 380.985 296.389 381.17 295.578C381.372 294.766 381.796 294.003 382.444 293.29C383.084 292.585 383.798 292.101 384.588 291.839C385.394 291.575 386.19 291.54 386.978 291.735C387.773 291.921 388.498 292.312 389.153 292.906C389.807 293.5 390.265 294.184 390.527 294.957C390.797 295.723 390.839 296.511 390.654 297.322C390.477 298.141 390.064 298.907 389.417 299.62C388.769 300.334 388.039 300.818 387.225 301.074C386.427 301.329 385.626 301.36 384.822 301.166C384.018 300.972 383.289 300.578 382.635 299.984ZM383.549 298.977C383.96 299.351 384.434 299.604 384.97 299.739C385.506 299.874 386.058 299.847 386.627 299.659C387.204 299.479 387.743 299.112 388.246 298.558C388.749 298.004 389.067 297.435 389.199 296.851C389.331 296.267 389.305 295.723 389.12 295.218C388.943 294.705 388.648 294.262 388.237 293.889C387.818 293.508 387.344 293.254 386.816 293.127C386.305 292.999 385.769 293.033 385.209 293.229C384.648 293.424 384.117 293.799 383.614 294.353C383.104 294.915 382.774 295.48 382.625 296.049C382.484 296.626 382.499 297.167 382.667 297.672C382.844 298.169 383.138 298.604 383.549 298.977ZM390.12 306.779C389.591 306.299 389.197 305.781 388.937 305.224C388.685 304.658 388.582 304.105 388.628 303.566C388.682 303.017 388.887 302.522 389.243 302.08L390.426 303.154C390.147 303.528 390.051 303.954 390.139 304.431C390.234 304.916 390.517 305.372 390.987 305.798C391.423 306.195 391.855 306.41 392.282 306.446C392.709 306.481 393.056 306.352 393.322 306.059C393.596 305.757 393.664 305.412 393.525 305.026C393.394 304.631 393.111 304.107 392.679 303.454C392.289 302.855 391.991 302.34 391.786 301.909C391.596 301.477 391.506 301.02 391.515 300.538C391.54 300.055 391.754 299.591 392.158 299.147C392.478 298.794 392.876 298.566 393.352 298.463C393.829 298.36 394.336 298.4 394.874 298.582C395.42 298.756 395.941 299.068 396.436 299.518C397.2 300.211 397.641 300.964 397.761 301.776C397.88 302.589 397.652 303.346 397.076 304.048L395.931 303.008C396.233 302.624 396.349 302.202 396.279 301.74C396.217 301.285 395.963 300.856 395.518 300.453C395.107 300.079 394.7 299.87 394.297 299.826C393.893 299.781 393.562 299.901 393.303 300.187C393.097 300.413 392.997 300.667 393.003 300.947C393.024 301.227 393.102 301.512 393.237 301.802C393.387 302.092 393.61 302.47 393.905 302.938C394.279 303.521 394.56 304.021 394.748 304.437C394.944 304.845 395.033 305.278 395.015 305.736C395.006 306.202 394.815 306.648 394.442 307.076C394.1 307.453 393.686 307.698 393.202 307.81C392.718 307.921 392.203 307.89 391.657 307.716C391.127 307.541 390.615 307.229 390.12 306.779ZM401.159 305.734L397.468 309.799C397.163 310.135 397.017 310.439 397.031 310.711C397.051 310.975 397.238 311.267 397.59 311.587L398.434 312.352L397.554 313.321L396.522 312.384C395.884 311.805 395.539 311.224 395.487 310.641C395.434 310.058 395.713 309.431 396.322 308.759L400.013 304.694L399.12 303.883L399.977 302.939L400.87 303.75L402.447 302.013L403.593 303.053L402.016 304.79L403.816 306.424L402.959 307.368L401.159 305.734ZM406.812 307.1C406.594 306.902 406.478 306.659 406.464 306.371C406.45 306.083 406.542 305.83 406.74 305.611C406.938 305.393 407.181 305.277 407.469 305.263C407.758 305.249 408.011 305.341 408.229 305.54C408.439 305.73 408.546 305.965 408.552 306.246C408.566 306.534 408.474 306.787 408.276 307.006C408.078 307.224 407.834 307.34 407.546 307.354C407.267 307.375 407.022 307.291 406.812 307.1ZM406.349 308.723L400.087 315.621L398.942 314.581L405.203 307.684L406.349 308.723ZM404.754 313.543C405.401 312.83 406.107 312.339 406.873 312.069C407.646 311.791 408.417 311.734 409.187 311.897C409.966 312.068 410.682 312.45 411.337 313.045C412.184 313.814 412.694 314.652 412.866 315.558C413.047 316.472 412.894 317.374 412.407 318.264L411.174 317.144C411.437 316.618 411.507 316.077 411.384 315.522C411.269 314.973 410.96 314.471 410.457 314.014C409.802 313.42 409.068 313.166 408.254 313.254C407.447 313.333 406.671 313.784 405.924 314.606C405.17 315.437 404.789 316.261 404.78 317.08C404.772 317.899 405.094 318.606 405.749 319.2C406.252 319.657 406.779 319.92 407.328 319.99C407.877 320.06 408.412 319.934 408.934 319.611L410.168 320.731C409.343 321.269 408.46 321.5 407.517 321.425C406.583 321.342 405.7 320.923 404.869 320.169C404.215 319.575 403.765 318.898 403.519 318.14C403.283 317.389 403.265 316.616 403.468 315.82C403.67 315.024 404.098 314.265 404.754 313.543ZM416.568 328.654L424.01 324.756L425.231 325.865L416.263 330.306L414.929 329.094L418.484 319.74L419.718 320.86L416.568 328.654ZM427.966 326.305C427.748 326.107 427.632 325.863 427.618 325.575C427.604 325.287 427.696 325.034 427.895 324.816C428.093 324.598 428.336 324.482 428.624 324.468C428.912 324.454 429.165 324.546 429.383 324.744C429.593 324.934 429.701 325.17 429.706 325.45C429.72 325.739 429.628 325.992 429.43 326.21C429.232 326.428 428.989 326.544 428.701 326.558C428.421 326.58 428.176 326.495 427.966 326.305ZM427.503 327.928L421.242 334.825L420.096 333.786L426.358 326.888L427.503 327.928ZM425.92 332.735C426.559 332.03 427.262 331.543 428.027 331.273C428.8 330.995 429.567 330.934 430.329 331.09C431.099 331.253 431.795 331.617 432.416 332.18C432.953 332.668 433.338 333.247 433.571 333.918C433.811 334.58 433.87 335.223 433.748 335.847L437.062 332.197L438.22 333.248L429.764 342.562L428.606 341.511L429.783 340.215C429.183 340.42 428.539 340.455 427.851 340.32C427.17 340.176 426.531 339.834 425.936 339.293C425.323 338.737 424.902 338.08 424.673 337.32C424.452 336.569 424.446 335.791 424.656 334.986C424.866 334.182 425.287 333.431 425.92 332.735ZM431.748 338.05C432.221 337.529 432.527 336.981 432.668 336.404C432.808 335.828 432.79 335.275 432.612 334.746C432.45 334.217 432.155 333.758 431.727 333.369C431.299 332.981 430.817 332.727 430.282 332.608C429.747 332.49 429.199 332.528 428.639 332.724C428.079 332.92 427.562 333.277 427.09 333.798C426.61 334.326 426.296 334.883 426.148 335.468C426.007 336.044 426.018 336.597 426.18 337.127C426.35 337.649 426.648 338.103 427.076 338.492C427.504 338.88 427.986 339.134 428.521 339.253C429.072 339.37 429.628 339.331 430.188 339.136C430.756 338.932 431.276 338.57 431.748 338.05ZM441.364 346.32C441.166 346.538 440.944 346.757 440.698 346.978L435.185 341.973C434.61 342.691 434.357 343.433 434.426 344.2C434.511 344.966 434.856 345.623 435.46 346.172C435.955 346.621 436.469 346.881 437.002 346.952C437.551 347.021 438.068 346.924 438.552 346.66L439.786 347.78C439 348.275 438.139 348.481 437.204 348.398C436.277 348.306 435.402 347.887 434.58 347.141C433.926 346.547 433.471 345.867 433.218 345.101C432.973 344.342 432.947 343.561 433.141 342.757C433.342 341.945 433.767 341.183 434.414 340.469C435.062 339.756 435.772 339.261 436.545 338.983C437.318 338.704 438.089 338.655 438.86 338.835C439.647 339.013 440.376 339.407 441.048 340.017C441.702 340.611 442.152 341.279 442.396 342.021C442.641 342.764 442.668 343.509 442.48 344.256C442.307 345.002 441.935 345.69 441.364 346.32ZM440.398 345.006C440.794 344.57 441.037 344.109 441.126 343.623C441.222 343.129 441.175 342.65 440.984 342.186C440.809 341.721 440.52 341.306 440.117 340.94C439.538 340.414 438.876 340.15 438.129 340.146C437.391 340.149 436.696 340.452 436.043 341.053L440.398 345.006ZM442.411 354.25C441.765 353.663 441.31 352.983 441.048 352.209C440.795 351.443 440.761 350.655 440.946 349.843C441.148 349.031 441.572 348.269 442.22 347.555C442.859 346.85 443.574 346.367 444.364 346.104C445.169 345.84 445.966 345.806 446.754 346C447.549 346.187 448.274 346.577 448.928 347.171C449.583 347.765 450.041 348.449 450.303 349.223C450.573 349.988 450.615 350.776 450.43 351.587C450.253 352.406 449.84 353.172 449.193 353.886C448.545 354.599 447.814 355.084 447 355.34C446.202 355.595 445.402 355.625 444.598 355.432C443.794 355.238 443.065 354.844 442.411 354.25ZM443.325 353.243C443.736 353.616 444.21 353.87 444.746 354.004C445.282 354.139 445.834 354.112 446.403 353.924C446.98 353.744 447.519 353.377 448.022 352.823C448.525 352.269 448.842 351.7 448.975 351.116C449.107 350.532 449.081 349.988 448.896 349.483C448.719 348.97 448.424 348.527 448.013 348.154C447.594 347.773 447.12 347.519 446.592 347.392C446.081 347.264 445.545 347.298 444.985 347.494C444.424 347.689 443.893 348.064 443.39 348.618C442.88 349.18 442.55 349.746 442.401 350.315C442.26 350.891 442.274 351.432 442.443 351.937C442.62 352.434 442.914 352.869 443.325 353.243Z" fill="#232323"/>
<rect x="54.6669" y="152.63" width="139.982" height="38.4951" rx="19.2475" transform="rotate(33.7908 54.6669 152.63)" stroke="#EB0001" strokeWidth="2.18722"/>
<path d="M66.8102 189.52L71.6138 192.735L70.8669 193.851L64.5374 189.615L65.2181 188.598L75.1558 184.08L70.437 180.922L71.1839 179.806L77.4286 183.985L76.7478 185.002L66.8102 189.52ZM75.9106 197.41C75.1853 196.925 74.6363 196.319 74.2635 195.592C73.9002 194.872 73.7506 194.097 73.815 193.267C73.895 192.434 74.2029 191.617 74.7387 190.817C75.2682 190.026 75.9041 189.442 76.6466 189.066C77.4048 188.687 78.1878 188.536 78.9955 188.613C79.8095 188.68 80.5838 188.96 81.3185 189.452C82.0531 189.943 82.6068 190.552 82.9796 191.279C83.3587 191.997 83.5161 192.77 83.4518 193.6C83.3968 194.436 83.1015 195.254 82.5657 196.055C82.03 196.855 81.3783 197.442 80.6107 197.815C79.8588 198.184 79.0711 198.332 78.2477 198.258C77.4243 198.185 76.6452 197.902 75.9106 197.41ZM76.6669 196.28C77.1285 196.589 77.6342 196.771 78.1842 196.825C78.7342 196.879 79.2766 196.772 79.8114 196.502C80.3557 196.239 80.8358 195.797 81.2518 195.175C81.6678 194.554 81.8984 193.944 81.9434 193.347C81.9885 192.75 81.8825 192.216 81.6256 191.744C81.375 191.262 81.0189 190.867 80.5574 190.558C80.0865 190.243 79.5807 190.061 79.0401 190.013C78.5153 189.962 77.9902 190.074 77.4648 190.35C76.9393 190.626 76.4686 191.074 76.0526 191.696C75.6303 192.327 75.3872 192.935 75.3233 193.519C75.2688 194.11 75.3622 194.643 75.6034 195.118C75.8509 195.584 76.2054 195.971 76.6669 196.28ZM84.9477 203.458C84.2224 202.973 83.6734 202.367 83.3006 201.64C82.9373 200.919 82.7878 200.144 82.8521 199.315C82.9321 198.482 83.24 197.665 83.7758 196.864C84.3053 196.073 84.9412 195.49 85.6837 195.114C86.4419 194.735 87.2249 194.584 88.0326 194.661C88.8466 194.728 89.6209 195.008 90.3556 195.499C91.0902 195.991 91.644 196.6 92.0167 197.327C92.3958 198.044 92.5532 198.818 92.4889 199.647C92.434 200.484 92.1386 201.302 91.6029 202.102C91.0671 202.903 90.4154 203.49 89.6478 203.862C88.8959 204.232 88.1082 204.38 87.2848 204.306C86.4614 204.232 85.6823 203.95 84.9477 203.458ZM85.704 202.328C86.1656 202.637 86.6713 202.818 87.2213 202.873C87.7713 202.927 88.3137 202.82 88.8485 202.55C89.3928 202.287 89.8729 201.845 90.2889 201.223C90.7049 200.601 90.9355 199.992 90.9805 199.395C91.0256 198.798 90.9197 198.263 90.6627 197.791C90.4121 197.31 90.056 196.915 89.5945 196.606C89.1236 196.291 88.6178 196.109 88.0773 196.061C87.5524 196.01 87.0273 196.122 86.5019 196.398C85.9765 196.673 85.5057 197.122 85.0897 197.744C84.6674 198.375 84.4243 198.983 84.3604 199.567C84.3059 200.158 84.3993 200.691 84.6405 201.166C84.888 201.632 85.2425 202.019 85.704 202.328ZM105.28 205.466C105.882 205.869 106.334 206.356 106.635 206.925C106.942 207.485 107.065 208.106 107.004 208.788C106.943 209.47 106.673 210.169 106.194 210.885L103.14 215.449L101.869 214.598L104.8 210.218C105.317 209.446 105.517 208.728 105.402 208.064C105.303 207.398 104.928 206.847 104.278 206.412C103.61 205.964 102.932 205.825 102.247 205.994C101.568 206.153 100.957 206.637 100.415 207.447L97.5596 211.714L96.288 210.863L99.219 206.483C99.7358 205.711 99.9367 204.993 99.8216 204.33C99.7222 203.663 99.3475 203.112 98.6976 202.677C98.0289 202.23 97.3517 202.09 96.6662 202.259C95.987 202.418 95.3763 202.903 94.8342 203.713L91.9789 207.979L90.6932 207.119L95.8744 199.377L97.1601 200.237L96.4132 201.353C96.9385 201.118 97.4856 201.034 98.0544 201.101C98.6327 201.175 99.1808 201.385 99.6988 201.731C100.349 202.166 100.826 202.697 101.129 203.323C101.433 203.949 101.518 204.626 101.385 205.355C101.967 204.954 102.609 204.77 103.31 204.802C104.011 204.835 104.667 205.056 105.28 205.466ZM111.136 215.174C111.671 214.373 112.298 213.783 113.015 213.404C113.739 213.016 114.494 212.846 115.279 212.894C116.074 212.949 116.839 213.222 117.574 213.714C118.525 214.351 119.153 215.105 119.456 215.976C119.769 216.853 119.75 217.768 119.399 218.72L118.015 217.793C118.198 217.234 118.188 216.689 117.985 216.157C117.791 215.632 117.411 215.18 116.846 214.802C116.111 214.31 115.348 214.168 114.555 214.374C113.769 214.57 113.067 215.13 112.449 216.053C111.825 216.986 111.569 217.857 111.681 218.669C111.793 219.48 112.216 220.131 112.951 220.623C113.516 221.001 114.075 221.184 114.628 221.173C115.181 221.161 115.693 220.958 116.162 220.562L117.546 221.489C116.81 222.142 115.97 222.5 115.027 222.564C114.09 222.619 113.155 222.335 112.223 221.711C111.488 221.219 110.944 220.616 110.59 219.902C110.245 219.194 110.114 218.432 110.198 217.615C110.281 216.797 110.593 215.984 111.136 215.174ZM119.727 220.903C120.256 220.112 120.88 219.526 121.597 219.147C122.321 218.759 123.071 218.586 123.847 218.628C124.633 218.676 125.369 218.931 126.057 219.391C126.735 219.845 127.226 220.385 127.53 221.011C127.834 221.637 127.96 222.253 127.909 222.86L128.854 221.447L130.154 222.317L124.973 230.059L123.673 229.189L124.637 227.748C124.08 228.03 123.447 228.151 122.736 228.112C122.042 228.07 121.36 227.826 120.691 227.378C120.004 226.918 119.496 226.332 119.167 225.621C118.838 224.91 118.718 224.142 118.808 223.315C118.897 222.489 119.204 221.684 119.727 220.903ZM126.273 225.304C126.664 224.72 126.886 224.132 126.941 223.542C126.995 222.951 126.896 222.407 126.642 221.91C126.404 221.41 126.045 220.999 125.564 220.677C125.084 220.356 124.57 220.176 124.023 220.137C123.477 220.098 122.94 220.217 122.415 220.493C121.89 220.768 121.431 221.198 121.041 221.782C120.644 222.375 120.415 222.972 120.354 223.572C120.299 224.163 120.391 224.709 120.629 225.209C120.874 225.7 121.236 226.106 121.716 226.427C122.197 226.749 122.71 226.929 123.257 226.968C123.82 227.003 124.364 226.883 124.889 226.607C125.421 226.322 125.882 225.888 126.273 225.304ZM135.427 221.918L128.431 232.373L127.145 231.513L134.142 221.058L135.427 221.918ZM138.904 224.245L131.908 234.7L130.622 233.84L137.619 223.385L138.904 224.245Z" fill="#232323"/>
<rect x="377.074" y="216.492" width="183.661" height="38.4951" rx="19.2475" transform="rotate(18.0929 377.074 216.492)" stroke="#023E6A" strokeWidth="2.18722"/>
<path d="M388.109 246.783C387.366 246.541 386.74 246.193 386.232 245.741C385.738 245.282 385.4 244.766 385.218 244.193C385.038 243.61 385.044 243.01 385.234 242.392L386.801 242.904C386.683 243.45 386.752 243.967 387.009 244.457C387.281 244.939 387.783 245.3 388.516 245.539C389.216 245.768 389.822 245.775 390.333 245.561C390.858 245.339 391.211 244.953 391.39 244.404C391.531 243.973 391.527 243.584 391.378 243.237C391.229 242.891 391 242.589 390.69 242.333C390.38 242.077 389.95 241.769 389.4 241.411C388.72 240.974 388.185 240.584 387.796 240.243C387.418 239.905 387.134 239.478 386.944 238.963C386.769 238.441 386.796 237.83 387.025 237.129C387.225 236.515 387.559 236.022 388.027 235.65C388.494 235.278 389.05 235.055 389.694 234.979C390.35 234.907 391.044 234.991 391.776 235.23C392.832 235.575 393.608 236.121 394.103 236.867C394.609 237.616 394.763 238.441 394.564 239.342L392.948 238.814C393.035 238.366 392.932 237.915 392.639 237.461C392.35 236.997 391.876 236.658 391.219 236.443C390.605 236.242 390.051 236.24 389.558 236.437C389.068 236.622 388.73 237.001 388.543 237.572C388.41 237.981 388.414 238.352 388.555 238.685C388.708 239.021 388.928 239.313 389.216 239.562C389.519 239.804 389.949 240.112 390.507 240.485C391.183 240.932 391.714 241.332 392.1 241.685C392.489 242.026 392.777 242.46 392.962 242.986C393.152 243.501 393.13 244.114 392.898 244.825C392.719 245.374 392.404 245.844 391.955 246.234C391.506 246.623 390.946 246.876 390.277 246.991C389.607 247.106 388.885 247.037 388.109 246.783ZM401.4 241.021C402.068 241.239 402.624 241.582 403.068 242.049C403.515 242.505 403.796 243.068 403.911 243.737C404.037 244.41 403.966 245.156 403.699 245.975L401.993 251.194L400.539 250.719L402.176 245.71C402.464 244.826 402.463 244.081 402.173 243.473C401.886 242.855 401.36 242.421 400.595 242.171C399.82 241.918 399.121 241.958 398.5 242.291C397.889 242.628 397.432 243.26 397.129 244.186L395.53 249.083L394.059 248.602L397.966 236.644L399.436 237.125L398.011 241.488C398.45 241.13 398.963 240.91 399.55 240.828C400.148 240.749 400.765 240.814 401.4 241.021ZM408.21 253.386C407.38 253.115 406.688 252.681 406.132 252.082C405.588 251.486 405.234 250.781 405.071 249.965C404.923 249.141 404.999 248.272 405.298 247.356C405.593 246.451 406.048 245.717 406.661 245.154C407.288 244.584 408.001 244.227 408.8 244.082C409.601 243.927 410.423 243.987 411.263 244.261C412.103 244.536 412.801 244.973 413.356 245.571C413.916 246.159 414.276 246.861 414.439 247.678C414.612 248.497 414.549 249.365 414.25 250.281C413.951 251.196 413.482 251.937 412.844 252.504C412.22 253.063 411.502 253.419 410.689 253.571C409.877 253.722 409.05 253.661 408.21 253.386ZM408.632 252.094C409.16 252.266 409.696 252.304 410.24 252.208C410.785 252.111 411.278 251.861 411.72 251.457C412.172 251.056 412.515 250.501 412.747 249.79C412.98 249.079 413.037 248.43 412.918 247.843C412.8 247.256 412.554 246.77 412.179 246.385C411.807 245.989 411.357 245.705 410.83 245.533C410.291 245.357 409.755 245.319 409.221 245.419C408.702 245.511 408.227 245.761 407.796 246.169C407.365 246.577 407.033 247.136 406.801 247.847C406.565 248.569 406.495 249.22 406.592 249.8C406.699 250.383 406.933 250.871 407.294 251.263C407.658 251.644 408.104 251.921 408.632 252.094ZM418.562 248.613C419.018 248.202 419.587 247.923 420.267 247.775C420.961 247.621 421.691 247.668 422.456 247.918C423.242 248.175 423.891 248.596 424.404 249.181C424.927 249.769 425.259 250.468 425.4 251.277C425.545 252.075 425.469 252.927 425.174 253.832C424.881 254.726 424.438 255.463 423.843 256.044C423.248 256.624 422.564 257.003 421.79 257.18C421.028 257.36 420.254 257.321 419.467 257.064C418.713 256.818 418.1 256.433 417.627 255.909C417.169 255.378 416.872 254.809 416.735 254.205L414.83 260.038L413.359 259.558L417.625 246.501L419.095 246.981L418.562 248.613ZM423.671 253.341C423.889 252.673 423.944 252.047 423.837 251.463C423.729 250.88 423.486 250.383 423.108 249.973C422.74 249.567 422.281 249.274 421.731 249.094C421.193 248.918 420.648 248.889 420.097 249.007C419.56 249.118 419.069 249.381 418.623 249.796C418.192 250.203 417.869 250.736 417.654 251.393C417.436 252.061 417.379 252.692 417.483 253.286C417.601 253.873 417.842 254.375 418.207 254.793C418.585 255.202 419.044 255.495 419.583 255.671C420.132 255.851 420.675 255.885 421.212 255.774C421.763 255.657 422.255 255.394 422.686 254.986C423.121 254.568 423.449 254.019 423.671 253.341ZM430.863 255.708C431.162 254.792 431.605 254.055 432.193 253.496C432.785 252.926 433.465 252.558 434.235 252.393C435.015 252.23 435.826 252.286 436.666 252.561C437.754 252.916 438.562 253.472 439.09 254.229C439.628 254.989 439.858 255.875 439.778 256.886L438.194 256.369C438.219 255.781 438.062 255.258 437.722 254.802C437.393 254.349 436.906 254.016 436.259 253.805C435.419 253.531 434.645 253.6 433.938 254.013C433.235 254.415 432.71 255.143 432.365 256.199C432.017 257.266 432.006 258.174 432.333 258.925C432.66 259.676 433.244 260.188 434.084 260.463C434.731 260.674 435.319 260.699 435.848 260.538C436.377 260.377 436.815 260.043 437.159 259.536L438.743 260.053C438.21 260.881 437.499 261.453 436.608 261.77C435.721 262.077 434.744 262.056 433.678 261.707C432.837 261.433 432.15 260.999 431.616 260.408C431.093 259.819 430.761 259.121 430.62 258.312C430.479 257.502 430.56 256.635 430.863 255.708ZM443.59 264.946C442.761 264.675 442.068 264.24 441.513 263.641C440.968 263.046 440.614 262.34 440.452 261.524C440.303 260.7 440.379 259.831 440.678 258.915C440.974 258.01 441.428 257.276 442.041 256.714C442.669 256.144 443.381 255.786 444.18 255.642C444.982 255.486 445.803 255.546 446.643 255.821C447.483 256.095 448.181 256.532 448.737 257.131C449.296 257.719 449.657 258.421 449.819 259.237C449.993 260.057 449.93 260.924 449.63 261.84C449.331 262.756 448.863 263.497 448.224 264.063C447.601 264.622 446.882 264.978 446.07 265.13C445.257 265.282 444.431 265.22 443.59 264.946ZM444.013 263.653C444.54 263.825 445.077 263.863 445.621 263.767C446.165 263.671 446.658 263.42 447.1 263.016C447.553 262.616 447.895 262.06 448.128 261.349C448.36 260.638 448.417 259.989 448.299 259.402C448.181 258.815 447.934 258.329 447.559 257.944C447.187 257.548 446.738 257.264 446.21 257.092C445.671 256.916 445.135 256.878 444.602 256.978C444.083 257.071 443.607 257.321 443.176 257.728C442.745 258.136 442.413 258.695 442.181 259.406C441.945 260.128 441.876 260.779 441.972 261.359C442.08 261.942 442.314 262.43 442.674 262.822C443.039 263.204 443.485 263.48 444.013 263.653ZM457.373 259.308C458.45 259.66 459.215 260.274 459.668 261.149C460.125 262.014 460.153 263.06 459.752 264.288L458.046 269.508L456.592 269.033L458.229 264.023C458.517 263.14 458.516 262.394 458.226 261.787C457.939 261.168 457.413 260.734 456.648 260.484C455.873 260.231 455.174 260.271 454.553 260.604C453.942 260.941 453.485 261.573 453.182 262.5L451.583 267.396L450.112 266.915L453.005 258.06L454.476 258.541L454.064 259.801C454.503 259.444 455.01 259.222 455.587 259.136C456.174 259.054 456.769 259.111 457.373 259.308ZM463.536 271.462C462.857 271.24 462.285 270.928 461.821 270.526C461.359 270.113 461.039 269.651 460.861 269.14C460.686 268.617 460.67 268.082 460.814 267.532L462.333 268.029C462.231 268.484 462.318 268.912 462.593 269.312C462.878 269.715 463.323 270.015 463.926 270.213C464.486 270.396 464.968 270.416 465.373 270.274C465.777 270.132 466.04 269.872 466.164 269.495C466.29 269.107 466.211 268.765 465.926 268.47C465.645 268.163 465.173 267.8 464.511 267.381C463.911 266.994 463.428 266.646 463.064 266.336C462.715 266.019 462.446 265.639 462.257 265.196C462.082 264.745 462.088 264.235 462.274 263.664C462.422 263.211 462.692 262.841 463.085 262.551C463.477 262.262 463.956 262.091 464.522 262.038C465.092 261.973 465.694 262.045 466.33 262.253C467.31 262.573 468.021 263.079 468.463 263.772C468.904 264.465 469.005 265.249 468.767 266.125L467.296 265.644C467.416 265.171 467.348 264.737 467.095 264.345C466.853 263.955 466.446 263.668 465.875 263.481C465.347 263.309 464.89 263.284 464.504 263.409C464.117 263.533 463.864 263.778 463.745 264.144C463.65 264.435 463.662 264.707 463.782 264.961C463.916 265.208 464.104 265.436 464.345 265.646C464.601 265.849 464.959 266.103 465.419 266.408C465.999 266.788 466.46 267.13 466.802 267.432C467.148 267.724 467.406 268.083 467.577 268.508C467.759 268.937 467.767 269.423 467.602 269.965C467.443 270.45 467.166 270.842 466.77 271.142C466.374 271.442 465.891 271.624 465.322 271.688C464.767 271.745 464.171 271.67 463.536 271.462ZM479.638 266.761L476.744 275.617L475.274 275.136L475.702 273.827C475.274 274.188 474.764 274.415 474.174 274.508C473.597 274.594 473.007 274.539 472.404 274.342C471.714 274.116 471.141 273.774 470.683 273.314C470.228 272.844 469.933 272.27 469.796 271.594C469.67 270.921 469.741 270.175 470.009 269.356L471.703 264.169L473.158 264.644L471.526 269.637C471.241 270.51 471.242 271.256 471.529 271.874C471.819 272.481 472.347 272.91 473.112 273.16C473.898 273.417 474.597 273.377 475.208 273.04C475.819 272.703 476.275 272.071 476.578 271.145L478.167 266.281L479.638 266.761ZM484.605 264.95L480.698 276.908L479.227 276.428L483.134 264.47L484.605 264.95ZM487.495 270.67L485.79 275.889C485.649 276.32 485.64 276.657 485.763 276.9C485.89 277.132 486.18 277.322 486.632 277.47L487.715 277.824L487.309 279.068L485.984 278.635C485.165 278.368 484.612 277.979 484.326 277.468C484.04 276.957 484.038 276.271 484.319 275.409L486.024 270.189L484.877 269.814L485.273 268.602L486.42 268.977L487.149 266.747L488.62 267.228L487.891 269.458L490.202 270.213L489.806 271.425L487.495 270.67ZM489.998 275.011C490.294 274.106 490.736 273.374 491.324 272.815C491.915 272.245 492.59 271.875 493.349 271.706C494.119 271.54 494.897 271.586 495.683 271.843C496.459 272.096 497.077 272.483 497.539 273.003C498.001 273.524 498.289 274.083 498.404 274.681L498.932 273.065L500.419 273.551L497.526 282.406L496.039 281.92L496.577 280.272C496.118 280.694 495.54 280.983 494.846 281.137C494.166 281.285 493.444 281.233 492.679 280.984C491.892 280.727 491.245 280.3 490.736 279.705C490.227 279.109 489.904 278.402 489.766 277.582C489.629 276.762 489.706 275.905 489.998 275.011ZM497.491 277.477C497.709 276.809 497.764 276.183 497.657 275.599C497.549 275.016 497.306 274.519 496.928 274.109C496.563 273.692 496.106 273.394 495.557 273.214C495.007 273.035 494.464 273 493.927 273.111C493.39 273.222 492.906 273.481 492.475 273.888C492.044 274.296 491.719 274.834 491.501 275.502C491.279 276.18 491.22 276.817 491.324 277.411C491.432 277.995 491.667 278.495 492.032 278.912C492.4 279.319 492.859 279.612 493.408 279.791C493.957 279.971 494.501 280.005 495.038 279.894C495.589 279.776 496.08 279.514 496.511 279.106C496.946 278.688 497.272 278.144 497.491 277.477ZM504.301 276.161L502.596 281.38C502.455 281.811 502.447 282.148 502.57 282.391C502.697 282.623 502.986 282.813 503.439 282.961L504.522 283.315L504.115 284.559L502.79 284.126C501.971 283.859 501.419 283.469 501.133 282.959C500.846 282.448 500.844 281.762 501.126 280.9L502.831 275.68L501.684 275.305L502.08 274.093L503.227 274.468L503.955 272.238L505.426 272.719L504.697 274.949L507.008 275.704L506.612 276.916L504.301 276.161ZM510.019 275.096C509.739 275.004 509.534 274.83 509.403 274.573C509.273 274.315 509.253 274.047 509.345 273.766C509.436 273.486 509.611 273.281 509.868 273.15C510.125 273.02 510.394 273 510.674 273.092C510.943 273.18 511.138 273.351 511.258 273.605C511.388 273.862 511.408 274.13 511.316 274.411C511.225 274.691 511.05 274.896 510.793 275.027C510.546 275.161 510.289 275.184 510.019 275.096ZM510.26 276.766L507.367 285.622L505.897 285.141L508.79 276.286L510.26 276.766ZM513.688 287.848C512.859 287.577 512.166 287.142 511.611 286.543C511.066 285.948 510.712 285.242 510.55 284.426C510.401 283.602 510.477 282.733 510.776 281.817C511.072 280.912 511.526 280.178 512.139 279.615C512.766 279.045 513.479 278.688 514.278 278.544C515.079 278.388 515.901 278.448 516.741 278.722C517.581 278.997 518.279 279.434 518.835 280.032C519.394 280.62 519.754 281.323 519.917 282.139C520.09 282.958 520.027 283.826 519.728 284.742C519.429 285.658 518.96 286.399 518.322 286.965C517.698 287.524 516.98 287.88 516.167 288.032C515.355 288.183 514.528 288.122 513.688 287.848ZM514.11 286.555C514.638 286.727 515.174 286.765 515.718 286.669C516.263 286.572 516.756 286.322 517.198 285.918C517.651 285.518 517.993 284.962 518.225 284.251C518.458 283.54 518.515 282.891 518.397 282.304C518.278 281.717 518.032 281.231 517.657 280.846C517.285 280.45 516.836 280.166 516.308 279.994C515.769 279.818 515.233 279.78 514.7 279.88C514.18 279.972 513.705 280.223 513.274 280.63C512.843 281.038 512.511 281.597 512.279 282.308C512.043 283.03 511.973 283.681 512.07 284.261C512.177 284.844 512.411 285.332 512.772 285.724C513.136 286.105 513.583 286.382 514.11 286.555ZM527.47 282.21C528.548 282.562 529.313 283.176 529.766 284.051C530.223 284.916 530.251 285.962 529.849 287.19L528.144 292.41L526.69 291.934L528.326 286.925C528.615 286.042 528.614 285.296 528.324 284.689C528.037 284.07 527.511 283.636 526.746 283.386C525.971 283.133 525.272 283.173 524.65 283.506C524.039 283.843 523.583 284.475 523.28 285.402L521.68 290.298L520.21 289.817L523.103 280.962L524.573 281.442L524.162 282.703C524.6 282.345 525.108 282.124 525.684 282.038C526.272 281.956 526.867 282.013 527.47 282.21Z" fill="#232323"/>
<rect x="120.064" y="332.591" width="226.503" height="38.4951" rx="19.2475" transform="rotate(-13.8328 120.064 332.591)" stroke="#023E6A" strokeWidth="2.18722"/>
<path d="M144.4 352.723C143.641 352.91 142.926 352.946 142.256 352.831C141.594 352.702 141.034 352.443 140.576 352.054C140.116 351.653 139.803 351.141 139.638 350.516L141.239 350.122C141.427 350.648 141.759 351.05 142.236 351.33C142.722 351.595 143.339 351.636 144.087 351.452C144.803 351.276 145.32 350.961 145.641 350.509C145.97 350.043 146.065 349.529 145.927 348.968C145.818 348.528 145.609 348.2 145.299 347.984C144.99 347.769 144.635 347.634 144.237 347.581C143.839 347.527 143.311 347.493 142.654 347.48C141.846 347.469 141.186 347.421 140.676 347.337C140.176 347.25 139.709 347.038 139.276 346.701C138.851 346.351 138.551 345.818 138.375 345.102C138.22 344.475 138.243 343.88 138.443 343.317C138.643 342.755 138.996 342.271 139.503 341.866C140.022 341.458 140.655 341.162 141.403 340.978C142.482 340.712 143.428 340.765 144.243 341.136C145.07 341.505 145.636 342.124 145.944 342.993L144.293 343.4C144.13 342.973 143.804 342.645 143.315 342.415C142.824 342.174 142.243 342.136 141.572 342.302C140.944 342.456 140.473 342.747 140.158 343.175C139.841 343.592 139.754 344.092 139.897 344.675C140 345.093 140.2 345.406 140.496 345.613C140.803 345.817 141.145 345.949 141.521 346.008C141.906 346.054 142.434 346.087 143.104 346.109C143.915 346.131 144.577 346.19 145.091 346.285C145.602 346.369 146.075 346.585 146.511 346.933C146.944 347.27 147.25 347.802 147.429 348.528C147.567 349.089 147.549 349.654 147.374 350.222C147.198 350.791 146.857 351.301 146.35 351.752C145.842 352.204 145.193 352.528 144.4 352.723ZM154.394 350.297C153.546 350.506 152.729 350.503 151.94 350.288C151.163 350.071 150.49 349.659 149.92 349.052C149.359 348.432 148.963 347.654 148.733 346.719C148.505 345.794 148.503 344.931 148.726 344.129C148.957 343.314 149.373 342.634 149.974 342.089C150.572 341.533 151.301 341.149 152.159 340.938C153.018 340.726 153.841 340.728 154.629 340.942C155.414 341.146 156.092 341.551 156.661 342.158C157.242 342.762 157.647 343.532 157.878 344.467C158.108 345.402 158.102 346.279 157.86 347.097C157.626 347.902 157.205 348.584 156.595 349.142C155.986 349.701 155.252 350.086 154.394 350.297ZM154.068 348.976C154.608 348.844 155.083 348.593 155.494 348.223C155.905 347.853 156.191 347.38 156.352 346.803C156.525 346.224 156.521 345.571 156.343 344.845C156.164 344.119 155.869 343.538 155.458 343.102C155.047 342.666 154.581 342.384 154.059 342.256C153.535 342.116 153.003 342.113 152.464 342.246C151.913 342.381 151.438 342.633 151.039 343C150.647 343.353 150.376 343.816 150.226 344.39C150.075 344.964 150.089 345.614 150.268 346.341C150.45 347.078 150.735 347.667 151.124 348.108C151.523 348.547 151.98 348.837 152.493 348.979C153.004 349.11 153.529 349.109 154.068 348.976ZM159.292 344.119C159.061 343.183 159.048 342.323 159.251 341.538C159.452 340.741 159.835 340.069 160.401 339.521C160.977 338.971 161.694 338.59 162.553 338.379C163.664 338.105 164.644 338.15 165.492 338.513C166.351 338.873 167.014 339.504 167.481 340.404L165.863 340.802C165.574 340.29 165.164 339.93 164.634 339.722C164.115 339.511 163.526 339.487 162.866 339.65C162.007 339.861 161.387 340.329 161.005 341.053C160.621 341.766 160.561 342.662 160.827 343.741C161.095 344.83 161.566 345.607 162.241 346.071C162.915 346.535 163.682 346.662 164.54 346.451C165.201 346.288 165.713 345.998 166.077 345.582C166.441 345.165 166.636 344.651 166.66 344.038L168.278 343.639C168.263 344.623 167.962 345.485 167.374 346.226C166.783 346.955 165.943 347.453 164.853 347.722C163.995 347.933 163.183 347.929 162.417 347.709C161.661 347.486 161.01 347.069 160.462 346.457C159.915 345.844 159.525 345.065 159.292 344.119ZM169.184 335.345C168.898 335.416 168.631 335.376 168.384 335.227C168.138 335.078 167.979 334.86 167.909 334.574C167.838 334.288 167.877 334.021 168.027 333.774C168.176 333.527 168.394 333.369 168.68 333.298C168.955 333.231 169.211 333.273 169.446 333.425C169.693 333.574 169.852 333.792 169.922 334.078C169.993 334.364 169.953 334.631 169.804 334.877C169.666 335.122 169.459 335.277 169.184 335.345ZM170.272 336.635L172.499 345.681L170.997 346.051L168.77 337.005L170.272 336.635ZM173.376 340.633C173.149 339.709 173.137 338.854 173.34 338.068C173.541 337.272 173.919 336.601 174.473 336.056C175.038 335.509 175.723 335.136 176.526 334.938C177.318 334.743 178.048 334.744 178.715 334.942C179.383 335.139 179.923 335.461 180.337 335.908L179.93 334.257L181.449 333.883L183.676 342.929L182.157 343.303L181.743 341.619C181.576 342.221 181.239 342.771 180.731 343.269C180.232 343.754 179.591 344.093 178.81 344.285C178.007 344.483 177.232 344.464 176.485 344.227C175.738 343.991 175.09 343.561 174.539 342.938C173.989 342.315 173.601 341.547 173.376 340.633ZM181.04 338.764C180.872 338.081 180.588 337.521 180.188 337.083C179.788 336.644 179.319 336.351 178.781 336.204C178.251 336.042 177.706 336.031 177.144 336.169C176.583 336.307 176.104 336.565 175.707 336.943C175.31 337.321 175.036 337.797 174.885 338.371C174.735 338.945 174.744 339.573 174.912 340.255C175.082 340.948 175.369 341.52 175.771 341.969C176.171 342.408 176.636 342.708 177.166 342.869C177.693 343.019 178.237 343.025 178.799 342.887C179.36 342.749 179.839 342.491 180.236 342.113C180.642 341.721 180.92 341.239 181.07 340.665C181.218 340.08 181.208 339.446 181.04 338.764ZM184.709 329.719L187.717 341.934L186.215 342.304L183.207 330.089L184.709 329.719ZM203.288 328.331C203.992 328.158 204.656 328.152 205.279 328.313C205.9 328.464 206.442 328.792 206.904 329.296C207.367 329.801 207.701 330.471 207.907 331.308L209.22 336.639L207.735 337.005L206.475 331.888C206.252 330.986 205.857 330.354 205.29 329.991C204.73 329.616 204.071 329.521 203.312 329.708C202.53 329.901 201.971 330.307 201.633 330.927C201.293 331.536 201.239 332.313 201.473 333.26L202.7 338.245L201.214 338.611L199.954 333.494C199.732 332.591 199.337 331.959 198.77 331.597C198.21 331.221 197.551 331.127 196.791 331.314C196.01 331.506 195.451 331.912 195.113 332.532C194.773 333.141 194.719 333.919 194.952 334.865L196.18 339.85L194.678 340.22L192.45 331.175L193.952 330.805L194.273 332.109C194.454 331.562 194.761 331.102 195.194 330.727C195.638 330.349 196.162 330.085 196.767 329.936C197.527 329.749 198.24 329.755 198.907 329.952C199.575 330.15 200.133 330.543 200.581 331.133C200.677 330.433 200.973 329.835 201.47 329.339C201.966 328.843 202.572 328.507 203.288 328.331ZM218.739 329.131C218.809 329.417 218.867 329.724 218.913 330.051L211.683 331.831C211.957 332.709 212.432 333.333 213.107 333.704C213.79 334.061 214.528 334.142 215.32 333.947C215.969 333.787 216.472 333.506 216.828 333.103C217.192 332.686 217.4 332.203 217.452 331.654L219.069 331.256C219.041 332.185 218.732 333.014 218.141 333.743C217.547 334.461 216.711 334.952 215.633 335.218C214.775 335.429 213.957 335.426 213.18 335.209C212.414 334.989 211.751 334.575 211.193 333.965C210.631 333.345 210.236 332.567 210.005 331.632C209.775 330.696 209.76 329.83 209.961 329.034C210.162 328.237 210.552 327.569 211.131 327.03C211.718 326.477 212.452 326.092 213.333 325.875C214.191 325.664 214.996 325.664 215.749 325.875C216.501 326.087 217.135 326.48 217.649 327.053C218.172 327.613 218.536 328.306 218.739 329.131ZM217.11 329.199C216.969 328.627 216.722 328.169 216.368 327.824C216.012 327.468 215.589 327.24 215.097 327.139C214.613 327.024 214.108 327.032 213.579 327.162C212.82 327.349 212.23 327.751 211.81 328.368C211.401 328.983 211.264 329.728 211.398 330.606L217.11 329.199ZM220.238 329.095C220.01 328.17 219.998 327.315 220.201 326.53C220.402 325.733 220.78 325.063 221.334 324.518C221.899 323.97 222.589 323.596 223.404 323.395C224.108 323.222 224.803 323.226 225.49 323.407C226.174 323.577 226.74 323.887 227.19 324.336L226.011 319.549L227.529 319.175L230.537 331.391L229.019 331.765L228.6 330.064C228.436 330.677 228.105 331.231 227.609 331.727C227.109 332.211 226.469 332.55 225.688 332.742C224.884 332.94 224.104 332.922 223.346 332.689C222.599 332.452 221.951 332.023 221.4 331.399C220.85 330.776 220.462 330.008 220.238 329.095ZM227.901 327.225C227.733 326.543 227.449 325.982 227.049 325.544C226.649 325.106 226.18 324.812 225.642 324.665C225.112 324.504 224.567 324.492 224.005 324.63C223.444 324.768 222.965 325.026 222.568 325.404C222.171 325.782 221.897 326.258 221.746 326.832C221.596 327.406 221.605 328.034 221.773 328.717C221.943 329.41 222.23 329.981 222.632 330.431C223.032 330.869 223.497 331.169 224.027 331.33C224.554 331.481 225.098 331.487 225.66 331.349C226.221 331.21 226.7 330.952 227.097 330.574C227.503 330.183 227.781 329.7 227.931 329.126C228.079 328.541 228.069 327.907 227.901 327.225ZM231.262 320.06C230.976 320.13 230.71 320.091 230.463 319.941C230.216 319.792 230.057 319.574 229.987 319.288C229.916 319.002 229.956 318.736 230.105 318.489C230.255 318.242 230.472 318.083 230.758 318.013C231.033 317.945 231.289 317.987 231.525 318.139C231.772 318.288 231.93 318.506 232.001 318.792C232.071 319.078 232.032 319.345 231.883 319.592C231.744 319.836 231.537 319.992 231.262 320.06ZM232.35 321.35L234.578 330.396L233.076 330.766L230.848 321.72L232.35 321.35ZM235.455 325.348C235.227 324.423 235.215 323.568 235.419 322.783C235.619 321.986 235.997 321.316 236.551 320.771C237.117 320.223 237.801 319.85 238.605 319.652C239.397 319.457 240.127 319.458 240.794 319.656C241.461 319.854 242.002 320.176 242.415 320.622L242.009 318.972L243.527 318.598L245.755 327.644L244.236 328.018L243.821 326.334C243.654 326.935 243.317 327.485 242.809 327.984C242.31 328.468 241.67 328.807 240.889 328.999C240.085 329.197 239.31 329.178 238.563 328.942C237.816 328.705 237.168 328.276 236.618 327.652C236.067 327.029 235.68 326.261 235.455 325.348ZM243.118 323.478C242.95 322.796 242.666 322.235 242.267 321.797C241.867 321.359 241.398 321.066 240.86 320.918C240.33 320.757 239.784 320.745 239.223 320.883C238.662 321.021 238.182 321.279 237.785 321.657C237.388 322.035 237.114 322.511 236.964 323.085C236.813 323.659 236.822 324.287 236.99 324.97C237.161 325.663 237.447 326.234 237.85 326.684C238.25 327.122 238.714 327.422 239.244 327.583C239.772 327.734 240.316 327.74 240.877 327.602C241.438 327.463 241.917 327.205 242.315 326.827C242.72 326.436 242.998 325.953 243.149 325.379C243.296 324.794 243.286 324.16 243.118 323.478ZM251.011 321.517C250.783 320.593 250.771 319.738 250.974 318.953C251.175 318.156 251.553 317.485 252.107 316.94C252.673 316.393 253.363 316.018 254.177 315.818C254.958 315.626 255.684 315.634 256.354 315.842C257.032 316.037 257.571 316.354 257.971 316.792L257.564 315.141L259.083 314.767L262.367 328.105L260.849 328.479L259.381 322.52C259.22 323.097 258.885 323.634 258.378 324.133C257.87 324.631 257.22 324.978 256.428 325.173C255.636 325.368 254.866 325.348 254.119 325.111C253.372 324.875 252.724 324.445 252.174 323.822C251.623 323.199 251.236 322.431 251.011 321.517ZM258.674 319.648C258.506 318.966 258.222 318.405 257.822 317.967C257.423 317.528 256.954 317.235 256.415 317.088C255.885 316.926 255.34 316.915 254.779 317.053C254.217 317.191 253.738 317.449 253.341 317.827C252.944 318.205 252.67 318.681 252.52 319.255C252.369 319.829 252.378 320.457 252.546 321.139C252.717 321.833 253.003 322.404 253.406 322.853C253.805 323.292 254.27 323.592 254.8 323.753C255.327 323.903 255.872 323.909 256.433 323.771C256.994 323.633 257.473 323.375 257.87 322.997C258.276 322.605 258.554 322.123 258.704 321.549C258.852 320.964 258.842 320.33 258.674 319.648ZM269.644 312.167L271.871 321.213L270.369 321.583L270.04 320.246C269.868 320.778 269.555 321.24 269.103 321.632C268.659 322.01 268.129 322.274 267.513 322.426C266.809 322.6 266.141 322.612 265.509 322.464C264.875 322.305 264.32 321.975 263.847 321.473C263.384 320.968 263.05 320.298 262.844 319.461L261.539 314.163L263.025 313.797L264.281 318.898C264.5 319.789 264.895 320.421 265.465 320.794C266.033 321.156 266.708 321.241 267.489 321.049C268.292 320.851 268.864 320.448 269.204 319.839C269.545 319.23 269.598 318.452 269.365 317.506L268.142 312.537L269.644 312.167ZM281.462 313.687C281.532 313.973 281.59 314.279 281.636 314.607L274.406 316.387C274.68 317.265 275.155 317.889 275.83 318.26C276.513 318.617 277.251 318.698 278.043 318.503C278.693 318.343 279.195 318.061 279.551 317.659C279.916 317.242 280.123 316.759 280.175 316.209L281.793 315.811C281.764 316.74 281.455 317.569 280.864 318.298C280.271 319.016 279.435 319.508 278.356 319.774C277.498 319.985 276.68 319.982 275.903 319.765C275.137 319.545 274.475 319.13 273.916 318.521C273.355 317.9 272.959 317.123 272.729 316.187C272.498 315.252 272.483 314.386 272.684 313.589C272.885 312.793 273.275 312.125 273.854 311.586C274.441 311.032 275.175 310.647 276.056 310.431C276.914 310.219 277.719 310.219 278.472 310.431C279.224 310.643 279.858 311.035 280.373 311.609C280.896 312.169 281.259 312.861 281.462 313.687ZM279.833 313.755C279.692 313.183 279.445 312.724 279.092 312.379C278.736 312.024 278.312 311.795 277.82 311.695C277.337 311.58 276.831 311.588 276.303 311.718C275.543 311.905 274.954 312.307 274.534 312.924C274.125 313.538 273.987 314.284 274.122 315.161L279.833 313.755ZM287.883 317.428C287.189 317.599 286.539 317.636 285.932 317.541C285.322 317.434 284.806 317.211 284.384 316.871C283.959 316.521 283.663 316.074 283.494 315.532L285.046 315.15C285.201 315.591 285.501 315.908 285.945 316.102C286.401 316.293 286.937 316.313 287.553 316.161C288.125 316.02 288.545 315.782 288.813 315.448C289.081 315.114 289.168 314.754 289.073 314.369C288.975 313.973 288.727 313.724 288.329 313.624C287.928 313.513 287.336 313.454 286.553 313.449C285.838 313.438 285.244 313.397 284.772 313.327C284.308 313.243 283.878 313.062 283.483 312.786C283.097 312.496 282.832 312.06 282.688 311.476C282.574 311.014 282.607 310.557 282.788 310.104C282.968 309.651 283.284 309.252 283.736 308.907C284.186 308.551 284.735 308.294 285.384 308.134C286.386 307.887 287.257 307.941 287.998 308.296C288.738 308.65 289.239 309.262 289.5 310.132L287.998 310.502C287.848 310.036 287.562 309.704 287.14 309.505C286.728 309.303 286.231 309.273 285.648 309.417C285.108 309.55 284.708 309.771 284.445 310.081C284.183 310.39 284.098 310.732 284.19 311.106C284.263 311.404 284.418 311.628 284.654 311.78C284.898 311.918 285.178 312.013 285.494 312.064C285.818 312.1 286.256 312.127 286.809 312.142C287.501 312.159 288.073 312.205 288.524 312.28C288.971 312.345 289.38 312.513 289.75 312.784C290.132 313.052 290.395 313.459 290.542 314.007C290.664 314.502 290.636 314.982 290.458 315.446C290.281 315.91 289.967 316.319 289.518 316.675C289.077 317.017 288.532 317.268 287.883 317.428ZM293.178 307.685L294.491 313.017C294.599 313.457 294.77 313.748 295.003 313.889C295.233 314.019 295.58 314.027 296.042 313.913L297.148 313.641L297.461 314.912L296.107 315.245C295.271 315.451 294.596 315.413 294.083 315.131C293.57 314.849 293.205 314.267 292.988 313.387L291.676 308.055L290.504 308.344L290.199 307.106L291.371 306.817L290.81 304.539L292.312 304.169L292.873 306.447L295.233 305.866L295.538 307.104L293.178 307.685ZM297.468 303.758C297.181 303.828 296.915 303.789 296.668 303.64C296.421 303.49 296.263 303.273 296.192 302.986C296.122 302.7 296.161 302.434 296.31 302.187C296.46 301.94 296.677 301.781 296.964 301.711C297.239 301.643 297.494 301.685 297.73 301.837C297.977 301.987 298.135 302.204 298.206 302.491C298.276 302.777 298.237 303.043 298.088 303.29C297.949 303.534 297.743 303.69 297.468 303.758ZM298.556 305.048L300.783 314.094L299.281 314.464L297.053 305.418L298.556 305.048ZM307.325 312.641C306.477 312.849 305.66 312.846 304.872 312.632C304.094 312.415 303.421 312.003 302.851 311.396C302.29 310.776 301.894 309.998 301.664 309.062C301.436 308.138 301.434 307.275 301.657 306.473C301.888 305.657 302.304 304.977 302.905 304.432C303.504 303.876 304.232 303.493 305.09 303.282C305.949 303.07 306.772 303.072 307.56 303.286C308.345 303.49 309.023 303.895 309.593 304.501C310.173 305.105 310.579 305.875 310.809 306.811C311.039 307.746 311.033 308.623 310.791 309.441C310.558 310.246 310.136 310.927 309.527 311.486C308.917 312.044 308.183 312.429 307.325 312.641ZM307 311.32C307.539 311.187 308.014 310.936 308.425 310.567C308.836 310.197 309.122 309.724 309.283 309.147C309.456 308.568 309.453 307.915 309.274 307.189C309.095 306.462 308.8 305.881 308.389 305.446C307.979 305.01 307.512 304.728 306.991 304.599C306.466 304.46 305.934 304.457 305.395 304.59C304.845 304.725 304.37 304.976 303.97 305.343C303.578 305.696 303.307 306.16 303.157 306.734C303.006 307.308 303.02 307.958 303.199 308.684C303.381 309.422 303.666 310.011 304.055 310.452C304.454 310.891 304.911 311.181 305.425 311.323C305.935 311.454 306.46 311.453 307 311.32ZM316.041 300.568C317.142 300.297 318.116 300.413 318.963 300.916C319.808 301.408 320.385 302.282 320.694 303.536L322.007 308.868L320.521 309.234L319.261 304.117C319.039 303.214 318.644 302.582 318.076 302.22C317.506 301.847 316.83 301.756 316.049 301.949C315.256 302.144 314.684 302.547 314.333 303.159C313.993 303.768 313.939 304.546 314.172 305.492L315.404 310.494L313.902 310.864L311.674 301.818L313.176 301.448L313.494 302.736C313.677 302.2 313.99 301.744 314.434 301.366C314.889 300.985 315.425 300.719 316.041 300.568ZM327.699 307.624C327.006 307.795 326.356 307.832 325.749 307.737C325.139 307.63 324.623 307.407 324.201 307.067C323.776 306.717 323.479 306.27 323.311 305.728L324.862 305.346C325.018 305.786 325.317 306.104 325.762 306.298C326.218 306.489 326.754 306.509 327.37 306.357C327.942 306.216 328.362 305.978 328.63 305.644C328.898 305.31 328.984 304.95 328.889 304.565C328.792 304.168 328.544 303.92 328.146 303.82C327.745 303.708 327.153 303.65 326.369 303.644C325.655 303.634 325.061 303.593 324.589 303.523C324.124 303.439 323.695 303.258 323.3 302.982C322.913 302.692 322.648 302.256 322.505 301.672C322.391 301.21 322.424 300.753 322.604 300.3C322.785 299.847 323.101 299.448 323.553 299.103C324.002 298.747 324.551 298.49 325.201 298.33C326.202 298.083 327.073 298.137 327.814 298.492C328.555 298.846 329.056 299.458 329.317 300.328L327.815 300.697C327.665 300.232 327.379 299.9 326.956 299.701C326.545 299.499 326.047 299.469 325.464 299.613C324.925 299.746 324.524 299.967 324.262 300.277C324 300.586 323.915 300.928 324.007 301.302C324.08 301.6 324.234 301.824 324.47 301.976C324.714 302.114 324.994 302.209 325.31 302.259C325.635 302.296 326.073 302.323 326.625 302.338C327.318 302.355 327.89 302.401 328.34 302.476C328.788 302.541 329.197 302.709 329.567 302.98C329.948 303.248 330.212 303.655 330.358 304.203C330.48 304.698 330.453 305.178 330.275 305.642C330.097 306.105 329.784 306.515 329.335 306.871C328.894 307.213 328.349 307.464 327.699 307.624Z" fill="#232323"/>
<circle cx="55.2402" cy="346.613" r="18.5" fill="#023E6A"/>
<circle cx="89.9887" cy="256.361" r="12.2484" fill="#EB0001"/>
<circle cx="130.989" cy="316.361" r="12.2484" fill="#EB0001"/>
<circle cx="574.989" cy="300.361" r="12.2484" fill="#EB0001"/>
<circle cx="356.955" cy="339.328" r="28.2151" fill="#232323"/>
<circle cx="475.023" cy="316.396" r="23.2831" fill="#023E6A"/>
<circle cx="307.74" cy="349.113" r="21" fill="#EB0001"/>
<defs>
<clipPath id="clip0_2001_27758">
<rect width="68.1678" height="93.8223" fill="white" transform="translate(463.095 141.651) rotate(-45.3797)"/>
</clipPath>
<clipPath id="clip1_2001_27758">
<rect width="68.1678" height="93.8223" fill="white" transform="translate(498.71 16.6074) rotate(-13.7592)"/>
</clipPath>
</defs>
</svg>
