<svg width="330" height="162" viewBox="0 0 330 162" fill="none" xmlns="http://www.w3.org/2000/svg">
<g clip-path="url(#clip0_2001_27759)">
<path d="M179.242 61.8165L184.82 65.9734C185.068 66.1582 185.214 66.4147 185.259 66.7431C185.303 67.0714 185.231 67.3621 185.043 67.6151L180.8 73.3082C180.611 73.5612 180.353 73.7133 180.026 73.7645C179.699 73.8157 179.411 73.749 179.163 73.5642L173.585 69.4073C173.337 69.2225 173.191 68.966 173.147 68.6376C173.102 68.3093 173.174 68.0186 173.363 67.7656L177.605 62.0725C177.794 61.8195 178.052 61.6674 178.379 61.6162C178.707 61.565 178.994 61.6318 179.242 61.8165ZM170.883 43.9283C171.72 44.5518 172.411 45.2575 172.957 46.0453C173.502 46.8332 173.889 47.5516 174.116 48.2006C174.343 48.8496 174.48 49.628 174.527 50.5358C174.573 51.4437 174.571 52.1495 174.521 52.6533C174.471 53.1571 174.387 53.8443 174.268 54.7151C174.141 55.6291 174.241 56.546 174.568 57.4659C174.894 58.3857 175.251 58.99 175.639 59.2787C175.902 59.475 176.083 59.7575 176.182 60.1262C176.281 60.495 176.236 60.8059 176.047 61.0589L171.804 66.752C171.628 66.9892 171.334 67.084 170.924 67.0364C170.513 66.9889 170.161 66.8554 169.867 66.636L168.821 65.8566C167.535 64.8982 166.705 63.4806 166.332 61.604C165.96 59.7274 165.962 57.9703 166.339 56.3326C166.616 55.0878 166.677 54.1003 166.522 53.3701C166.367 52.6399 165.926 52.0034 165.198 51.4607C164.547 50.9757 163.7 50.9162 162.656 51.282C161.612 51.6479 160.73 52.3131 160.012 53.2778C159.246 54.3057 158.834 55.3271 158.776 56.3419C158.751 57.1841 159.012 58.6941 159.558 60.872C159.652 61.2623 159.594 61.5998 159.382 61.8845C159.24 62.0742 159.031 62.2257 158.754 62.3389L152.949 64.0641C152.641 64.1542 152.356 64.1325 152.094 63.9988C151.832 63.8651 151.648 63.66 151.541 63.3833C149.305 57.7816 149.978 52.5769 153.561 47.7695C154.504 46.5043 155.693 45.4103 157.128 44.4873C158.562 43.5643 160.066 42.8891 161.638 42.4616C163.209 42.0341 164.822 41.9321 166.475 42.1555C168.128 42.379 169.597 42.9699 170.883 43.9283Z" fill="#023E6A"/>
</g>
<rect x="0.667142" y="0.573443" width="131.218" height="21.5639" rx="10.782" transform="matrix(0.997164 -0.0752535 0.0753741 0.997155 47.4908 99.3353)" stroke="#232323" strokeWidth="1.24404"/>
<path d="M63.8802 105.785L64.3845 112.457L63.5071 112.523L63.131 107.548L61.2895 112.69L60.6724 112.737L58.0684 107.92L58.4452 112.905L57.5678 112.971L57.0634 106.299L58.0083 106.228L60.8935 111.556L62.9449 105.855L63.8802 105.785ZM70.4784 109.136C70.4911 109.303 70.4948 109.481 70.4896 109.669L66.2665 109.987C66.338 110.506 66.5456 110.9 66.8893 111.172C67.239 111.436 67.6453 111.551 68.1081 111.516C68.4873 111.488 68.7957 111.377 69.0333 111.185C69.2768 110.985 69.4388 110.734 69.5193 110.43L70.4642 110.359C70.3612 110.877 70.1097 111.313 69.7097 111.667C69.3093 112.014 68.7941 112.211 68.1642 112.259C67.6628 112.296 67.2044 112.218 66.7888 112.023C66.3797 111.828 66.0471 111.533 65.7911 111.138C65.5345 110.738 65.3856 110.264 65.3443 109.718C65.303 109.171 65.3761 108.684 65.5635 108.256C65.751 107.828 66.0325 107.49 66.4081 107.242C66.7896 106.987 67.2375 106.84 67.7517 106.801C68.2531 106.764 68.7048 106.839 69.107 107.029C69.5092 107.218 69.8277 107.498 70.0626 107.868C70.3034 108.231 70.442 108.654 70.4784 109.136ZM69.5583 109.021C69.533 108.687 69.4374 108.407 69.2716 108.18C69.1053 107.947 68.889 107.779 68.6227 107.676C68.3622 107.567 68.0778 107.523 67.7692 107.547C67.3257 107.58 66.9572 107.75 66.6636 108.057C66.3764 108.363 66.2293 108.768 66.2222 109.273L69.5583 109.021ZM71.3233 109.266C71.282 108.72 71.3554 108.236 71.5433 107.815C71.7307 107.387 72.0088 107.046 72.3775 106.792C72.7526 106.537 73.1908 106.391 73.6922 106.353C74.3414 106.304 74.8868 106.421 75.3284 106.705C75.7765 106.988 76.0891 107.404 76.2664 107.953L75.3215 108.024C75.2072 107.709 75.0112 107.469 74.7336 107.302C74.4624 107.135 74.134 107.066 73.7483 107.095C73.2469 107.133 72.8551 107.337 72.5728 107.708C72.29 108.072 72.1724 108.569 72.22 109.199C72.2681 109.835 72.4596 110.315 72.7943 110.639C73.1291 110.963 73.5472 111.106 74.0486 111.068C74.4342 111.039 74.7488 110.925 74.9923 110.725C75.2359 110.526 75.3932 110.255 75.4643 109.914L76.4092 109.842C76.3086 110.393 76.0586 110.848 75.6591 111.208C75.2592 111.562 74.741 111.762 74.1047 111.81C73.6033 111.848 73.1481 111.769 72.739 111.574C72.3363 111.378 72.0101 111.083 71.7605 110.688C71.5108 110.293 71.3651 109.819 71.3233 109.266ZM79.9241 105.873C80.3227 105.843 80.6892 105.903 81.0237 106.052C81.3577 106.195 81.6276 106.43 81.8333 106.757C82.0455 107.083 82.17 107.491 82.207 107.98L82.4424 111.094L81.5746 111.159L81.3487 108.17C81.3088 107.643 81.1467 107.251 80.8623 106.995C80.5773 106.732 80.2067 106.618 79.7503 106.652C79.2875 106.687 78.9288 106.86 78.6743 107.17C78.4262 107.479 78.323 107.911 78.3648 108.463L78.5856 111.385L77.7082 111.451L77.1689 104.316L78.0463 104.25L78.2431 106.853C78.3962 106.57 78.6183 106.343 78.9092 106.173C79.2066 106.002 79.5449 105.902 79.9241 105.873ZM83.3466 108.349C83.3058 107.809 83.3794 107.329 83.5673 106.907C83.7548 106.479 84.0296 106.139 84.3919 105.885C84.7605 105.631 85.1795 105.486 85.6487 105.451C86.1115 105.416 86.5208 105.485 86.8765 105.659C87.2323 105.832 87.5051 106.064 87.6951 106.353L87.6222 105.389L88.5093 105.322L88.9086 110.606L88.0216 110.673L87.9473 109.689C87.797 110.011 87.5561 110.288 87.2246 110.52C86.899 110.745 86.508 110.874 86.0516 110.909C85.5823 110.944 85.1494 110.86 84.7526 110.658C84.3559 110.455 84.0325 110.153 83.7823 109.752C83.5322 109.35 83.387 108.883 83.3466 108.349ZM87.8212 108.021C87.791 107.623 87.6845 107.282 87.5014 106.998C87.3184 106.715 87.0828 106.506 86.7948 106.373C86.5126 106.232 86.2077 106.175 85.8798 106.199C85.552 106.224 85.259 106.324 85.0006 106.498C84.7423 106.673 84.544 106.914 84.4057 107.222C84.2673 107.53 84.2132 107.883 84.2433 108.282C84.2739 108.687 84.381 109.034 84.5645 109.324C84.7476 109.608 84.9802 109.819 85.2623 109.96C85.5439 110.094 85.8486 110.148 86.1765 110.124C86.5043 110.099 86.7974 109.999 87.0557 109.824C87.3199 109.643 87.5212 109.398 87.6596 109.09C87.7974 108.776 87.8513 108.42 87.8212 108.021ZM92.5591 104.92C93.2019 104.871 93.7373 105.028 94.1655 105.39C94.5932 105.745 94.8347 106.29 94.8901 107.022L95.1255 110.137L94.2577 110.202L94.0318 107.213C93.992 106.686 93.8298 106.294 93.5454 106.038C93.2605 105.775 92.8898 105.661 92.4334 105.695C91.9706 105.73 91.612 105.903 91.3574 106.213C91.1093 106.522 91.0062 106.953 91.048 107.506L91.2688 110.428L90.3914 110.494L89.992 105.21L90.8694 105.144L90.9262 105.896C91.0794 105.613 91.2982 105.386 91.5827 105.216C91.8737 105.046 92.1991 104.947 92.5591 104.92ZM96.5477 103.852C96.3805 103.865 96.2348 103.818 96.1103 103.711C95.9859 103.604 95.9173 103.467 95.9047 103.3C95.8921 103.133 95.9392 102.987 96.0462 102.862C96.1531 102.738 96.2902 102.67 96.4573 102.657C96.618 102.645 96.7573 102.692 96.8754 102.8C96.9998 102.907 97.0684 103.044 97.081 103.211C97.0936 103.378 97.0465 103.524 96.9395 103.648C96.839 103.772 96.7084 103.84 96.5477 103.852ZM97.0368 104.679L97.4362 109.962L96.5588 110.028L96.1594 104.745L97.0368 104.679ZM98.4033 107.223C98.362 106.676 98.4353 106.192 98.6233 105.771C98.8107 105.343 99.0888 105.002 99.4574 104.748C99.8325 104.493 100.271 104.347 100.772 104.309C101.421 104.26 101.967 104.378 102.408 104.661C102.856 104.944 103.169 105.36 103.346 105.909L102.401 105.98C102.287 105.666 102.091 105.425 101.814 105.259C101.542 105.092 101.214 105.023 100.828 105.052C100.327 105.09 99.935 105.294 99.6527 105.664C99.37 106.028 99.2524 106.525 99.3 107.155C99.3481 107.791 99.5395 108.271 99.8743 108.595C100.209 108.919 100.627 109.062 101.129 109.024C101.514 108.995 101.829 108.881 102.072 108.681C102.316 108.482 102.473 108.212 102.544 107.87L103.489 107.799C103.389 108.349 103.139 108.805 102.739 109.164C102.339 109.518 101.821 109.719 101.185 109.767C100.683 109.804 100.228 109.726 99.8189 109.53C99.4162 109.334 99.0901 109.039 98.8404 108.644C98.5908 108.249 98.4451 107.775 98.4033 107.223ZM106.665 109.353C106.26 109.384 105.892 109.344 105.56 109.233C105.228 109.116 104.96 108.942 104.755 108.712C104.55 108.475 104.425 108.197 104.382 107.877L105.288 107.809C105.334 108.07 105.472 108.276 105.703 108.427C105.941 108.577 106.24 108.639 106.6 108.611C106.934 108.586 107.192 108.492 107.373 108.33C107.555 108.168 107.637 107.974 107.62 107.749C107.603 107.517 107.487 107.355 107.273 107.261C107.059 107.161 106.732 107.072 106.293 106.996C105.893 106.922 105.564 106.844 105.306 106.76C105.053 106.669 104.829 106.528 104.634 106.336C104.444 106.137 104.336 105.867 104.311 105.526C104.29 105.256 104.352 105.002 104.495 104.765C104.639 104.528 104.854 104.334 105.14 104.183C105.425 104.026 105.758 103.933 106.137 103.905C106.722 103.86 107.206 103.973 107.588 104.241C107.97 104.51 108.194 104.9 108.258 105.412L107.381 105.479C107.341 105.204 107.211 104.99 106.993 104.839C106.781 104.687 106.505 104.623 106.164 104.649C105.849 104.673 105.604 104.759 105.427 104.908C105.251 105.057 105.171 105.241 105.188 105.46C105.201 105.633 105.267 105.774 105.385 105.881C105.509 105.982 105.657 106.061 105.829 106.119C106.008 106.17 106.251 106.226 106.56 106.287C106.947 106.361 107.263 106.441 107.509 106.526C107.754 106.604 107.967 106.737 108.149 106.924C108.338 107.11 108.448 107.363 108.478 107.684C108.5 107.973 108.44 108.24 108.296 108.483C108.153 108.727 107.939 108.927 107.653 109.085C107.374 109.235 107.045 109.324 106.665 109.353ZM111.868 106.207C111.827 105.66 111.9 105.176 112.088 104.755C112.275 104.327 112.553 103.986 112.922 103.732C113.297 103.477 113.735 103.331 114.237 103.293C114.886 103.244 115.431 103.362 115.873 103.645C116.321 103.928 116.634 104.344 116.811 104.893L115.866 104.964C115.752 104.65 115.556 104.409 115.278 104.243C115.007 104.076 114.679 104.007 114.293 104.036C113.792 104.074 113.4 104.278 113.117 104.648C112.835 105.012 112.717 105.509 112.765 106.139C112.813 106.775 113.004 107.255 113.339 107.579C113.674 107.903 114.092 108.046 114.593 108.008C114.979 107.979 115.293 107.865 115.537 107.665C115.78 107.466 115.938 107.196 116.009 106.854L116.954 106.783C116.853 107.333 116.603 107.789 116.204 108.148C115.804 108.502 115.286 108.702 114.649 108.751C114.148 108.788 113.693 108.71 113.284 108.514C112.881 108.318 112.555 108.023 112.305 107.628C112.055 107.233 111.91 106.759 111.868 106.207ZM120.564 108.304C120.069 108.341 119.61 108.263 119.188 108.069C118.773 107.874 118.434 107.579 118.171 107.185C117.915 106.785 117.766 106.311 117.725 105.765C117.684 105.225 117.764 104.74 117.964 104.311C118.17 103.876 118.467 103.533 118.856 103.284C119.244 103.029 119.688 102.882 120.19 102.844C120.691 102.806 121.153 102.884 121.575 103.079C121.996 103.267 122.338 103.558 122.601 103.952C122.87 104.345 123.025 104.815 123.066 105.361C123.107 105.908 123.022 106.399 122.809 106.835C122.602 107.265 122.302 107.607 121.907 107.863C121.513 108.119 121.065 108.266 120.564 108.304ZM120.505 107.533C120.82 107.509 121.111 107.413 121.376 107.244C121.641 107.075 121.846 106.837 121.991 106.529C122.142 106.22 122.202 105.853 122.169 105.429C122.137 105.005 122.027 104.651 121.837 104.368C121.648 104.085 121.413 103.883 121.132 103.762C120.851 103.635 120.553 103.583 120.238 103.606C119.916 103.631 119.626 103.727 119.368 103.895C119.115 104.056 118.919 104.291 118.781 104.599C118.642 104.907 118.589 105.273 118.621 105.697C118.654 106.128 118.758 106.485 118.935 106.769C119.118 107.052 119.347 107.258 119.622 107.386C119.896 107.508 120.191 107.557 120.505 107.533ZM126.588 102.351C127.231 102.303 127.766 102.46 128.194 102.822C128.622 103.177 128.864 103.722 128.919 104.454L129.154 107.569L128.287 107.634L128.061 104.645C128.021 104.118 127.859 103.726 127.574 103.47C127.289 103.207 126.919 103.093 126.462 103.127C125.999 103.162 125.641 103.334 125.386 103.645C125.138 103.954 125.035 104.385 125.077 104.938L125.298 107.86L124.42 107.926L124.021 102.642L124.898 102.576L124.955 103.328C125.108 103.045 125.327 102.818 125.612 102.648C125.902 102.478 126.228 102.379 126.588 102.351ZM132.465 107.406C132.06 107.437 131.691 107.396 131.36 107.286C131.028 107.169 130.759 106.995 130.554 106.765C130.349 106.528 130.225 106.25 130.181 105.93L131.087 105.862C131.133 106.123 131.271 106.329 131.503 106.48C131.74 106.63 132.039 106.691 132.399 106.664C132.733 106.639 132.991 106.545 133.173 106.383C133.354 106.221 133.437 106.027 133.42 105.802C133.402 105.57 133.287 105.408 133.073 105.314C132.858 105.214 132.531 105.125 132.093 105.049C131.693 104.975 131.364 104.897 131.105 104.813C130.853 104.722 130.628 104.581 130.433 104.389C130.243 104.189 130.136 103.92 130.11 103.579C130.09 103.309 130.151 103.055 130.295 102.818C130.439 102.581 130.653 102.387 130.939 102.236C131.225 102.079 131.557 101.986 131.936 101.958C132.521 101.913 133.005 102.026 133.387 102.294C133.77 102.563 133.993 102.953 134.058 103.465L133.18 103.532C133.14 103.257 133.011 103.043 132.793 102.892C132.581 102.74 132.304 102.676 131.964 102.702C131.649 102.726 131.403 102.812 131.227 102.961C131.051 103.11 130.971 103.294 130.987 103.513C131 103.686 131.066 103.827 131.184 103.934C131.308 104.035 131.456 104.114 131.629 104.172C131.807 104.223 132.051 104.279 132.359 104.34C132.746 104.414 133.062 104.494 133.308 104.579C133.553 104.657 133.767 104.79 133.949 104.976C134.137 105.163 134.247 105.416 134.278 105.737C134.3 106.026 134.239 106.293 134.096 106.536C133.953 106.78 133.738 106.98 133.453 107.138C133.173 107.288 132.844 107.377 132.465 107.406ZM139.912 101.443L140.311 106.727L139.434 106.793L139.375 106.012C139.228 106.294 139.009 106.524 138.719 106.701C138.434 106.871 138.112 106.97 137.752 106.997C137.341 107.028 136.965 106.973 136.624 106.83C136.283 106.681 136.004 106.444 135.785 106.118C135.573 105.791 135.448 105.384 135.411 104.895L135.177 101.8L136.045 101.735L136.27 104.714C136.31 105.235 136.472 105.626 136.757 105.889C137.041 106.146 137.412 106.257 137.868 106.222C138.337 106.187 138.696 106.015 138.944 105.705C139.192 105.395 139.295 104.964 139.254 104.411L139.034 101.509L139.912 101.443ZM142.131 99.4137L142.67 106.549L141.792 106.615L141.253 99.4799L142.131 99.4137ZM144.891 101.794L145.126 104.909C145.146 105.166 145.214 105.345 145.332 105.446C145.449 105.541 145.642 105.578 145.912 105.557L146.558 105.508L146.614 106.251L145.824 106.311C145.335 106.347 144.96 106.263 144.699 106.056C144.438 105.85 144.288 105.489 144.249 104.975L144.013 101.861L143.329 101.912L143.274 101.189L143.959 101.138L143.858 99.807L144.736 99.7407L144.836 101.071L146.215 100.967L146.27 101.69L144.891 101.794ZM147.148 103.534C147.108 102.994 147.181 102.514 147.369 102.092C147.557 101.664 147.831 101.324 148.194 101.07C148.562 100.816 148.981 100.671 149.45 100.636C149.913 100.601 150.323 100.67 150.678 100.844C151.034 101.017 151.307 101.249 151.497 101.538L151.424 100.574L152.311 100.507L152.71 105.791L151.823 105.858L151.749 104.874C151.599 105.196 151.358 105.473 151.026 105.705C150.701 105.93 150.31 106.059 149.853 106.094C149.384 106.129 148.951 106.045 148.554 105.843C148.158 105.64 147.834 105.338 147.584 104.937C147.334 104.535 147.189 104.068 147.148 103.534ZM151.623 103.206C151.593 102.808 151.486 102.467 151.303 102.183C151.12 101.9 150.885 101.691 150.596 101.558C150.314 101.417 150.009 101.36 149.682 101.384C149.354 101.409 149.061 101.509 148.802 101.683C148.544 101.858 148.346 102.099 148.207 102.407C148.069 102.715 148.015 103.068 148.045 103.467C148.076 103.872 148.183 104.219 148.366 104.509C148.549 104.793 148.782 105.005 149.064 105.145C149.346 105.279 149.65 105.333 149.978 105.309C150.306 105.284 150.599 105.184 150.857 105.01C151.122 104.828 151.323 104.583 151.461 104.275C151.599 103.961 151.653 103.605 151.623 103.206ZM154.919 101.038L155.154 104.152C155.173 104.409 155.242 104.588 155.359 104.689C155.477 104.784 155.67 104.821 155.94 104.8L156.586 104.752L156.642 105.494L155.852 105.554C155.363 105.591 154.988 105.506 154.727 105.299C154.466 105.093 154.315 104.732 154.277 104.218L154.041 101.104L153.357 101.156L153.302 100.432L153.987 100.381L153.886 99.0502L154.763 98.984L154.864 100.315L156.243 100.21L156.297 100.934L154.919 101.038ZM157.694 99.2379C157.527 99.2505 157.381 99.2034 157.257 99.0964C157.132 98.9894 157.064 98.8524 157.051 98.6852C157.039 98.5181 157.086 98.3723 157.193 98.2479C157.3 98.1235 157.437 98.055 157.604 98.0423C157.764 98.0302 157.904 98.0779 158.022 98.1853C158.146 98.2923 158.215 98.4294 158.227 98.5965C158.24 98.7636 158.193 98.9094 158.086 99.0338C157.985 99.1578 157.855 99.2258 157.694 99.2379ZM158.183 100.064L158.583 105.348L157.705 105.414L157.306 100.13L158.183 100.064ZM162.389 105.148C161.894 105.185 161.436 105.107 161.014 104.912C160.598 104.717 160.259 104.423 159.997 104.029C159.74 103.628 159.591 103.154 159.55 102.608C159.509 102.068 159.589 101.584 159.789 101.155C159.995 100.719 160.293 100.377 160.681 100.128C161.069 99.8721 161.514 99.7254 162.015 99.6876C162.516 99.6497 162.978 99.728 163.4 99.9224C163.822 100.11 164.163 100.401 164.426 100.795C164.695 101.189 164.85 101.659 164.891 102.205C164.933 102.751 164.847 103.243 164.634 103.679C164.428 104.108 164.127 104.451 163.733 104.707C163.338 104.963 162.89 105.11 162.389 105.148ZM162.331 104.376C162.646 104.353 162.936 104.256 163.201 104.088C163.466 103.919 163.671 103.68 163.816 103.372C163.967 103.063 164.027 102.697 163.995 102.273C163.963 101.848 163.852 101.495 163.662 101.212C163.473 100.929 163.238 100.727 162.957 100.606C162.676 100.478 162.378 100.426 162.063 100.45C161.742 100.474 161.451 100.57 161.193 100.739C160.94 100.9 160.744 101.135 160.606 101.442C160.468 101.75 160.414 102.116 160.446 102.54C160.479 102.971 160.584 103.328 160.76 103.612C160.943 103.896 161.172 104.102 161.447 104.23C161.721 104.351 162.016 104.4 162.331 104.376ZM168.413 99.195C169.056 99.1465 169.591 99.3033 170.02 99.6653C170.447 100.021 170.689 100.565 170.744 101.298L170.98 104.412L170.112 104.478L169.886 101.489C169.846 100.962 169.684 100.57 169.399 100.313C169.114 100.05 168.744 99.9361 168.287 99.9706C167.825 100.005 167.466 100.178 167.211 100.488C166.963 100.798 166.86 101.229 166.902 101.782L167.123 104.703L166.245 104.769L165.846 99.4857L166.723 99.4195L166.78 100.172C166.933 99.8885 167.152 99.6619 167.437 99.4917C167.728 99.3211 168.053 99.2222 168.413 99.195Z" fill="#232323"/>
<rect x="0.856565" y="0.201686" width="51.3897" height="21.5639" rx="10.782" transform="matrix(0.850537 -0.525916 0.526528 0.850158 266.861 146.257)" stroke="#232323" strokeWidth="1.24404"/>
<path d="M288.143 146.185C288.231 146.328 288.316 146.484 288.398 146.653L284.796 148.88C285.099 149.307 285.465 149.562 285.895 149.644C286.327 149.718 286.741 149.633 287.136 149.389C287.459 149.189 287.682 148.949 287.804 148.669C287.929 148.38 287.956 148.082 287.888 147.775L288.694 147.277C288.842 147.785 288.819 148.287 288.627 148.785C288.431 149.277 288.065 149.69 287.528 150.022C287.1 150.286 286.657 150.428 286.198 150.446C285.745 150.461 285.314 150.352 284.905 150.12C284.492 149.883 284.142 149.531 283.853 149.065C283.565 148.6 283.405 148.134 283.374 147.668C283.343 147.202 283.438 146.772 283.657 146.379C283.878 145.977 284.208 145.64 284.646 145.369C285.074 145.105 285.51 144.964 285.954 144.947C286.399 144.93 286.81 145.031 287.189 145.252C287.571 145.463 287.888 145.774 288.143 146.185ZM287.273 146.507C287.097 146.222 286.883 146.017 286.631 145.893C286.376 145.762 286.106 145.713 285.823 145.744C285.541 145.767 285.268 145.86 285.005 146.022C284.627 146.256 284.378 146.577 284.259 146.984C284.145 147.388 284.201 147.816 284.428 148.267L287.273 146.507ZM293.212 140.062C293.562 139.845 293.921 139.725 294.287 139.704C294.649 139.677 295 139.759 295.338 139.951C295.677 140.144 295.976 140.448 296.234 140.864L297.878 143.52L297.138 143.977L295.56 141.429C295.281 140.98 294.957 140.707 294.586 140.61C294.217 140.504 293.844 140.569 293.466 140.802C293.076 141.043 292.845 141.361 292.771 141.755C292.693 142.144 292.8 142.574 293.092 143.046L294.63 145.528L293.889 145.986L292.311 143.438C292.033 142.988 291.708 142.715 291.338 142.619C290.969 142.513 290.595 142.577 290.217 142.811C289.828 143.052 289.596 143.369 289.522 143.764C289.445 144.153 289.552 144.583 289.844 145.054L291.381 147.537L290.633 148L287.843 143.495L288.591 143.032L288.993 143.682C288.995 143.354 289.081 143.051 289.249 142.773C289.424 142.491 289.661 142.257 289.963 142.07C290.341 141.836 290.728 141.714 291.124 141.705C291.52 141.695 291.891 141.81 292.237 142.051C292.166 141.655 292.222 141.28 292.404 140.925C292.586 140.57 292.855 140.282 293.212 140.062ZM297.421 140.665C297.136 140.204 296.98 139.744 296.952 139.283C296.921 138.817 297.008 138.388 297.213 137.997C297.423 137.601 297.728 137.28 298.129 137.032C298.523 136.788 298.919 136.661 299.314 136.652C299.71 136.642 300.059 136.722 300.361 136.891L299.852 136.069L300.609 135.601L303.399 140.106L302.642 140.574L302.123 139.735C302.138 140.09 302.051 140.446 301.864 140.805C301.679 141.154 301.391 141.45 301.002 141.69C300.602 141.938 300.179 142.063 299.733 142.066C299.287 142.068 298.861 141.949 298.454 141.708C298.047 141.467 297.703 141.119 297.421 140.665ZM301.242 138.313C301.032 137.973 300.78 137.72 300.487 137.553C300.193 137.385 299.888 137.309 299.571 137.323C299.256 137.328 298.958 137.417 298.679 137.59C298.399 137.763 298.185 137.987 298.036 138.261C297.887 138.534 297.823 138.84 297.842 139.177C297.861 139.514 297.975 139.852 298.186 140.192C298.4 140.537 298.655 140.796 298.951 140.969C299.245 141.136 299.549 141.217 299.864 141.212C300.176 141.201 300.471 141.109 300.751 140.936C301.031 140.763 301.245 140.54 301.394 140.266C301.544 139.983 301.61 139.673 301.591 139.336C301.569 138.994 301.452 138.653 301.242 138.313ZM301.807 133.849C301.664 133.937 301.513 133.962 301.353 133.924C301.194 133.887 301.07 133.797 300.981 133.654C300.893 133.512 300.868 133.361 300.905 133.201C300.943 133.041 301.033 132.917 301.176 132.829C301.313 132.745 301.458 132.723 301.613 132.764C301.772 132.801 301.896 132.891 301.985 133.034C302.073 133.176 302.098 133.327 302.061 133.487C302.029 133.643 301.944 133.764 301.807 133.849ZM302.622 134.356L305.412 138.861L304.663 139.324L301.873 134.819L302.622 134.356ZM303.668 131.527L307.436 137.61L306.687 138.073L302.92 131.989L303.668 131.527Z" fill="#232323"/>
<rect x="-0.263695" y="0.838914" width="111.919" height="21.5639" rx="10.782" transform="matrix(0.462824 0.88645 -0.886756 0.462238 17.4314 53.4752)" stroke="#023E6A" strokeWidth="1.24404"/>
<path d="M18.5597 72.6651C18.8998 73.3165 19.0707 73.9435 19.0726 74.5459C19.0831 75.151 18.9282 75.697 18.6079 76.1838C18.2906 76.6763 17.8261 77.082 17.2145 77.4008C16.6028 77.7197 16.0041 77.8682 15.4183 77.8464C14.8411 77.8274 14.3072 77.6405 13.8166 77.2857C13.3346 76.9336 12.9235 76.4318 12.5834 75.7804L11.6123 73.9204L17.5885 70.8052L18.5597 72.6651ZM13.2265 75.4452C13.6292 76.2166 14.1395 76.6994 14.7571 76.8935C15.3805 77.0847 16.0609 76.9881 16.7983 76.6037C17.5414 76.2163 18.0142 75.7082 18.2166 75.0793C18.4221 74.456 18.3249 73.7616 17.9252 72.9959L17.3613 71.9159L12.6626 74.3652L13.2265 75.4452ZM20.4485 77.5364C20.3709 77.3878 20.3567 77.2353 20.4059 77.0788C20.4551 76.9223 20.554 76.8053 20.7026 76.7278C20.8513 76.6504 21.0039 76.6362 21.1605 76.6855C21.3171 76.7347 21.4341 76.8336 21.5117 76.9821C21.5863 77.125 21.5975 77.2718 21.5453 77.4226C21.4961 77.5791 21.3972 77.6961 21.2486 77.7735C21.1 77.851 20.9474 77.8651 20.7908 77.8159C20.6372 77.7724 20.5231 77.6792 20.4485 77.5364ZM19.8823 78.3113L15.1836 80.7606L14.7764 79.9806L19.4751 77.5313L19.8823 78.3113ZM21.857 81.8845C22.1553 82.4559 22.2226 83.0096 22.0589 83.5457C21.9009 84.0787 21.4961 84.5151 20.8445 84.8548L18.075 86.2984L17.6722 85.527L20.3302 84.1415C20.799 83.8971 21.0951 83.5938 21.2185 83.2314C21.3477 82.866 21.3064 82.4804 21.0946 82.0747C20.8798 81.6633 20.5796 81.4018 20.1941 81.2901C19.8116 81.1842 19.3745 81.2594 18.8829 81.5156L16.2849 82.8699L15.8777 82.0899L20.5764 79.6406L20.9836 80.4206L20.3148 80.7692C20.6354 80.7984 20.9301 80.9101 21.1988 81.1044C21.4705 81.3045 21.6899 81.5645 21.857 81.8845ZM24.7195 87.3671C25.0178 87.9385 25.0852 88.4922 24.9214 89.0283C24.7634 89.5613 24.3586 89.9977 23.707 90.3374L20.9375 91.781L20.5347 91.0096L23.1928 89.6241C23.6615 89.3797 23.9576 89.0764 24.0811 88.714C24.2102 88.3486 24.1689 87.963 23.9571 87.5573C23.7423 87.1459 23.4421 86.8844 23.0566 86.7728C22.6741 86.6668 22.237 86.742 21.7454 86.9983L19.1474 88.3525L18.7402 87.5725L23.4389 85.1233L23.8461 85.9032L23.1773 86.2519C23.498 86.281 23.7926 86.3927 24.0614 86.587C24.333 86.7871 24.5524 87.0471 24.7195 87.3671ZM26.3697 96.0223C26.2211 96.0998 26.0594 96.1731 25.8847 96.2424L23.9246 92.4882C23.4765 92.7581 23.1956 93.1045 23.0818 93.5272C22.9767 93.9527 23.0316 94.3712 23.2464 94.7826C23.4224 95.1198 23.6458 95.3595 23.9165 95.5019C24.1958 95.6471 24.4909 95.6968 24.8016 95.6512L25.2401 96.4912C24.7229 96.6009 24.2229 96.5416 23.7402 96.3135C23.2632 96.0823 22.8785 95.6868 22.5862 95.1268C22.3535 94.6811 22.2447 94.2289 22.2597 93.7704C22.2778 93.3175 22.4176 92.8957 22.679 92.505C22.9461 92.1114 23.3226 91.7879 23.8085 91.5346C24.2944 91.2813 24.7709 91.1565 25.2382 91.1601C25.7055 91.1637 26.1273 91.2891 26.5036 91.5364C26.8887 91.7863 27.2005 92.1399 27.4392 92.597C27.6719 93.0428 27.7806 93.4877 27.7652 93.9318C27.7499 94.376 27.6185 94.7789 27.371 95.1405C27.1322 95.5049 26.7984 95.7988 26.3697 96.0223ZM26.112 95.1317C26.4092 94.9767 26.6293 94.7784 26.7721 94.5368C26.9207 94.2921 26.9897 94.0272 26.9789 93.742C26.9769 93.4596 26.9043 93.1812 26.7611 92.9069C26.5552 92.5126 26.2534 92.241 25.8557 92.0922C25.461 91.949 25.0303 91.9736 24.5635 92.166L26.112 95.1317ZM28.7207 97.0989C29.0609 97.096 29.371 97.1815 29.6509 97.3554C29.9338 97.5351 30.1707 97.8078 30.3616 98.1735L29.5556 98.5936L29.4482 98.3879C28.9918 97.5136 28.2891 97.3238 27.3402 97.8184L24.7851 99.1504L24.3778 98.3704L29.0765 95.9211L29.4838 96.7011L28.7207 97.0989ZM35.2059 107.661L29.742 108.644L29.3213 107.839L32.4604 104.763L28.1399 105.576L27.7192 104.77L31.6482 100.847L32.0644 101.644L28.6841 104.78L33.2369 103.889L33.653 104.687L30.2955 107.887L34.8032 106.889L35.2059 107.661ZM36.5835 108.44C36.506 108.291 36.4918 108.139 36.541 107.982C36.5901 107.826 36.689 107.709 36.8377 107.631C36.9863 107.554 37.1389 107.54 37.2955 107.589C37.4521 107.638 37.5692 107.737 37.6467 107.886C37.7213 108.029 37.7325 108.175 37.6804 108.326C37.6312 108.483 37.5323 108.6 37.3836 108.677C37.235 108.755 37.0824 108.769 36.9258 108.719C36.7722 108.676 36.6581 108.583 36.5835 108.44ZM36.0173 109.215L31.3186 111.664L30.9114 110.884L35.6101 108.435L36.0173 109.215ZM36.5651 111.831L33.7956 113.274C33.5669 113.394 33.4294 113.527 33.3829 113.675C33.3422 113.82 33.3845 114.012 33.5098 114.252L33.8096 114.826L33.1494 115.171L32.7824 114.468C32.5557 114.033 32.4857 113.656 32.5724 113.334C32.6591 113.013 32.931 112.733 33.3883 112.494L36.1578 111.051L35.8401 110.442L36.4832 110.107L36.8009 110.716L37.9841 110.099L38.3914 110.879L37.2081 111.496L37.8481 112.721L37.205 113.057L36.5651 111.831ZM39.6445 115.953C39.8295 116.307 39.9194 116.668 39.9142 117.034C39.9148 117.397 39.8053 117.737 39.5859 118.055C39.3695 118.379 39.044 118.654 38.6096 118.88L35.8401 120.324L35.4373 119.553L38.0954 118.167C38.5641 117.923 38.8602 117.619 38.9837 117.257C39.1129 116.892 39.0715 116.506 38.8597 116.1C38.6449 115.689 38.3447 115.427 37.9592 115.316C37.5767 115.21 37.1396 115.285 36.648 115.541L34.0501 116.896L33.6428 116.116L39.9878 112.808L40.395 113.588L38.0799 114.795C38.4006 114.824 38.6967 114.939 38.9684 115.139C39.2431 115.344 39.4685 115.616 39.6445 115.953ZM44.6458 122.628C44.9859 123.28 45.1569 123.906 45.1587 124.509C45.1692 125.114 45.0143 125.66 44.694 126.147C44.3767 126.639 43.9122 127.045 43.3006 127.364C42.689 127.683 42.0902 127.831 41.5044 127.809C40.9273 127.79 40.3934 127.603 39.9027 127.249C39.4207 126.897 39.0096 126.395 38.6695 125.743L37.6984 123.883L43.6747 120.768L44.6458 122.628ZM39.3126 125.408C39.7154 126.18 40.2256 126.662 40.8433 126.856C41.4666 127.048 42.147 126.951 42.8844 126.567C43.6275 126.179 44.1003 125.671 44.3028 125.042C44.5082 124.419 44.4111 123.725 44.0113 122.959L43.4474 121.879L38.7487 124.328L39.3126 125.408ZM43.0768 128.419C43.557 128.168 44.0278 128.046 44.4894 128.053C44.9567 128.057 45.3784 128.175 45.7544 128.408C46.1335 128.646 46.4319 128.974 46.6497 129.391C46.8645 129.803 46.9624 130.206 46.9433 130.601C46.9243 130.996 46.8192 131.338 46.6281 131.627L47.4855 131.18L47.8972 131.968L43.1985 134.418L42.7868 133.629L43.6614 133.173C43.3065 133.162 42.957 133.05 42.613 132.837C42.2776 132.626 42.0041 132.318 41.7922 131.912C41.5744 131.495 41.4804 131.064 41.5102 130.62C41.5399 130.176 41.6899 129.759 41.96 129.371C42.2301 128.983 42.6024 128.666 43.0768 128.419ZM45.1447 132.4C45.4991 132.215 45.7705 131.983 45.9589 131.703C46.1472 131.423 46.2459 131.125 46.2548 130.807C46.2724 130.493 46.2051 130.19 46.0529 129.899C45.9008 129.607 45.6934 129.377 45.431 129.209C45.1685 129.04 44.8685 128.953 44.5309 128.947C44.1934 128.941 43.8474 129.031 43.493 129.216C43.1329 129.403 42.8558 129.639 42.6617 129.922C42.4734 130.202 42.3704 130.499 42.3528 130.813C42.3409 131.125 42.411 131.426 42.5632 131.718C42.7154 132.009 42.9227 132.239 43.1852 132.407C43.4564 132.579 43.7607 132.667 44.0983 132.673C44.4415 132.676 44.7903 132.585 45.1447 132.4ZM45.5199 137.109L50.2591 136.492L50.6932 137.324L45.0324 137.93L44.558 137.022L48.2945 132.729L48.7331 133.569L45.5199 137.109ZM51.1622 143.508C51.0136 143.585 50.8519 143.658 50.6772 143.728L48.7171 139.974C48.269 140.243 47.9881 140.59 47.8743 141.013C47.7692 141.438 47.8241 141.857 48.0389 142.268C48.2149 142.605 48.4383 142.845 48.709 142.987C48.9884 143.132 49.2834 143.182 49.5941 143.137L50.0327 143.977C49.5154 144.086 49.0155 144.027 48.5328 143.799C48.0558 143.568 47.6711 143.172 47.3787 142.612C47.146 142.166 47.0372 141.714 47.0523 141.256C47.0704 140.803 47.2101 140.381 47.4715 139.99C47.7386 139.597 48.1151 139.273 48.601 139.02C49.0869 138.767 49.5635 138.642 50.0307 138.645C50.498 138.649 50.9198 138.774 51.2962 139.022C51.6812 139.272 51.993 139.625 52.2317 140.082C52.4644 140.528 52.5731 140.973 52.5578 141.417C52.5424 141.861 52.411 142.264 52.1635 142.626C51.9247 142.99 51.5909 143.284 51.1622 143.508ZM50.9045 142.617C51.2017 142.462 51.4218 142.264 51.5647 142.022C51.7133 141.777 51.7822 141.513 51.7715 141.227C51.7694 140.945 51.6968 140.667 51.5536 140.392C51.3477 139.998 51.046 139.726 50.6483 139.577C50.2536 139.434 49.8228 139.459 49.3561 139.651L50.9045 142.617Z" fill="#232323"/>
<rect x="0.0424405" y="0.878294" width="101.392" height="21.5639" rx="10.782" transform="matrix(0.740681 0.671857 -0.672451 0.740142 192.877 81.9385)" stroke="#EB0001" strokeWidth="1.24404"/>
<path d="M197.239 96.5897C197.784 97.0834 198.161 97.6126 198.371 98.1772C198.59 98.7414 198.633 99.3072 198.5 99.8747C198.373 100.447 198.077 100.988 197.613 101.498C197.15 102.009 196.639 102.355 196.082 102.537C195.534 102.719 194.968 102.728 194.385 102.564C193.811 102.4 193.252 102.072 192.707 101.578L191.153 100.168L195.685 95.18L197.239 96.5897ZM193.195 101.041C193.839 101.626 194.485 101.902 195.132 101.871C195.783 101.835 196.388 101.509 196.947 100.894C197.511 100.274 197.779 99.6336 197.752 98.9735C197.729 98.3177 197.398 97.6996 196.758 97.1193L195.856 96.3007L192.293 100.223L193.195 101.041ZM200.695 100.508C200.571 100.395 200.505 100.257 200.497 100.093C200.489 99.9293 200.542 99.7854 200.654 99.6614C200.767 99.5373 200.905 99.4713 201.069 99.4634C201.233 99.4555 201.377 99.5078 201.501 99.6204C201.621 99.7287 201.682 99.8626 201.685 100.022C201.693 100.186 201.641 100.33 201.528 100.454C201.415 100.578 201.277 100.644 201.113 100.652C200.954 100.664 200.815 100.616 200.695 100.508ZM200.432 101.431L196.869 105.352L196.217 104.761L199.78 100.839L200.432 101.431ZM199.53 104.164C199.894 103.763 200.294 103.486 200.73 103.333C201.169 103.175 201.606 103.14 202.039 103.228C202.478 103.321 202.871 103.526 203.22 103.842C203.563 104.154 203.794 104.498 203.913 104.876C204.032 105.253 204.051 105.61 203.972 105.947L204.622 105.232L205.281 105.829L201.718 109.751L201.059 109.153L201.722 108.423C201.385 108.536 201.018 108.551 200.622 108.47C200.234 108.388 199.871 108.194 199.532 107.886C199.184 107.57 198.947 107.198 198.821 106.771C198.695 106.344 198.692 105.901 198.812 105.444C198.931 104.987 199.171 104.56 199.53 104.164ZM202.847 107.185C203.116 106.89 203.29 106.578 203.37 106.25C203.45 105.922 203.44 105.608 203.338 105.307C203.246 105.006 203.078 104.745 202.835 104.524C202.591 104.303 202.317 104.159 202.013 104.092C201.708 104.024 201.396 104.046 201.078 104.158C200.759 104.269 200.465 104.472 200.196 104.768C199.923 105.069 199.745 105.385 199.66 105.718C199.58 106.045 199.586 106.36 199.678 106.661C199.775 106.957 199.945 107.216 200.188 107.437C200.432 107.658 200.706 107.802 201.01 107.869C201.324 107.936 201.64 107.914 201.959 107.803C202.282 107.687 202.578 107.481 202.847 107.185ZM208.059 108.232C208.398 108.54 208.627 108.882 208.746 109.259C208.869 109.641 208.891 110.001 208.812 110.337L209.462 109.622L210.121 110.219L206.48 114.227C206.154 114.585 205.79 114.833 205.386 114.971C204.977 115.114 204.558 115.134 204.128 115.032C203.704 114.934 203.303 114.714 202.926 114.371C202.41 113.904 202.091 113.392 201.968 112.837C201.845 112.282 201.944 111.766 202.263 111.29L202.908 111.875C202.763 112.178 202.737 112.503 202.832 112.85C202.922 113.202 203.124 113.52 203.439 113.806C203.797 114.131 204.19 114.283 204.619 114.262C205.052 114.246 205.452 114.035 205.821 113.629L206.568 112.806C206.231 112.918 205.867 112.936 205.475 112.859C205.084 112.782 204.718 112.59 204.379 112.283C204.031 111.967 203.791 111.593 203.661 111.161C203.535 110.734 203.532 110.291 203.651 109.834C203.771 109.377 204.01 108.95 204.37 108.554C204.734 108.153 205.134 107.876 205.569 107.723C206.009 107.565 206.446 107.53 206.879 107.619C207.317 107.711 207.711 107.916 208.059 108.232ZM207.687 111.575C207.955 111.28 208.13 110.968 208.21 110.64C208.29 110.312 208.279 109.998 208.178 109.697C208.086 109.396 207.918 109.135 207.675 108.914C207.431 108.693 207.157 108.549 206.852 108.482C206.548 108.415 206.236 108.436 205.917 108.548C205.599 108.659 205.305 108.862 205.036 109.158C204.763 109.459 204.584 109.775 204.5 110.108C204.42 110.436 204.426 110.75 204.518 111.051C204.615 111.348 204.785 111.606 205.028 111.827C205.272 112.048 205.546 112.192 205.85 112.259C206.164 112.326 206.48 112.304 206.799 112.193C207.122 112.077 207.418 111.871 207.687 111.575ZM213.199 112.881C213.677 113.314 213.931 113.811 213.963 114.37C213.999 114.925 213.77 115.474 213.276 116.018L211.175 118.33L210.531 117.745L212.546 115.527C212.902 115.135 213.075 114.748 213.066 114.366C213.061 113.978 212.889 113.631 212.55 113.323C212.206 113.011 211.834 112.87 211.433 112.898C211.038 112.931 210.654 113.153 210.281 113.563L208.311 115.731L207.659 115.14L211.222 111.218L211.874 111.81L211.367 112.368C211.678 112.284 211.993 112.287 212.312 112.377C212.636 112.471 212.932 112.639 213.199 112.881ZM213.893 120.913C213.525 120.579 213.267 120.192 213.118 119.753C212.974 119.317 212.954 118.869 213.06 118.408C213.175 117.946 213.416 117.512 213.785 117.107C214.149 116.706 214.555 116.431 215.005 116.281C215.463 116.131 215.916 116.112 216.365 116.222C216.817 116.328 217.23 116.55 217.602 116.888C217.974 117.226 218.235 117.615 218.384 118.054C218.538 118.489 218.562 118.938 218.456 119.399C218.355 119.865 218.121 120.3 217.752 120.706C217.384 121.111 216.968 121.387 216.505 121.532C216.051 121.677 215.595 121.695 215.138 121.585C214.68 121.474 214.266 121.25 213.893 120.913ZM214.413 120.34C214.647 120.552 214.917 120.697 215.222 120.773C215.527 120.85 215.841 120.834 216.165 120.728C216.493 120.625 216.8 120.416 217.086 120.101C217.372 119.787 217.553 119.463 217.628 119.131C217.703 118.799 217.688 118.489 217.583 118.203C217.482 117.911 217.315 117.659 217.081 117.447C216.842 117.23 216.573 117.086 216.273 117.014C215.982 116.941 215.677 116.96 215.358 117.072C215.039 117.183 214.737 117.396 214.451 117.711C214.16 118.03 213.973 118.352 213.888 118.675C213.808 119.003 213.816 119.311 213.912 119.598C214.012 119.881 214.179 120.128 214.413 120.34ZM218.152 124.776C217.851 124.503 217.627 124.208 217.479 123.891C217.336 123.57 217.277 123.256 217.303 122.949C217.334 122.637 217.451 122.355 217.653 122.104L218.326 122.715C218.168 122.927 218.113 123.17 218.163 123.441C218.217 123.716 218.378 123.976 218.645 124.218C218.894 124.443 219.139 124.566 219.382 124.586C219.625 124.606 219.822 124.533 219.974 124.366C220.13 124.194 220.169 123.999 220.09 123.779C220.015 123.554 219.854 123.256 219.608 122.885C219.386 122.545 219.217 122.252 219.1 122.007C218.992 121.761 218.941 121.501 218.946 121.227C218.96 120.953 219.082 120.689 219.312 120.436C219.494 120.236 219.72 120.106 219.991 120.048C220.263 119.989 220.551 120.011 220.858 120.115C221.168 120.214 221.464 120.392 221.746 120.647C222.181 121.041 222.432 121.469 222.5 121.931C222.568 122.393 222.438 122.824 222.11 123.223L221.459 122.632C221.631 122.413 221.697 122.173 221.657 121.91C221.621 121.652 221.477 121.408 221.224 121.179C220.99 120.966 220.758 120.848 220.529 120.822C220.299 120.797 220.111 120.865 219.963 121.027C219.846 121.156 219.79 121.3 219.793 121.46C219.805 121.619 219.849 121.781 219.926 121.946C220.011 122.111 220.138 122.326 220.306 122.591C220.518 122.923 220.678 123.208 220.786 123.444C220.897 123.676 220.948 123.922 220.938 124.183C220.932 124.447 220.824 124.701 220.612 124.944C220.417 125.159 220.181 125.298 219.906 125.361C219.63 125.425 219.337 125.407 219.027 125.308C218.725 125.209 218.434 125.031 218.152 124.776ZM224.433 124.181L222.333 126.493C222.16 126.683 222.077 126.856 222.084 127.011C222.096 127.161 222.202 127.327 222.403 127.509L222.883 127.944L222.382 128.495L221.795 127.962C221.432 127.633 221.235 127.303 221.206 126.971C221.176 126.64 221.335 126.283 221.681 125.901L223.781 123.59L223.273 123.129L223.761 122.592L224.269 123.053L225.166 122.066L225.818 122.657L224.921 123.644L225.945 124.573L225.457 125.11L224.433 124.181ZM227.65 124.958C227.526 124.845 227.46 124.707 227.452 124.543C227.444 124.379 227.496 124.236 227.609 124.111C227.722 123.987 227.86 123.921 228.024 123.914C228.188 123.906 228.332 123.958 228.456 124.071C228.576 124.179 228.637 124.313 228.64 124.472C228.648 124.636 228.595 124.78 228.483 124.904C228.37 125.028 228.232 125.094 228.068 125.102C227.909 125.114 227.769 125.066 227.65 124.958ZM227.386 125.881L223.823 129.803L223.172 129.211L226.735 125.29L227.386 125.881ZM226.479 128.621C226.847 128.216 227.249 127.936 227.684 127.783C228.124 127.625 228.563 127.592 229.001 127.685C229.444 127.782 229.852 128 230.224 128.338C230.707 128.775 230.997 129.251 231.095 129.767C231.197 130.286 231.11 130.799 230.833 131.305L230.132 130.668C230.281 130.369 230.321 130.062 230.251 129.746C230.186 129.434 230.01 129.148 229.724 128.889C229.351 128.551 228.933 128.407 228.47 128.457C228.011 128.501 227.569 128.758 227.145 129.225C226.715 129.698 226.498 130.167 226.494 130.632C226.489 131.098 226.672 131.499 227.045 131.837C227.331 132.097 227.631 132.247 227.943 132.286C228.255 132.326 228.56 132.254 228.857 132.071L229.559 132.708C229.09 133.013 228.587 133.145 228.051 133.102C227.519 133.055 227.017 132.817 226.544 132.388C226.172 132.05 225.916 131.666 225.776 131.235C225.642 130.808 225.632 130.368 225.747 129.916C225.862 129.463 226.106 129.031 226.479 128.621ZM233.201 137.212L237.435 134.996L238.13 135.626L233.027 138.151L232.268 137.463L234.291 132.144L234.993 132.781L233.201 137.212ZM239.687 135.876C239.562 135.764 239.496 135.625 239.488 135.461C239.481 135.298 239.533 135.154 239.646 135.03C239.758 134.906 239.897 134.84 240.061 134.832C240.225 134.824 240.369 134.876 240.493 134.989C240.612 135.097 240.673 135.231 240.677 135.39C240.684 135.554 240.632 135.698 240.519 135.822C240.407 135.946 240.268 136.012 240.104 136.02C239.945 136.032 239.806 135.984 239.687 135.876ZM239.423 136.799L235.86 140.721L235.208 140.13L238.771 136.208L239.423 136.799ZM238.522 139.532C238.886 139.131 239.286 138.854 239.721 138.701C240.161 138.543 240.597 138.508 241.031 138.597C241.469 138.69 241.865 138.896 242.218 139.217C242.524 139.494 242.743 139.823 242.875 140.204C243.012 140.581 243.046 140.947 242.976 141.301L244.862 139.226L245.521 139.823L240.709 145.119L240.05 144.522L240.72 143.785C240.379 143.901 240.012 143.921 239.62 143.845C239.233 143.763 238.87 143.568 238.531 143.261C238.182 142.945 237.943 142.571 237.812 142.139C237.687 141.712 237.683 141.27 237.803 140.812C237.922 140.355 238.162 139.928 238.522 139.532ZM241.838 142.554C242.107 142.258 242.281 141.946 242.361 141.618C242.441 141.291 242.431 140.976 242.33 140.676C242.237 140.374 242.07 140.113 241.826 139.893C241.583 139.672 241.309 139.528 241.004 139.46C240.699 139.393 240.388 139.415 240.069 139.526C239.75 139.637 239.456 139.841 239.188 140.136C238.915 140.437 238.736 140.753 238.652 141.086C238.572 141.414 238.578 141.728 238.67 142.029C238.766 142.326 238.936 142.584 239.18 142.805C239.423 143.026 239.697 143.17 240.002 143.238C240.316 143.305 240.632 143.283 240.95 143.171C241.274 143.055 241.57 142.849 241.838 142.554ZM247.309 147.255C247.197 147.379 247.07 147.504 246.93 147.629L243.793 144.784C243.466 145.192 243.322 145.614 243.362 146.05C243.41 146.486 243.606 146.86 243.95 147.171C244.232 147.427 244.524 147.575 244.827 147.615C245.14 147.654 245.434 147.599 245.71 147.449L246.411 148.086C245.964 148.367 245.474 148.484 244.942 148.437C244.415 148.385 243.917 148.147 243.449 147.722C243.077 147.385 242.818 146.998 242.674 146.562C242.535 146.131 242.52 145.687 242.63 145.23C242.745 144.769 242.987 144.335 243.355 143.929C243.723 143.524 244.128 143.242 244.567 143.084C245.007 142.926 245.446 142.898 245.885 143C246.333 143.101 246.747 143.325 247.129 143.672C247.502 144.01 247.758 144.39 247.897 144.812C248.036 145.234 248.052 145.657 247.944 146.082C247.846 146.506 247.635 146.898 247.309 147.255ZM246.76 146.509C246.985 146.261 247.123 145.999 247.174 145.722C247.229 145.441 247.202 145.169 247.093 144.905C246.994 144.641 246.829 144.405 246.6 144.197C246.271 143.898 245.894 143.747 245.469 143.745C245.049 143.747 244.653 143.919 244.282 144.261L246.76 146.509ZM247.905 151.764C247.537 151.43 247.279 151.044 247.13 150.604C246.985 150.168 246.966 149.72 247.072 149.259C247.186 148.797 247.428 148.363 247.796 147.958C248.16 147.557 248.567 147.282 249.016 147.133C249.475 146.983 249.928 146.963 250.376 147.074C250.829 147.18 251.241 147.401 251.614 147.739C251.986 148.077 252.247 148.466 252.396 148.906C252.549 149.341 252.573 149.789 252.468 150.25C252.367 150.716 252.132 151.151 251.764 151.557C251.395 151.962 250.98 152.238 250.516 152.384C250.062 152.529 249.607 152.546 249.149 152.436C248.692 152.326 248.277 152.102 247.905 151.764ZM248.425 151.191C248.659 151.404 248.928 151.548 249.233 151.624C249.538 151.701 249.853 151.686 250.176 151.579C250.504 151.476 250.812 151.268 251.098 150.953C251.384 150.638 251.565 150.314 251.64 149.982C251.715 149.65 251.7 149.341 251.595 149.054C251.494 148.762 251.327 148.51 251.093 148.298C250.854 148.082 250.585 147.937 250.284 147.865C249.993 147.792 249.688 147.812 249.369 147.923C249.051 148.034 248.748 148.247 248.462 148.562C248.172 148.882 247.984 149.203 247.899 149.527C247.819 149.854 247.827 150.162 247.923 150.449C248.024 150.732 248.191 150.979 248.425 151.191Z" fill="#232323"/>
<rect x="0.170938" y="0.86257" width="79.4611" height="21.5639" rx="10.782" transform="matrix(0.831281 0.555853 -0.556471 0.830867 27.8647 37.0509)" stroke="#EB0001" strokeWidth="1.24404"/>
<path d="M34.5969 58.2505L37.3298 60.0779L36.9047 60.7126L33.3038 58.3047L33.6912 57.7263L39.3458 55.1565L36.6612 53.3613L37.0862 52.7266L40.639 55.1022L40.2516 55.6807L34.5969 58.2505ZM39.7742 62.736C39.3616 62.4601 39.0492 62.1155 38.8372 61.7023C38.6305 61.2927 38.5455 60.852 38.5822 60.3803C38.6278 59.9067 38.803 59.4423 39.108 58.9871C39.4093 58.5372 39.7712 58.2054 40.1937 57.9916C40.6251 57.776 41.0706 57.69 41.5301 57.7337C41.9933 57.772 42.4338 57.9308 42.8518 58.2103C43.2697 58.4898 43.5848 58.8361 43.7968 59.2493C44.0124 59.6572 44.1019 60.097 44.0652 60.5687C44.0339 61.0441 43.8658 61.5094 43.5609 61.9647C43.256 62.4199 42.8852 62.7535 42.4484 62.9655C42.0205 63.1757 41.5724 63.2599 41.1039 63.218C40.6354 63.1761 40.1921 63.0155 39.7742 62.736ZM40.2046 62.0933C40.4672 62.2689 40.7549 62.3721 41.0679 62.403C41.3808 62.4339 41.6894 62.3727 41.9937 62.2195C42.3034 62.0699 42.5767 61.8183 42.8134 61.4648C43.0502 61.1113 43.1814 60.7648 43.2071 60.4253C43.2327 60.0857 43.1725 59.7818 43.0264 59.5135C42.8838 59.2398 42.6812 59.0152 42.4187 58.8396C42.1507 58.6605 41.863 58.5572 41.5554 58.5299C41.2568 58.5009 40.958 58.5647 40.6591 58.7215C40.3601 58.8783 40.0922 59.1334 39.8555 59.4869C39.6151 59.8458 39.4768 60.1914 39.4404 60.5238C39.4093 60.8597 39.4624 61.1627 39.5996 61.4328C39.7404 61.6976 39.9421 61.9177 40.2046 62.0933ZM44.9156 66.1739C44.503 65.898 44.1906 65.5534 43.9786 65.1402C43.7719 64.7306 43.6869 64.2899 43.7236 63.8182C43.7692 63.3446 43.9444 62.8802 44.2494 62.425C44.5507 61.9751 44.9126 61.6433 45.3351 61.4295C45.7665 61.2139 46.212 61.1279 46.6715 61.1716C47.1347 61.2099 47.5752 61.3687 47.9932 61.6482C48.4111 61.9277 48.7262 62.274 48.9382 62.6872C49.1538 63.0951 49.2433 63.5349 49.2066 64.0066C49.1753 64.482 49.0072 64.9473 48.7023 65.4026C48.3974 65.8578 48.0266 66.1914 47.5898 66.4034C47.1619 66.6136 46.7138 66.6978 46.2453 66.6559C45.7768 66.614 45.3335 66.4534 44.9156 66.1739ZM45.346 65.5312C45.6086 65.7068 45.8963 65.81 46.2093 65.8409C46.5222 65.8718 46.8308 65.8106 47.1351 65.6574C47.4448 65.5078 47.7181 65.2562 47.9548 64.9027C48.1916 64.5492 48.3228 64.2027 48.3485 63.8632C48.3741 63.5236 48.3139 63.2197 48.1678 62.9514C48.0252 62.6777 47.8226 62.4531 47.5601 62.2775C47.2921 62.0984 47.0044 61.9951 46.6968 61.9678C46.3982 61.9388 46.0994 62.0026 45.8005 62.1594C45.5015 62.3162 45.2336 62.5713 44.9969 62.9248C44.7565 63.2837 44.6182 63.6293 44.5818 63.9617C44.5507 64.2976 44.6038 64.6006 44.741 64.8707C44.8818 65.1355 45.0835 65.3556 45.346 65.5312ZM56.4837 67.314C56.8267 67.5433 57.0837 67.8198 57.2547 68.1436C57.4294 68.462 57.4994 68.8151 57.4647 69.2029C57.4299 69.5906 57.2763 69.988 57.0037 70.3951L55.2657 72.99L54.5423 72.5063L56.2103 70.0158C56.5044 69.5766 56.6188 69.1684 56.5533 68.7912C56.4968 68.4122 56.2837 68.0991 55.914 67.8519C55.5335 67.5975 55.1482 67.5182 54.7582 67.6141C54.3717 67.7046 54.0242 67.9802 53.7157 68.4408L52.0908 70.867L51.3674 70.3833L53.0354 67.8928C53.3295 67.4536 53.4438 67.0454 53.3784 66.6682C53.3219 66.2892 53.1087 65.9761 52.739 65.7289C52.3585 65.4745 51.9733 65.3952 51.5832 65.4911C51.1967 65.5816 50.8493 65.8572 50.5408 66.3178L48.9158 68.744L48.1844 68.2549L51.133 63.8524L51.8644 64.3415L51.4393 64.9762C51.7383 64.8426 52.0495 64.7948 52.3732 64.8329C52.7022 64.8745 53.014 64.9939 53.3088 65.191C53.6785 65.4382 53.9498 65.7398 54.1226 66.0957C54.2954 66.4517 54.3438 66.8369 54.2679 67.2514C54.5992 67.0232 54.9643 66.9183 55.3631 66.9368C55.7619 66.9553 56.1354 67.0811 56.4837 67.314ZM59.8148 72.8332C60.1197 72.3779 60.4763 72.0425 60.8845 71.8269C61.2962 71.6059 61.7256 71.5092 62.1727 71.5368C62.6251 71.5679 63.0603 71.7232 63.4783 72.0027C64.0195 72.3646 64.3764 72.7932 64.5489 73.2885C64.7268 73.7874 64.716 74.3075 64.5165 74.8487L63.7287 74.322C63.8331 74.004 63.8274 73.6939 63.7117 73.3917C63.6014 73.0931 63.3855 72.8363 63.064 72.6213C62.646 72.3418 62.2116 72.2607 61.7607 72.3779C61.3133 72.4898 60.9139 72.8081 60.5624 73.333C60.2072 73.8632 60.0614 74.359 60.1249 74.8202C60.1885 75.2814 60.4292 75.6517 60.8472 75.9312C61.1687 76.1462 61.4868 76.2504 61.8016 76.2437C62.1164 76.2371 62.4072 76.1214 62.6741 75.8966L63.4618 76.4233C63.0426 76.7944 62.5647 76.9983 62.0281 77.0349C61.4951 77.0663 60.9633 76.9045 60.4328 76.5498C60.0149 76.2703 59.7052 75.9276 59.5039 75.5216C59.3079 75.1191 59.2337 74.6856 59.281 74.221C59.3284 73.7564 59.5064 73.2938 59.8148 72.8332ZM64.7026 76.0898C65.0039 75.6399 65.3587 75.3072 65.7668 75.0916C66.1786 74.8706 66.6053 74.7721 67.047 74.7961C67.4941 74.8236 67.9132 74.9682 68.3044 75.2297C68.6902 75.4877 68.9695 75.7947 69.1423 76.1506C69.3151 76.5065 69.3869 76.857 69.3576 77.2019L69.8957 76.3985L70.6352 76.8929L67.6866 81.2955L66.9471 80.801L67.4959 79.9816C67.1791 80.1419 66.8186 80.211 66.4144 80.1889C66.0192 80.1651 65.6314 80.0259 65.2509 79.7715C64.8597 79.5099 64.5706 79.1771 64.3836 78.7728C64.1966 78.3686 64.1286 77.9315 64.1795 77.4616C64.2305 76.9916 64.4049 76.5344 64.7026 76.0898ZM68.4268 78.5917C68.6492 78.2596 68.7759 77.9256 68.8069 77.5897C68.838 77.2537 68.7813 76.9445 68.637 76.6618C68.5016 76.3774 68.2973 76.1439 68.024 75.9611C67.7507 75.7784 67.4585 75.6761 67.1474 75.6541C66.8362 75.6322 66.5311 75.6996 66.2322 75.8564C65.9332 76.0132 65.6725 76.2576 65.4501 76.5897C65.2241 76.9271 65.0938 77.2665 65.0592 77.6078C65.0281 77.9437 65.0803 78.2539 65.2157 78.5383C65.3547 78.8173 65.5608 79.0482 65.8341 79.2309C66.1074 79.4137 66.3996 79.516 66.7107 79.538C67.0308 79.5581 67.3404 79.4898 67.6393 79.333C67.9419 79.1709 68.2044 78.9238 68.4268 78.5917ZM73.6358 76.6661L69.6541 82.6111L68.9227 82.122L72.9043 76.177L73.6358 76.6661ZM75.6138 77.9887L71.6322 83.9338L70.9007 83.4447L74.8824 77.4996L75.6138 77.9887Z" fill="#232323"/>
<rect x="0.752841" y="0.455348" width="128.586" height="21.5639" rx="10.782" transform="matrix(0.971042 -0.238908 0.239271 0.970953 63.2351 139.829)" stroke="#023E6A" strokeWidth="1.24404"/>
<path d="M77.7542 150.988C77.3223 151.095 76.9157 151.115 76.5344 151.05C76.1578 150.976 75.8394 150.829 75.579 150.608C75.3171 150.38 75.1391 150.088 75.0449 149.733L75.9556 149.509C76.0625 149.808 76.2517 150.037 76.5232 150.196C76.7995 150.347 77.1504 150.37 77.5761 150.266C77.9829 150.165 78.2775 149.987 78.4597 149.73C78.6467 149.464 78.7008 149.172 78.6222 148.853C78.5605 148.603 78.4415 148.416 78.2652 148.294C78.089 148.171 77.8875 148.095 77.6609 148.064C77.4343 148.033 77.1342 148.014 76.7605 148.007C76.3008 148 75.9257 147.973 75.635 147.925C75.3506 147.876 75.0852 147.755 74.8388 147.563C74.5971 147.364 74.4262 147.061 74.3259 146.654C74.238 146.297 74.2509 145.959 74.3645 145.639C74.4782 145.319 74.6793 145.044 74.9677 144.813C75.2625 144.581 75.6227 144.413 76.0483 144.308C76.6617 144.157 77.2003 144.188 77.6639 144.399C78.1339 144.609 78.4563 144.961 78.6313 145.455L77.6924 145.686C77.5994 145.444 77.414 145.257 77.1361 145.126C76.8567 144.989 76.5261 144.968 76.1443 145.061C75.7875 145.149 75.5195 145.315 75.3405 145.558C75.1599 145.795 75.1104 146.079 75.1922 146.411C75.2508 146.649 75.3643 146.827 75.5328 146.945C75.7075 147.061 75.9019 147.136 76.116 147.169C76.3348 147.195 76.635 147.214 77.0164 147.227C77.4776 147.239 77.8544 147.273 78.1466 147.327C78.4372 147.375 78.7065 147.498 78.9545 147.696C79.2009 147.888 79.3749 148.19 79.4767 148.603C79.5554 148.922 79.5449 149.243 79.4453 149.567C79.3457 149.89 79.1517 150.18 78.8631 150.437C78.5745 150.694 78.2049 150.878 77.7542 150.988ZM83.4385 149.61C82.9565 149.728 82.4914 149.727 82.0431 149.605C81.601 149.481 81.2179 149.247 80.8939 148.902C80.5745 148.549 80.3493 148.106 80.2182 147.574C80.0886 147.048 80.0872 146.558 80.2138 146.102C80.3452 145.638 80.5818 145.251 80.9237 144.941C81.2641 144.625 81.6784 144.407 82.1666 144.287C82.6548 144.167 83.1231 144.168 83.5715 144.29C84.0182 144.405 84.4037 144.636 84.7277 144.981C85.058 145.325 85.2887 145.762 85.4198 146.294C85.5509 146.826 85.5477 147.325 85.4101 147.79C85.2772 148.248 85.0374 148.636 84.6908 148.953C84.3442 149.271 83.9268 149.49 83.4385 149.61ZM83.2534 148.859C83.5602 148.783 83.8304 148.641 84.064 148.43C84.2977 148.22 84.4605 147.951 84.5523 147.623C84.6503 147.294 84.6484 146.922 84.5466 146.509C84.4448 146.096 84.2771 145.766 84.0434 145.518C83.8097 145.27 83.5444 145.11 83.2476 145.037C82.9492 144.957 82.6467 144.955 82.34 145.031C82.027 145.108 81.7568 145.251 81.5294 145.459C81.3067 145.66 81.1526 145.924 81.067 146.25C80.9815 146.577 80.9896 146.946 81.0914 147.359C81.1947 147.779 81.357 148.114 81.5782 148.365C81.8056 148.614 82.0654 148.779 82.3575 148.86C82.6481 148.935 82.9467 148.934 83.2534 148.859ZM86.224 146.097C86.0929 145.565 86.0852 145.075 86.2008 144.629C86.315 144.176 86.5328 143.793 86.8544 143.482C87.1822 143.169 87.5903 142.952 88.0785 142.832C88.7107 142.677 89.2681 142.702 89.7505 142.909C90.2392 143.114 90.6164 143.472 90.882 143.985L89.9619 144.211C89.7971 143.92 89.5641 143.715 89.2627 143.596C88.9676 143.477 88.6322 143.463 88.2567 143.555C87.7684 143.675 87.4157 143.941 87.1986 144.353C86.9798 144.759 86.9461 145.268 87.0972 145.882C87.2499 146.501 87.5181 146.943 87.9019 147.207C88.2856 147.471 88.7216 147.543 89.2099 147.423C89.5854 147.331 89.8768 147.166 90.084 146.929C90.2912 146.692 90.4016 146.4 90.4153 146.051L91.3355 145.825C91.3273 146.384 91.156 146.875 90.8215 147.296C90.4855 147.71 90.0077 147.994 89.388 148.146C88.8998 148.266 88.4377 148.264 88.0019 148.139C87.5724 148.012 87.2018 147.775 86.8903 147.426C86.5788 147.078 86.3567 146.635 86.224 146.097ZM91.8503 141.108C91.6875 141.148 91.5359 141.125 91.3955 141.04C91.2551 140.955 91.1648 140.832 91.1247 140.669C91.0846 140.506 91.107 140.355 91.1919 140.214C91.2768 140.074 91.4006 139.984 91.5634 139.944C91.7199 139.905 91.8652 139.929 91.9994 140.016C92.1398 140.1 92.2301 140.224 92.2702 140.387C92.3103 140.55 92.2879 140.701 92.203 140.842C92.1243 140.981 92.0068 141.069 91.8503 141.108ZM92.4693 141.842L93.7371 146.986L92.8827 147.197L91.6149 142.052L92.4693 141.842ZM94.2356 144.116C94.106 143.59 94.0991 143.104 94.2147 142.657C94.3288 142.204 94.5435 141.823 94.8589 141.513C95.1805 141.201 95.5697 140.989 96.0267 140.877C96.4773 140.766 96.8925 140.767 97.272 140.879C97.6516 140.991 97.959 141.175 98.1942 141.429L97.9629 140.49L98.8267 140.277L100.095 145.422L99.2307 145.635L98.9947 144.677C98.8998 145.019 98.7079 145.332 98.4193 145.615C98.1354 145.891 97.7712 146.084 97.3267 146.193C96.8698 146.305 96.4289 146.294 96.0041 146.16C95.5792 146.025 95.2103 145.781 94.8972 145.426C94.5841 145.072 94.3636 144.635 94.2356 144.116ZM98.5945 143.053C98.4989 142.665 98.3373 142.346 98.1099 142.097C97.8825 141.847 97.6157 141.681 97.3095 141.597C97.008 141.505 96.6977 141.498 96.3784 141.577C96.0592 141.655 95.7866 141.802 95.5608 142.017C95.3349 142.232 95.1792 142.503 95.0936 142.829C95.0081 143.155 95.0131 143.513 95.1088 143.901C95.2059 144.295 95.369 144.62 95.598 144.876C95.8254 145.125 96.0899 145.296 96.3913 145.387C96.6912 145.473 97.0008 145.476 97.3201 145.398C97.6393 145.319 97.9119 145.173 98.1377 144.958C98.3683 144.735 98.5264 144.461 98.6119 144.134C98.6959 143.801 98.6901 143.441 98.5945 143.053ZM100.681 137.909L102.393 144.857L101.538 145.067L99.8264 138.12L100.681 137.909ZM111.249 137.122C111.649 137.023 112.027 137.02 112.382 137.112C112.735 137.198 113.043 137.384 113.306 137.671C113.569 137.958 113.76 138.339 113.877 138.815L114.624 141.848L113.779 142.055L113.062 139.145C112.935 138.632 112.711 138.272 112.388 138.066C112.07 137.852 111.694 137.799 111.263 137.905C110.818 138.014 110.5 138.245 110.308 138.598C110.114 138.944 110.084 139.386 110.217 139.925L110.915 142.76L110.07 142.968L109.353 140.058C109.227 139.544 109.002 139.185 108.679 138.979C108.361 138.765 107.986 138.711 107.554 138.817C107.109 138.927 106.791 139.158 106.599 139.51C106.406 139.857 106.375 140.299 106.508 140.837L107.207 143.673L106.352 143.883L105.084 138.738L105.939 138.528L106.122 139.269C106.224 138.959 106.399 138.697 106.645 138.483C106.897 138.269 107.196 138.119 107.54 138.034C107.972 137.928 108.378 137.931 108.757 138.043C109.137 138.156 109.454 138.38 109.71 138.715C109.764 138.317 109.932 137.977 110.215 137.695C110.497 137.413 110.842 137.222 111.249 137.122ZM120.038 137.578C120.078 137.741 120.111 137.915 120.137 138.101L116.024 139.113C116.181 139.613 116.451 139.968 116.835 140.178C117.223 140.382 117.643 140.428 118.094 140.317C118.463 140.226 118.749 140.066 118.951 139.837C119.159 139.6 119.277 139.325 119.306 139.013L120.226 138.786C120.21 139.315 120.034 139.786 119.698 140.201C119.361 140.609 118.885 140.889 118.272 141.04C117.784 141.16 117.318 141.158 116.876 141.035C116.441 140.909 116.064 140.674 115.746 140.327C115.427 139.974 115.201 139.531 115.07 138.999C114.939 138.467 114.931 137.975 115.045 137.522C115.159 137.069 115.381 136.689 115.71 136.383C116.044 136.068 116.462 135.849 116.962 135.726C117.451 135.606 117.909 135.606 118.337 135.726C118.765 135.847 119.125 136.07 119.418 136.396C119.716 136.715 119.922 137.109 120.038 137.578ZM119.111 137.617C119.031 137.291 118.89 137.031 118.689 136.834C118.487 136.632 118.246 136.502 117.966 136.445C117.691 136.38 117.403 136.384 117.103 136.458C116.671 136.564 116.336 136.793 116.097 137.144C115.864 137.493 115.786 137.917 115.863 138.416L119.111 137.617ZM120.89 137.558C120.761 137.032 120.754 136.546 120.87 136.099C120.984 135.646 121.198 135.265 121.514 134.955C121.835 134.643 122.228 134.43 122.691 134.317C123.091 134.218 123.487 134.22 123.878 134.323C124.267 134.42 124.589 134.596 124.844 134.852L124.173 132.13L125.037 131.917L126.749 138.864L125.886 139.077L125.647 138.11C125.554 138.458 125.366 138.773 125.083 139.055C124.8 139.331 124.435 139.523 123.991 139.633C123.534 139.745 123.09 139.735 122.659 139.602C122.234 139.467 121.865 139.223 121.552 138.869C121.239 138.514 121.018 138.077 120.89 137.558ZM125.249 136.495C125.154 136.107 124.992 135.788 124.765 135.539C124.537 135.289 124.27 135.123 123.964 135.039C123.663 134.947 123.352 134.94 123.033 135.019C122.714 135.097 122.441 135.244 122.216 135.459C121.99 135.674 121.834 135.945 121.748 136.271C121.663 136.597 121.668 136.955 121.764 137.343C121.861 137.737 122.024 138.062 122.253 138.318C122.48 138.567 122.745 138.738 123.046 138.83C123.346 138.915 123.656 138.919 123.975 138.84C124.294 138.761 124.567 138.615 124.793 138.4C125.023 138.177 125.181 137.903 125.267 137.576C125.351 137.244 125.345 136.883 125.249 136.495ZM127.161 132.42C126.998 132.46 126.846 132.438 126.706 132.353C126.566 132.268 126.475 132.144 126.435 131.981C126.395 131.819 126.418 131.667 126.502 131.527C126.587 131.386 126.711 131.296 126.874 131.256C127.03 131.218 127.176 131.241 127.31 131.328C127.45 131.413 127.541 131.537 127.581 131.699C127.621 131.862 127.598 132.014 127.513 132.154C127.435 132.293 127.317 132.382 127.161 132.42ZM127.78 133.154L129.048 138.299L128.193 138.509L126.925 133.364L127.78 133.154ZM129.546 135.428C129.417 134.902 129.41 134.416 129.525 133.969C129.639 133.516 129.854 133.135 130.169 132.825C130.491 132.514 130.88 132.302 131.337 132.189C131.788 132.078 132.203 132.079 132.583 132.192C132.962 132.304 133.27 132.487 133.505 132.741L133.273 131.802L134.137 131.59L135.405 136.735L134.541 136.947L134.305 135.99C134.21 136.332 134.018 136.644 133.73 136.928C133.446 137.204 133.082 137.396 132.637 137.505C132.18 137.618 131.739 137.607 131.315 137.472C130.89 137.338 130.521 137.093 130.208 136.739C129.895 136.384 129.674 135.947 129.546 135.428ZM133.905 134.366C133.809 133.977 133.648 133.659 133.42 133.409C133.193 133.16 132.926 132.993 132.62 132.909C132.319 132.817 132.008 132.811 131.689 132.889C131.37 132.968 131.097 133.115 130.871 133.33C130.645 133.544 130.49 133.815 130.404 134.141C130.319 134.468 130.324 134.825 130.419 135.213C130.516 135.607 130.68 135.932 130.909 136.188C131.136 136.438 131.4 136.608 131.702 136.7C132.002 136.785 132.311 136.789 132.631 136.71C132.95 136.632 133.222 136.485 133.448 136.27C133.679 136.048 133.837 135.773 133.922 135.447C134.006 135.114 134.001 134.754 133.905 134.366ZM138.394 133.251C138.265 132.725 138.258 132.239 138.373 131.792C138.488 131.339 138.702 130.958 139.018 130.648C139.339 130.337 139.732 130.124 140.195 130.01C140.639 129.901 141.052 129.905 141.433 130.024C141.819 130.135 142.126 130.315 142.353 130.564L142.122 129.626L142.985 129.413L144.855 136.999L143.991 137.211L143.156 133.822C143.064 134.15 142.874 134.456 142.585 134.739C142.296 135.023 141.927 135.22 141.476 135.331C141.025 135.442 140.588 135.43 140.163 135.295C139.738 135.161 139.369 134.916 139.056 134.562C138.743 134.208 138.522 133.771 138.394 133.251ZM142.753 132.189C142.658 131.801 142.496 131.482 142.269 131.232C142.041 130.983 141.774 130.816 141.468 130.732C141.167 130.64 140.856 130.634 140.537 130.712C140.218 130.791 139.945 130.938 139.72 131.153C139.494 131.367 139.338 131.638 139.252 131.965C139.167 132.291 139.172 132.648 139.268 133.036C139.365 133.431 139.528 133.756 139.757 134.011C139.984 134.261 140.249 134.431 140.55 134.523C140.85 134.609 141.16 134.612 141.479 134.533C141.798 134.455 142.071 134.308 142.296 134.093C142.527 133.871 142.685 133.596 142.771 133.27C142.855 132.937 142.849 132.577 142.753 132.189ZM148.993 127.935L150.26 133.08L149.406 133.29L149.219 132.53C149.121 132.833 148.943 133.095 148.686 133.318C148.433 133.533 148.132 133.683 147.781 133.769C147.381 133.868 147.001 133.875 146.641 133.791C146.281 133.701 145.965 133.513 145.696 133.227C145.433 132.94 145.242 132.559 145.125 132.083L144.382 129.069L145.227 128.861L145.942 131.762C146.067 132.269 146.292 132.629 146.616 132.841C146.939 133.047 147.323 133.096 147.768 132.986C148.225 132.874 148.55 132.644 148.743 132.298C148.937 131.952 148.967 131.509 148.834 130.971L148.138 128.145L148.993 127.935ZM155.715 128.8C155.755 128.963 155.788 129.138 155.814 129.324L151.702 130.335C151.858 130.835 152.128 131.19 152.512 131.401C152.901 131.604 153.32 131.65 153.771 131.539C154.14 131.448 154.426 131.288 154.629 131.059C154.836 130.822 154.954 130.548 154.983 130.235L155.903 130.009C155.887 130.537 155.712 131.009 155.376 131.423C155.038 131.831 154.563 132.111 153.949 132.262C153.461 132.382 152.996 132.38 152.554 132.257C152.118 132.132 151.741 131.896 151.423 131.549C151.104 131.196 150.879 130.754 150.748 130.222C150.616 129.69 150.608 129.197 150.722 128.744C150.836 128.291 151.058 127.912 151.387 127.605C151.721 127.29 152.139 127.071 152.64 126.948C153.128 126.828 153.586 126.828 154.014 126.949C154.442 127.069 154.802 127.292 155.095 127.619C155.393 127.937 155.599 128.331 155.715 128.8ZM154.789 128.839C154.708 128.514 154.568 128.253 154.367 128.057C154.164 127.854 153.923 127.724 153.643 127.667C153.368 127.602 153.081 127.606 152.78 127.68C152.348 127.787 152.013 128.015 151.774 128.366C151.541 128.715 151.463 129.139 151.54 129.638L154.789 128.839ZM159.368 130.929C158.973 131.026 158.604 131.047 158.258 130.993C157.911 130.932 157.618 130.805 157.378 130.612C157.136 130.412 156.967 130.159 156.871 129.85L157.754 129.633C157.842 129.884 158.013 130.064 158.266 130.174C158.525 130.283 158.83 130.294 159.18 130.208C159.506 130.128 159.745 129.993 159.897 129.803C160.049 129.613 160.098 129.408 160.044 129.189C159.989 128.964 159.848 128.822 159.621 128.765C159.393 128.702 159.056 128.669 158.611 128.665C158.204 128.659 157.867 128.636 157.598 128.596C157.334 128.548 157.089 128.446 156.865 128.288C156.645 128.124 156.494 127.875 156.412 127.543C156.348 127.281 156.366 127.02 156.469 126.763C156.571 126.505 156.751 126.278 157.008 126.082C157.264 125.88 157.576 125.734 157.946 125.643C158.515 125.503 159.011 125.533 159.432 125.735C159.854 125.937 160.139 126.285 160.287 126.779L159.433 126.99C159.348 126.725 159.185 126.536 158.944 126.423C158.71 126.308 158.427 126.291 158.096 126.373C157.789 126.448 157.561 126.574 157.412 126.75C157.263 126.926 157.214 127.12 157.267 127.333C157.308 127.502 157.396 127.63 157.531 127.716C157.669 127.795 157.829 127.849 158.008 127.878C158.193 127.899 158.442 127.914 158.756 127.923C159.15 127.932 159.476 127.958 159.732 128.001C159.987 128.038 160.219 128.134 160.43 128.288C160.647 128.44 160.797 128.672 160.88 128.983C160.949 129.265 160.934 129.538 160.833 129.802C160.732 130.065 160.554 130.299 160.298 130.501C160.047 130.695 159.737 130.838 159.368 130.929ZM162.379 125.388L163.126 128.421C163.188 128.671 163.285 128.837 163.418 128.917C163.549 128.991 163.746 128.995 164.009 128.931L164.638 128.776L164.816 129.499L164.046 129.688C163.57 129.805 163.186 129.784 162.895 129.623C162.603 129.462 162.395 129.132 162.272 128.631L161.524 125.599L160.858 125.763L160.684 125.059L161.351 124.895L161.032 123.599L161.886 123.389L162.205 124.684L163.548 124.354L163.721 125.058L162.379 125.388ZM164.819 123.155C164.656 123.195 164.504 123.173 164.364 123.088C164.223 123.003 164.133 122.879 164.093 122.716C164.053 122.554 164.075 122.402 164.16 122.262C164.245 122.121 164.369 122.031 164.532 121.991C164.688 121.952 164.834 121.976 164.968 122.063C165.108 122.148 165.198 122.272 165.239 122.434C165.279 122.597 165.256 122.749 165.171 122.889C165.093 123.028 164.975 123.117 164.819 123.155ZM165.438 123.889L166.705 129.034L165.851 129.244L164.583 124.099L165.438 123.889ZM170.427 128.208C169.945 128.327 169.479 128.325 169.031 128.203C168.589 128.079 168.206 127.845 167.882 127.5C167.563 127.147 167.337 126.704 167.206 126.172C167.077 125.647 167.075 125.156 167.202 124.7C167.333 124.236 167.57 123.849 167.912 123.539C168.252 123.223 168.666 123.005 169.155 122.885C169.643 122.765 170.111 122.766 170.559 122.888C171.006 123.004 171.392 123.234 171.716 123.579C172.046 123.923 172.277 124.361 172.408 124.893C172.539 125.425 172.536 125.923 172.398 126.389C172.265 126.846 172.025 127.234 171.679 127.551C171.332 127.869 170.915 128.088 170.427 128.208ZM170.241 127.457C170.548 127.381 170.818 127.239 171.052 127.028C171.286 126.818 171.448 126.549 171.54 126.221C171.638 125.892 171.636 125.52 171.535 125.107C171.433 124.694 171.265 124.364 171.031 124.116C170.798 123.868 170.532 123.708 170.236 123.635C169.937 123.555 169.635 123.553 169.328 123.629C169.015 123.706 168.745 123.849 168.517 124.057C168.295 124.258 168.141 124.522 168.055 124.848C167.969 125.175 167.978 125.544 168.079 125.958C168.183 126.377 168.345 126.712 168.566 126.963C168.794 127.212 169.053 127.377 169.346 127.458C169.636 127.533 169.935 127.532 170.241 127.457ZM175.383 121.342C176.009 121.188 176.563 121.255 177.046 121.541C177.526 121.821 177.854 122.318 178.03 123.031L178.778 126.064L177.933 126.272L177.215 123.361C177.089 122.848 176.864 122.488 176.541 122.282C176.217 122.07 175.832 122.019 175.388 122.128C174.937 122.239 174.612 122.468 174.412 122.816C174.219 123.163 174.188 123.605 174.321 124.143L175.022 126.988L174.167 127.198L172.9 122.053L173.754 121.843L173.935 122.575C174.039 122.271 174.217 122.011 174.47 121.796C174.728 121.58 175.033 121.429 175.383 121.342ZM182.016 125.357C181.621 125.454 181.251 125.475 180.906 125.421C180.559 125.36 180.266 125.233 180.026 125.04C179.784 124.84 179.615 124.586 179.519 124.278L180.402 124.061C180.49 124.311 180.661 124.492 180.914 124.602C181.173 124.711 181.478 124.722 181.828 124.636C182.154 124.556 182.392 124.421 182.545 124.231C182.697 124.041 182.746 123.836 182.692 123.617C182.637 123.392 182.496 123.25 182.269 123.193C182.041 123.13 181.704 123.097 181.259 123.093C180.852 123.087 180.515 123.064 180.246 123.024C179.982 122.976 179.737 122.874 179.513 122.716C179.293 122.551 179.142 122.303 179.06 121.971C178.995 121.708 179.014 121.448 179.117 121.191C179.219 120.933 179.399 120.706 179.656 120.51C179.912 120.308 180.224 120.161 180.593 120.071C181.163 119.93 181.659 119.961 182.08 120.163C182.502 120.365 182.787 120.713 182.935 121.207L182.081 121.417C181.995 121.153 181.833 120.964 181.592 120.85C181.358 120.735 181.075 120.719 180.743 120.8C180.437 120.876 180.209 121.002 180.06 121.178C179.911 121.354 179.862 121.548 179.915 121.761C179.956 121.93 180.044 122.058 180.178 122.144C180.317 122.223 180.477 122.277 180.656 122.306C180.841 122.327 181.09 122.342 181.404 122.351C181.798 122.36 182.123 122.386 182.38 122.429C182.634 122.466 182.867 122.562 183.078 122.716C183.294 122.868 183.445 123.1 183.528 123.411C183.597 123.693 183.582 123.966 183.481 124.23C183.38 124.493 183.201 124.726 182.946 124.929C182.695 125.123 182.385 125.266 182.016 125.357Z" fill="#232323"/>
<circle cx="27.3559" cy="147.531" r="10.5268" fill="#023E6A"/>
<circle cx="47.5322" cy="96.6516" r="7.01784" fill="#EB0001"/>
<circle cx="70.3401" cy="130.864" r="7.01784" fill="#EB0001"/>
<circle cx="322.982" cy="122.091" r="7.01784" fill="#EB0001"/>
<ellipse cx="199.731" cy="143.145" rx="16.2287" ry="15.7901" fill="#232323"/>
<circle cx="265.962" cy="130.864" r="13.1584" fill="#023E6A"/>
<circle cx="170.783" cy="148.847" r="11.8426" fill="#EB0001"/>
<g clip-path="url(#clip1_2001_27759)">
<path d="M203.954 40.0884L206.13 48.9737C206.227 49.3686 206.16 49.7511 205.93 50.1213C205.701 50.4915 205.384 50.7259 204.981 50.8246L195.913 53.0452C195.51 53.1439 195.121 53.0822 194.746 52.86C194.371 52.6379 194.135 52.3294 194.039 51.9345L191.863 43.0492C191.766 42.6543 191.833 42.2718 192.062 41.9016C192.292 41.5314 192.609 41.297 193.012 41.1983L202.08 38.9777C202.483 38.879 202.872 38.9407 203.247 39.1629C203.622 39.385 203.857 39.6935 203.954 40.0884ZM210.455 14.9516C210.781 16.2844 210.891 17.5786 210.785 18.8342C210.679 20.0899 210.469 21.1419 210.156 21.9902C209.843 22.8386 209.33 23.7425 208.617 24.7019C207.904 25.6613 207.312 26.3755 206.839 26.8444C206.366 27.3133 205.705 27.9395 204.856 28.723C203.962 29.5436 203.296 30.557 202.857 31.7633C202.418 32.9695 202.274 33.8811 202.425 34.4982C202.528 34.9177 202.475 35.3558 202.266 35.8124C202.058 36.269 201.752 36.5466 201.349 36.6453L192.28 38.8659C191.902 38.9584 191.525 38.8088 191.149 38.4169C190.773 38.0251 190.527 37.5947 190.412 37.1258L190.004 35.4598C189.503 33.4113 189.849 31.2795 191.042 29.0645C192.235 26.8495 193.708 25.0695 195.461 23.7245C196.784 22.6942 197.673 21.744 198.128 20.8741C198.582 20.0041 198.667 18.9891 198.383 17.8291C198.13 16.7925 197.32 16.0227 195.956 15.5198C194.591 15.0168 193.14 14.9534 191.604 15.3297C189.966 15.7306 188.694 16.4216 187.786 17.4026C187.055 18.2355 186.055 19.9847 184.785 22.6501C184.554 23.1252 184.212 23.4183 183.759 23.5293C183.456 23.6033 183.117 23.5817 182.742 23.4644L175.412 20.3541C175.024 20.1875 174.753 19.9268 174.599 19.572C174.446 19.2172 174.43 18.8547 174.553 18.4845C176.976 10.9324 182.016 6.21873 189.674 4.34356C191.69 3.85009 193.811 3.7361 196.039 4.00158C198.267 4.26706 200.356 4.84104 202.308 5.72352C204.26 6.606 205.98 7.8525 207.469 9.46303C208.958 11.0736 209.953 12.9031 210.455 14.9516Z" fill="#EB0001"/>
</g>
<defs>
<clipPath id="clip0_2001_27759">
<rect width="27.3382" height="37.1019" fill="white" transform="translate(145.251 58.9207) rotate(-53.3052)"/>
</clipPath>
<clipPath id="clip1_2001_27759">
<rect width="35.9489" height="48.7878" fill="white" transform="translate(171.912 8.69312) rotate(-13.7592)"/>
</clipPath>
</defs>
</svg>
